<svg enable-background="new 0 0 24.00 24.00" height="240" viewBox="0 0 24 24" width="240" xmlns="http://www.w3.org/2000/svg"><path d="m12 3c4.2186.0034 8.3164 1.4107 11.6465 4l-2.1016 2.6152-1.0449-.1152c-.5678.0017-1.1312.1001-1.666.291l1.8808-2.3418c-2.6301-1.589-5.6419-2.4355-8.7148-2.4492-3.07646.0077-6.09316.8502-8.72852 2.4375l5.11915 6.3672c1.13053-.5268 2.36217-.8014 3.60937-.8047 1.228.0054 2.4394.2762 3.5547.7891l-.0547.7109v2.6445l-3.4902 4.3457-11.634799-14.4902c3.324639-2.5848 7.413789-3.9918 11.624999-4zm11 13c.5 0 1 .5 1 1v4c0 .5-.5 1-1 1h-5c-.5 0-1-.5-1-1v-4c0-.5.5-1 1-1v-1.5c0-1.4 1.1-2.5 2.5-2.5s2.5 1.1 2.5 2.5zm-1 0v-1.5c0-.8-.7-1.5-1.5-1.5s-1.5.7-1.5 1.5v1.5z" stroke-width=".2"/></svg>