<svg enable-background="new 0 0 24.00 24.00" height="240" viewBox="0 0 24 24" width="240" xmlns="http://www.w3.org/2000/svg"><path d="m12 3c-4.21054.0086-8.29894 1.4156-11.623046 4 4.230096 5.3026 7.782996 9.7043 11.632846 14.4902 1.1997-1.4903 2.2829-2.8403 3.4902-4.3457v-2.6445c.0019-.2038.0162-.4073.043-.6094l-3.5391 4.4082-8.73437-10.8633c2.63612-1.5869 5.65353-2.4287 8.73047-2.4355 3.0729.0137 6.0847.8602 8.7148 2.4492l-1.8808 2.3418c.5348-.1909 1.0982-.2893 1.666-.291.3521.0021.703.0414 1.0469.1172.6666-.8288 1.4762-1.8433 2.1015-2.6172-3.3309-2.5897-7.4292-3.997-11.6484-4zm8.5 9c-1.4 0-2.5 1.1-2.5 2.5v1.5c-.5 0-1 .5-1 1v4c0 .5.5 1 1 1h5c.5 0 1-.5 1-1v-4c0-.5-.5-1-1-1v-1.5c0-1.4-1.1-2.5-2.5-2.5zm0 1c.8 0 1.5.7 1.5 1.5v1.5h-3v-1.5c0-.8.7-1.5 1.5-1.5z" fill="#f4f4f7" stroke-width="1.33333"/></svg>