<svg enable-background="new 0 0 24.00 24.00" height="240" viewBox="0 0 24 24" width="240" xmlns="http://www.w3.org/2000/svg"><path d="m12 21 3.6002-4.8003c-1.0028-.7533-2.2494-1.1997-3.6002-1.1997s-2.59738.4464-3.60021 1.1997zm0-18c-4.05247 0-7.79215 1.33919-10.80063 3.59916l1.8001 2.40014c2.50707-1.8833 5.62347-2.99929 9.00053-2.99929 3.377 0 6.4934 1.11599 9.0005 2.9993l1.8001-2.40015c-3.0085-2.25997-6.7481-3.59916-10.8006-3.59916zm0 6c-2.70164 0-5.19476.8928-7.20042 2.3994l1.8001 2.4002c1.50425-1.13 3.37408-1.7996 5.40032-1.7996 2.0262 0 3.8961.6696 5.4003 1.7996l1.8001-2.4002c-2.0056-1.5066-4.4988-2.3994-7.2004-2.3994z" fill="#f4f4f7" stroke-linejoin="round" stroke-width=".2"/></svg>