<svg fill="none" height="24" viewBox="0 0 24 24" width="24" xmlns="http://www.w3.org/2000/svg"><g fill="#f4f4f7"><path d="m16.3956 7.75734c.3906.39052.3906 1.02369 0 1.41421l-2.9814 2.98145 2.6754 2.6754c.3906.3905.3906 1.0237 0 1.4142-.3905.3905-1.0237.3905-1.4142 0l-2.6754-2.6754-2.67542 2.6754c-.39053.3905-1.02369.3905-1.41422 0-.39052-.3905-.39052-1.0237 0-1.4142l2.67544-2.6754-2.98144-2.98145c-.39053-.39052-.39053-1.02369 0-1.41421.39052-.39053 1.02369-.39053 1.41421 0l2.98143 2.98146 2.9814-2.98146c.3906-.39053 1.0237-.39053 1.4142 0z"/><path clip-rule="evenodd" d="m4 1c-1.65685 0-3 1.34315-3 3v16c0 1.6569 1.34315 3 3 3h16c1.6569 0 3-1.3431 3-3v-16c0-1.65685-1.3431-3-3-3zm16 2h-16c-.55228 0-1 .44772-1 1v16c0 .5523.44772 1 1 1h16c.5523 0 1-.4477 1-1v-16c0-.55228-.4477-1-1-1z" fill-rule="evenodd"/></g></svg>