<?xml version="1.0" encoding="UTF-8" standalone="no"?>
<!-- Created with Inkscape (http://www.inkscape.org/) -->

<svg
   version="1.1"
   id="svg2"
   width="25.6"
   height="25.6"
   viewBox="0 0 25.6 25.6"
   sodipodi:docname="go-down.svg"
   inkscape:version="1.1 (c4e8f9ed74, 2021-05-24)"
   xmlns:inkscape="http://www.inkscape.org/namespaces/inkscape"
   xmlns:sodipodi="http://sodipodi.sourceforge.net/DTD/sodipodi-0.dtd"
   xmlns="http://www.w3.org/2000/svg"
   xmlns:svg="http://www.w3.org/2000/svg">
  <defs
     id="defs6">
    <marker
       style="overflow:visible"
       id="DiamondL"
       refX="0.0"
       refY="0.0"
       orient="auto"
       inkscape:stockid="DiamondL"
       inkscape:isstock="true">
      <path
         transform="scale(0.8)"
         style="fill-rule:evenodd;fill:context-stroke;stroke:context-stroke;stroke-width:1.0pt"
         d="M 0,-7.0710768 L -7.0710894,0 L 0,7.0710589 L 7.0710462,0 L 0,-7.0710768 z "
         id="path10266" />
    </marker>
    <marker
       style="overflow:visible"
       id="Tail"
       refX="0.0"
       refY="0.0"
       orient="auto"
       inkscape:stockid="Tail"
       inkscape:isstock="true">
      <g
         transform="scale(-1.2)"
         id="g10235">
        <path
           style="fill:none;fill-rule:evenodd;stroke:context-stroke;stroke-width:0.8;stroke-linecap:round"
           d="M -3.8048674,-3.9585227 L 0.54352094,0"
           id="path10223" />
        <path
           style="fill:none;fill-rule:evenodd;stroke:context-stroke;stroke-width:0.8;stroke-linecap:round"
           d="M -1.2866832,-3.9585227 L 3.0617053,0"
           id="path10225" />
        <path
           style="fill:none;fill-rule:evenodd;stroke:context-stroke;stroke-width:0.8;stroke-linecap:round"
           d="M 1.3053582,-3.9585227 L 5.6537466,0"
           id="path10227" />
        <path
           style="fill:none;fill-rule:evenodd;stroke:context-stroke;stroke-width:0.8;stroke-linecap:round"
           d="M -3.8048674,4.1775838 L 0.54352094,0.21974226"
           id="path10229" />
        <path
           style="fill:none;fill-rule:evenodd;stroke:context-stroke;stroke-width:0.8;stroke-linecap:round"
           d="M -1.2866832,4.1775838 L 3.0617053,0.21974226"
           id="path10231" />
        <path
           style="fill:none;fill-rule:evenodd;stroke:context-stroke;stroke-width:0.8;stroke-linecap:round"
           d="M 1.3053582,4.1775838 L 5.6537466,0.21974226"
           id="path10233" />
      </g>
    </marker>
    <marker
       style="overflow:visible"
       id="Arrow1Lstart"
       refX="0.0"
       refY="0.0"
       orient="auto"
       inkscape:stockid="Arrow1Lstart"
       inkscape:isstock="true">
      <path
         transform="scale(0.8) translate(12.5,0)"
         style="fill-rule:evenodd;fill:context-stroke;stroke:context-stroke;stroke-width:1.0pt"
         d="M 0.0,0.0 L 5.0,-5.0 L -12.5,0.0 L 5.0,5.0 L 0.0,0.0 z "
         id="path10187" />
    </marker>
    <linearGradient
       id="linearGradient9778"
       inkscape:swatch="solid">
      <stop
         style="stop-color:#000000;stop-opacity:1;"
         offset="0"
         id="stop9776" />
    </linearGradient>
  </defs>
  <sodipodi:namedview
     id="namedview4"
     pagecolor="#ffffff"
     bordercolor="#666666"
     borderopacity="1.0"
     inkscape:pageshadow="2"
     inkscape:pageopacity="0.0"
     inkscape:pagecheckerboard="0"
     showgrid="false"
     inkscape:zoom="16"
     inkscape:cx="13.09375"
     inkscape:cy="13.84375"
     inkscape:window-width="1920"
     inkscape:window-height="1055"
     inkscape:window-x="0"
     inkscape:window-y="0"
     inkscape:window-maximized="1"
     inkscape:current-layer="g8" />
  <g
     inkscape:groupmode="layer"
     inkscape:label="Image"
     id="g8">
    <path
       style="fill:#8b9cbe;fill-rule:evenodd;stroke:#000000;stroke-width:0;stroke-linecap:round;stroke-linejoin:bevel;stroke-miterlimit:4;stroke-dasharray:0,0;stroke-dashoffset:0;paint-order:fill markers stroke"
       id="path5096"
       sodipodi:type="arc"
       sodipodi:cx="12.819943"
       sodipodi:cy="12.852658"
       sodipodi:rx="12.648215"
       sodipodi:ry="12.340476"
       sodipodi:start="0"
       sodipodi:end="6.2812552"
       sodipodi:arc-type="slice"
       d="M 25.468159,12.852658 A 12.648215,12.340476 0 0 1 12.826047,25.193133 12.648215,12.340476 0 0 1 0.17173402,12.864567 12.648215,12.340476 0 0 1 12.801634,0.51219517 12.648215,12.340476 0 0 1 25.468135,12.82884 l -12.648192,0.02382 z" />
    <path
       style="fill:#8b9cbe;fill-opacity:1;fill-rule:evenodd;stroke:#000000;stroke-width:0;stroke-linecap:round;stroke-linejoin:bevel;stroke-miterlimit:4;stroke-dasharray:none;stroke-dashoffset:1.3e-07;stroke-opacity:1;paint-order:fill markers stroke"
       id="path11151"
       sodipodi:type="arc"
       sodipodi:cx="12.862748"
       sodipodi:cy="12.768109"
       sodipodi:rx="12.8"
       sodipodi:ry="12.8"
       sodipodi:start="0"
       sodipodi:end="6.2819287"
       sodipodi:arc-type="slice"
       d="m 25.662748,12.768109 a 12.8,12.8 0 0 1 -12.795979,12.8 A 12.8,12.8 0 0 1 0.06275048,12.776152 12.8,12.8 0 0 1 12.850685,-0.03188518 12.8,12.8 0 0 1 25.662738,12.752025 l -12.79999,0.01608 z" />
    <path
       style="fill:#f4f4f7;fill-opacity:1;fill-rule:evenodd;stroke:#000000;stroke-width:0.221387;stroke-linecap:round;stroke-linejoin:bevel;stroke-miterlimit:4;stroke-dasharray:2.65665, 0.221387;stroke-dashoffset:1.43903;stroke-opacity:1;paint-order:fill markers stroke"
       d="M 12.683051,18.337571 C 12.545834,18.297321 11.713018,17.541798 10.68542,16.525341 9.7161496,15.56658 7.8930392,13.783897 6.6340632,12.563823 4.2273069,10.231435 4.1055066,10.075656 4.2675343,9.5371087 4.4877863,8.8050349 5.2921439,8.4931877 5.9510298,8.8844223 c 0.15203,0.090273 1.7563143,1.6140967 3.5650764,3.3862747 2.3361238,2.288873 3.3436088,3.222142 3.4783798,3.222142 0.104346,0 0.286556,-0.105835 0.404911,-0.235189 0.262602,-0.287008 4.496635,-4.593787 5.621336,-5.7179187 0.847661,-0.8472313 1.125843,-0.9934268 1.649861,-0.8670676 0.296876,0.071587 0.624309,0.4191781 0.725038,0.7696761 0.156522,0.5446335 -0.0025,0.7946682 -1.448287,2.2778462 -0.7451,0.764345 -1.399345,1.427344 -1.453879,1.473331 -0.244619,0.206283 -4.208486,4.314441 -4.42641,4.587539 -0.403945,0.506217 -0.889659,0.701525 -1.384005,0.556515 z"
       id="use3468" />
  </g>
</svg>
