<?xml version="1.0" encoding="UTF-8" standalone="no"?>
<svg
   width="16"
   height="16"
   viewBox="0 0 16 16"
   fill="none"
   version="1.1"
   id="svg4"
   sodipodi:docname="window-close.svg"
   inkscape:version="1.1 (c4e8f9ed74, 2021-05-24)"
   xmlns:inkscape="http://www.inkscape.org/namespaces/inkscape"
   xmlns:sodipodi="http://sodipodi.sourceforge.net/DTD/sodipodi-0.dtd"
   xmlns="http://www.w3.org/2000/svg"
   xmlns:svg="http://www.w3.org/2000/svg">
  <defs
     id="defs8" />
  <sodipodi:namedview
     id="namedview6"
     pagecolor="#ffffff"
     bordercolor="#666666"
     borderopacity="1.0"
     inkscape:pageshadow="2"
     inkscape:pageopacity="0.0"
     inkscape:pagecheckerboard="0"
     showgrid="false"
     inkscape:zoom="13.53125"
     inkscape:cx="7.0577367"
     inkscape:cy="18.512702"
     inkscape:window-width="942"
     inkscape:window-height="1031"
     inkscape:window-x="966"
     inkscape:window-y="12"
     inkscape:window-maximized="0"
     inkscape:current-layer="svg4" />
  <path
     d="M8 0C5.87827 0 3.84344 0.842855 2.34315 2.34315C0.842855 3.84344 0 5.87827 0 8C0 10.1217 0.842855 12.1566 2.34315 13.6569C3.84344 15.1571 5.87827 16 8 16C10.1217 16 12.1566 15.1571 13.6569 13.6569C15.1571 12.1566 16 10.1217 16 8C16 5.87827 15.1571 3.84344 13.6569 2.34315C12.1566 0.842855 10.1217 0 8 0V0ZM4.707 4L8 7.294L11.293 4.001L12 4.708L8.707 8.001L12 11.294L11.293 12.001L8 8.708L4.707 12.001L4 11.294L7.293 8.001L4 4.708L4.707 4.001"
     fill="#Ff3d81"
     id="path2" />
  <circle
     id="path854"
     style="fill:#8b9cbe;stroke:#000000"
     cx="4.609447"
     cy="4.5494308"
     r="0" />
  <circle
     id="path856"
     style="fill:#8b9cbe;stroke:#000000"
     cx="4.609447"
     cy="4.5494308"
     r="0" />
  <path
     style="fill:none;stroke:#000000;stroke-width:1.11509px;stroke-linecap:round;stroke-linejoin:miter;stroke-opacity:1;paint-order:fill markers stroke"
     d="M 4.0330733,4.0262235 11.91596,11.914586"
     id="path924" />
  <path
     style="fill:none;stroke:#000000;stroke-width:1.10517px;stroke-linecap:round;stroke-linejoin:miter;stroke-opacity:1;paint-order:fill markers stroke"
     d="M 12.085732,3.9082511 4.2442419,11.697819"
     id="path924-3" />
  <path
     style="fill:#f4f4f7;fill-opacity:1;stroke:#f4f4f7;stroke-width:1.00499997;stroke-linecap:round;stroke-linejoin:miter;stroke-opacity:1;paint-order:fill markers stroke;stroke-miterlimit:4;stroke-dasharray:none"
     d="M 12.085732,3.9082515 4.2442419,11.697819"
     id="path924-3-6" />
  <path
     style="fill:#f4f4f7;fill-opacity:1;stroke:#f4f4f7;stroke-width:1.014;stroke-linecap:round;stroke-linejoin:miter;stroke-miterlimit:4;stroke-dasharray:none;stroke-opacity:1;paint-order:fill markers stroke"
     d="M 11.91596,11.914586 4.0330733,4.0262235"
     id="path924-3-6-7"
     inkscape:transform-center-x="4.0267878"
     inkscape:transform-center-y="-3.9576387" />
</svg>
