<svg enable-background="new 0 0 24.00 24.00" height="240" viewBox="0 0 24 24" width="240" xmlns="http://www.w3.org/2000/svg"><path d="m15.066 12.252-.895.918c-.537.5369-.92 1.009-1.084 1.828h-2.037c.114-.9021.509-1.7171 1.121-2.328l1.243-1.258c.361-.362.585-.862.585-1.41404 0-1.10401-.895-2-2-2-1.104 0-2.00004.89599-2.00004 2h-1.99997c0-2.20902 1.79099-4 4.00001-4 2.21 0 4 1.79098 4 4 0 .88004-.356 1.67704-.933 2.25404zm-2.067 6.746h-2v-2h2m3.667-13.00004h-1.667v-2h-6.00004v2h-1.66598c-.737 0-1.33399.59698-1.33399 1.33398v15.33296c0 .736.59699 1.3331 1.33399 1.3331h9.33302c.736 0 1.333-.5971 1.333-1.3331v-15.33296c0-.737-.597-1.33398-1.333-1.33398z" fill="#f4f4f7" stroke-linejoin="round" stroke-width=".2"/></svg>