<svg fill="none" height="24" viewBox="0 0 24 24" width="24" xmlns="http://www.w3.org/2000/svg"><g clip-rule="evenodd" fill="#f4f4f7" fill-rule="evenodd"><path d="m2 12c0-5.52285 4.47715-10 10-10 5.5228 0 10 4.47715 10 10 0 5.5228-4.4772 10-10 10-5.52285 0-10-4.4772-10-10zm10-8c-4.41828 0-8 3.58172-8 8 0 4.4183 3.58172 8 8 8 4.4183 0 8-3.5817 8-8 0-4.41828-3.5817-8-8-8z"/><path d="m13 7c0-.55228-.4477-1-1-1s-1 .44772-1 1v4h-4c-.55228 0-1 .4477-1 1s.44772 1 1 1h4v4c0 .5523.4477 1 1 1s1-.4477 1-1v-4h4c.5523 0 1-.4477 1-1s-.4477-1-1-1h-4z"/></g></svg>