<svg fill="none" height="24" viewBox="0 0 24 24" width="24" xmlns="http://www.w3.org/2000/svg"><g fill="#f4f4f7"><path d="m5.45887 2-4.45887 4.01478 1.33826 1.48629 4.45887-4.01478z"/><path d="m11 8h2v4h3v2h-5z"/><path clip-rule="evenodd" d="m3 12c0-4.97056 4.02944-9 9-9 4.9706 0 9 4.02944 9 9 0 4.9706-4.0294 9-9 9-4.97056 0-9-4.0294-9-9zm2 0c0-3.86599 3.13401-7 7-7 3.866 0 7 3.13401 7 7 0 3.866-3.134 7-7 7-3.86599 0-7-3.134-7-7z" fill-rule="evenodd"/><path d="m18.5411 2 4.4589 4.01478-1.3383 1.48629-4.4588-4.01478z"/></g></svg>