<svg fill="none" height="24" viewBox="0 0 24 24" width="24" xmlns="http://www.w3.org/2000/svg"><path clip-rule="evenodd" d="m15 6c0 1.30622-.8348 2.41746-2 2.82929v8.04471c1.7252-.4441 3-2.0102 3-3.874h2c0 2.973-2.1623 5.441-5 5.917v1.083c0 .5523-.4477 1-1 1s-1-.4477-1-1v-1.083c-2.83771-.476-5-2.944-5-5.917h2c0 1.8638 1.27477 3.4299 3 3.874v-8.04471c-1.16519-.41183-2-1.52307-2-2.82929 0-1.65685 1.3431-3 3-3s3 1.34315 3 3zm-3 1c.5523 0 1-.44772 1-1s-.4477-1-1-1-1 .44772-1 1 .4477 1 1 1z" fill="#f4f4f7" fill-rule="evenodd"/></svg>