<svg height="32" viewBox="0 0 32 32" width="32" xmlns="http://www.w3.org/2000/svg"><path d="m6.802 20.283c0 1.23-.857 2.237-1.904 2.237s-1.905-1.006-1.905-2.237v-7.321c0-1.23.857-2.237 1.905-2.237s1.904 1.007 1.904 2.237zm22.205 0c0 1.23-.857 2.237-1.905 2.237s-1.905-1.006-1.905-2.237v-7.321c0-1.23.857-2.237 1.905-2.237s1.905 1.007 1.905 2.237zm-8.843-16.634 1.222-2.193c.1-.179.07-.388-.065-.463s-.329.009-.428.188l-1.25 2.244c-1.115-.439-2.364-.684-3.684-.684-1.33 0-2.588.25-3.71.695l-1.256-2.254c-.1-.179-.293-.264-.428-.188s-.165.284-.065.463l1.228 2.204c-2.555 1.2-4.276 3.453-4.276 6.035 0 .262.019.521.053.776h16.909c.035-.255.053-.513.053-.776 0-2.59-1.732-4.849-4.301-6.046zm-8.067 3.828c-.411 0-.744-.333-.744-.744s.333-.744.744-.744.744.333.744.744-.333.744-.744.744zm7.764 0c-.411 0-.744-.333-.744-.744s.333-.744.744-.744.744.333.744.744-.333.744-.744.744zm-12.411 3.734v12.471h.007c.087 1.053 1.056 1.89 2.23 1.89h12.541c1.173 0 2.142-.837 2.23-1.89h.007v-12.471h-17.014zm7.29 14.299v3.858c0 1.23-.857 2.237-1.905 2.237s-1.904-1.007-1.904-2.237v-3.855zm6.348-.002v3.86c0 1.23-.857 2.237-1.905 2.237s-1.905-1.007-1.905-2.237v-3.86z" fill="#f4f4f7"/></svg>