<svg fill="none" height="24" viewBox="0 0 24 24" width="24" xmlns="http://www.w3.org/2000/svg"><path clip-rule="evenodd" d="m16.4975 5.02988c-.0002.0481-.0016.09593-.0041.14347 1.1686.40997 2.0066 1.52293 2.0066 2.83161v.99997h1v3.99997h-1v3.0001c0 1.3079-.837 2.4204-2.0047 2.8309.0031.056.0047.1123.0047.1691 0 1.6568-1.3431 3-3 3h-4c-1.65685 0-3-1.3432-3-3 0-.0568.00158-.1131.00468-.1691-1.16763-.4105-2.00468-1.523-2.00468-2.8309v-8.00004c0-1.30729.83618-2.41928 2.00286-2.83031-.00379-.06433-.00556-.12919-.00523-.19454.00824-1.65683 1.35806-2.99328 3.01489-2.98503l3.99998.01991c1.6568.00825 2.9933 1.35806 2.985 3.01489zm-7.99986-.02492h5.99986c-.0053-.54542-.4477-.98727-.995-.99l-3.99993-.01991c-.55228-.00274-1.00222.44274-1.00497.99501zm7.20726 2.021-4.2203-.021h-3.9846c-.55228 0-1 .44771-1 1v8.00004c0 .5518.44696.9992.9986 1h8.0028c.5516-.0008.9986-.4482.9986-1v-8.00004c0-.48207-.3411-.88447-.7951-.979zm-7.2049 11.97904c0 .5522.44772 1 1 1h4c.5523 0 1-.4478 1-1z" fill="#f4f4f7" fill-rule="evenodd"/></svg>