<svg fill="none" height="24" viewBox="0 0 24 24" width="24" xmlns="http://www.w3.org/2000/svg"><g fill="#f4f4f7"><path d="m12.9841 4.99255c0-.55228.4477-1 1-1 .3574 0 .671.18749.8478.46947l2.6876 2.68762c.3906.39052.3906 1.02369 0 1.41421-.3905.39053-1.0237.39053-1.4142 0l-1.1212-1.12122v7.54997c0 .5522-.4477 1-1 1s-1-.4478-1-1v-9.9506c-.0001-.00912-.0001-.01824 0-.02736z"/><path d="m11.0159 19.0074c0 .5523-.4477 1-1 1-.3574 0-.671-.1874-.84783-.4694l-2.68762-2.6876c-.39052-.3906-.39052-1.0237 0-1.4143.39053-.3905 1.02369-.3905 1.41422 0l1.12122 1.1213v-7.54995c0-.55229.44772-1 1.00001-1 .5523 0 1 .44771 1 1v9.95055c.0001.0091.0001.0182 0 .0274z"/></g></svg>