<svg fill="none" height="24" viewBox="0 0 24 24" width="24" xmlns="http://www.w3.org/2000/svg"><g fill="#f4f4f7"><path d="m12.0519 14.8285 1.4142 1.4142 4.2426-4.2427-4.2426-4.2426-1.4142 1.41421 1.8284 1.82839h-7.53712v2h7.53712z"/><path clip-rule="evenodd" d="m1 19c0 2.2091 1.79086 4 4 4h14c2.2091 0 4-1.7909 4-4v-14c0-2.20914-1.7909-4-4-4h-14c-2.20914 0-4 1.79086-4 4zm4 2h14c1.1046 0 2-.8954 2-2v-14c0-1.10457-.8954-2-2-2h-14c-1.10457 0-2 .89543-2 2v14c0 1.1046.89543 2 2 2z" fill-rule="evenodd"/></g></svg>