<svg fill="none" height="24" viewBox="0 0 24 24" width="24" xmlns="http://www.w3.org/2000/svg"><path clip-rule="evenodd" d="m10.9991 6.84976c-1.16571-.41157-2.00097-1.52305-2.00097-2.82962 0-1.65685 1.34317-3 2.99997-3 1.6569 0 3 1.34315 3 3 0 1.30587-.8343 2.41687-1.999 2.82897l.013 12.28839 1.8123-1.8225 1.4182 1.4103-4.2307 4.2546-4.25451-4.2308 1.41024-1.4182 1.84457 1.8343zm.999-1.82962c-.5523 0-1-.44771-1-1 0-.55228.4477-1 1-1s1 .44772 1 1c0 .55229-.4477 1-1 1z" fill="#f4f4f7" fill-rule="evenodd"/></svg>