<svg fill="none" height="24" viewBox="0 0 24 24" width="24" xmlns="http://www.w3.org/2000/svg"><path clip-rule="evenodd" d="m18.73 7.75739 4.2498 4.23551-4.2355 4.2497-1.4166-1.4118 1.8143-1.8205-12.28836.0422c-.40686 1.1665-1.5141 2.0059-2.81996 2.0117-1.65684.0075-3.00601-1.3296-3.01345-2.9865-.00744-1.6568 1.32966-3.00597 2.9865-3.01341 1.30655-.00587 2.42177.82438 2.83858 1.98821l12.31539-.0422-1.8425-1.83632zm-13.70981 4.30241c-.00248-.5523-.4522-.998-1.00448-.9955-.55228.0024-.99798.4522-.9955 1.0044.00248.5523.45221.998 1.00448.9955.55228-.0024.99798-.4522.9955-1.0044z" fill="#f4f4f7" fill-rule="evenodd"/></svg>