<svg fill="none" height="24" viewBox="0 0 24 24" width="24" xmlns="http://www.w3.org/2000/svg"><g fill="#f4f4f7"><path d="m14.8284 12.0259 1.4142 1.4143-4.2426 4.2426-4.24267-4.2426 1.41422-1.4143 1.82845 1.8285v-7.53716h2v7.53716z"/><path clip-rule="evenodd" d="m1 5c0-2.20914 1.79086-4 4-4h14c2.2091 0 4 1.79086 4 4v14c0 2.2091-1.7909 4-4 4h-14c-2.20914 0-4-1.7909-4-4zm4-2h14c1.1046 0 2 .89543 2 2v14c0 1.1046-.8954 2-2 2h-14c-1.10457 0-2-.8954-2-2v-14c0-1.10457.89543-2 2-2z" fill-rule="evenodd"/></g></svg>