<svg fill="none" height="24" viewBox="0 0 24 24" width="24" xmlns="http://www.w3.org/2000/svg"><path clip-rule="evenodd" d="m7.75751 5.23078 4.27459-4.21049 4.2104 4.27463-1.4248 1.4035-1.8036-1.83106-.0714 12.28814c1.1627.4177 1.9918 1.5326 1.9856 2.8385-.0079 1.6568-1.3574 2.9936-3.0142 2.9857-1.6569-.0079-2.99361-1.3574-2.98574-3.0142.0062-1.3066.84672-2.4141 2.01434-2.8201l.0715-12.31523-1.8532 1.82546zm4.17559 13.74892c-.5523-.0026-1.0021.443-1.0048.9953-.0026.5523.443 1.0021.9953 1.0047s1.0021-.443 1.0047-.9952c.0026-.5523-.443-1.0021-.9952-1.0048z" fill="#f4f4f7" fill-rule="evenodd"/></svg>