<svg fill="none" height="24" viewBox="0 0 24 24" width="24" xmlns="http://www.w3.org/2000/svg"><g fill="#f4f4f7"><path d="m11.9481 14.8285-1.4142 1.4142-4.24268-4.2427 4.24268-4.2426 1.4142 1.41421-1.8285 1.82839h7.5372v2h-7.5372z"/><path clip-rule="evenodd" d="m4.22183 19.7782c-4.2957719-4.2958-4.2957719-11.26061 0-15.55637 4.29576-4.2957719 11.26057-4.2957719 15.55637 0 4.2957 4.29576 4.2957 11.26057 0 15.55637-4.2958 4.2957-11.26061 4.2957-15.55637 0zm1.41421-1.4142c-3.51472-3.5148-3.51472-9.21324 0-12.72796s9.21316-3.51472 12.72796 0c3.5147 3.51472 3.5147 9.21316 0 12.72796-3.5148 3.5147-9.21324 3.5147-12.72796 0z" fill-rule="evenodd"/></g></svg>