<svg fill="none" height="24" viewBox="0 0 24 24" width="24" xmlns="http://www.w3.org/2000/svg"><g fill="#f4f4f7"><path d="m14.8285 11.9481 1.4142-1.4142-4.2427-4.24268-4.2426 4.24268 1.41421 1.4142 1.82839-1.8285v7.5372h2v-7.5372z"/><path clip-rule="evenodd" d="m19.7782 4.22183c-4.2958-4.2957715-11.26061-4.2957722-15.55637 0-4.2957715 4.29576-4.2957722 11.26057 0 15.55637 4.29576 4.2957 11.26057 4.2957 15.55637 0 4.2957-4.2958 4.2957-11.26061 0-15.55637zm-1.4142 1.41421c-3.5148-3.51472-9.21324-3.51472-12.72796 0s-3.51472 9.21316 0 12.72796c3.51472 3.5147 9.21316 3.5147 12.72796 0 3.5147-3.5148 3.5147-9.21324 0-12.72796z" fill-rule="evenodd"/></g></svg>