<svg fill="none" height="24" viewBox="0 0 24 24" width="24" xmlns="http://www.w3.org/2000/svg"><g fill="#f4f4f7"><path d="m12.9842 15c0 .5523.4477 1 1 1 .3574 0 .671-.1875.8478-.4695l2.6876-2.6876c.3905-.3905.3905-1.0237 0-1.4142s-1.0237-.3905-1.4142 0l-1.1212 1.1212v-7.5499c0-.55229-.4478-1-1-1-.5523 0-1 .44772-1 1v9.9506c-.0002.0091-.0002.0182 0 .0273z"/><path d="m11.016 9c0-.55229-.4478-1-1-1-.35744 0-.67104.18748-.84787.46947l-2.68761 2.68763c-.39053.3905-.39053 1.0237-.00001 1.4142.39053.3905 1.02369.3905 1.41422 0l1.12123-1.1212v7.5499c0 .5523.44771 1 1.00004 1 .5522 0 1-.4477 1-1v-9.95055c.0001-.00912.0001-.01824 0-.02737z"/></g></svg>