<svg fill="none" height="24" viewBox="0 0 24 24" width="24" xmlns="http://www.w3.org/2000/svg"><path clip-rule="evenodd" d="m5.27 7.75737-4.2498 4.23543 4.23556 4.2498 1.4166-1.4118-1.81435-1.8205 12.28829.0422c.4069 1.1665 1.5141 2.0058 2.82 2.0117 1.6568.0075 3.006-1.3296 3.0135-2.9865.0074-1.6568-1.3297-3.00598-2.9865-3.01343-1.3066-.00586-2.4218.82438-2.8386 1.98823l-12.31536-.0423 1.84248-1.83623zm13.7098 4.30243c.0025-.5523.4522-.998 1.0045-.9955.5523.0024.998.4522.9955 1.0044-.0025.5523-.4522.998-1.0045.9955-.5523-.0024-.998-.4522-.9955-1.0044z" fill="#f4f4f7" fill-rule="evenodd"/></svg>