<svg fill="none" height="24" viewBox="0 0 24 24" width="24" xmlns="http://www.w3.org/2000/svg"><g fill="#f4f4f7"><path d="m4.99255 12.9841c-.55228 0-1 .4477-1 1 0 .3574.18749.671.46947.8478l2.68762 2.6876c.39052.3906 1.02369.3906 1.41421 0 .39053-.3905.39053-1.0237 0-1.4142l-1.12122-1.1212h7.54997c.5522 0 1-.4477 1-1s-.4478-1-1-1h-9.9506c-.00912-.0001-.01824-.0001-.02736 0z"/><path d="m19.0074 11.0159c.5523 0 1-.4477 1-1 0-.3574-.1874-.671-.4694-.84783l-2.6876-2.68762c-.3906-.39052-1.0237-.39052-1.4143 0-.3905.39053-.3905 1.02369 0 1.41422l1.1213 1.12122h-7.54995c-.55229 0-1 .44772-1 1.00001 0 .5523.44771 1 1 1h9.95055c.0091.0001.0182.0001.0274 0z"/></g></svg>