<svg fill="none" height="24" viewBox="0 0 24 24" width="24" xmlns="http://www.w3.org/2000/svg"><path d="m6 8c.74028 0 1.38663-.4022 1.73244-1h6.26756c1.1046 0 2 .89543 2 2 0 1.1046-.8954 2-2 2h-4c-2.20914 0-4 1.7909-4 4s1.79086 4 4 4h6.2676c.3458.5978.9921 1 1.7324 1 1.1046 0 2-.8954 2-2s-.8954-2-2-2c-.7403 0-1.3866.4022-1.7324 1h-6.2676c-1.10457 0-2-.8954-2-2s.89543-2 2-2h4c2.2091 0 4-1.7909 4-4 0-2.20914-1.7909-4-4-4h-6.26756c-.34581-.5978-.99216-1-1.73244-1-1.10457 0-2 .89543-2 2s.89543 2 2 2z" fill="#f4f4f7"/></svg>