<svg fill="none" height="24" viewBox="0 0 24 24" width="24" xmlns="http://www.w3.org/2000/svg"><path clip-rule="evenodd" d="m19 9c0 2.3787-1.1865 4.4804-3 5.7453v7.2547h-2.5858l-1.4142-1.4142-1.4142 1.4142h-2.5858v-7.2547c-1.81348-1.2649-3-3.3666-3-5.7453 0-3.86599 3.13401-7 7-7 3.866 0 7 3.13401 7 7zm-2 0c0 2.7614-2.2386 5-5 5-2.76142 0-5-2.2386-5-5 0-2.76142 2.23858-5 5-5 2.7614 0 5 2.23858 5 5zm-7 10.7573 2-2 2 2.0001v-4.0473c-.6337.1886-1.305.2899-2 .2899s-1.3663-.1013-2-.2899z" fill="#f4f4f7" fill-rule="evenodd"/></svg>