<svg height="32" viewBox="0 0 34 32" width="34" xmlns="http://www.w3.org/2000/svg"><g fill="#f4f4f7"><path d="m10.871 28.625-3.22-1.155v-4.72l3.22 1.097z"/><path d="m11.461 28.625 3.22-1.155v-4.72l-3.22 1.097z"/><path d="m7.981 22.396 3.259-.917 3.022.974-3.022 1.026z"/><path d="m7.037 22.031-3.22-1.155v-4.72l3.22 1.097z"/><path d="m7.628 22.031 3.22-1.155v-4.72l-3.22 1.097z"/><path d="m4.148 15.802 3.259-.917 3.022.975-3.022 1.026z"/><path d="m14.551 22.031-3.221-1.155v-4.72l3.221 1.097z"/><path d="m15.142 22.031 3.22-1.155v-4.72l-3.22 1.097z"/><path d="m11.662 15.802 3.259-.917 3.022.975-3.022 1.026z"/><path d="m18.385 15.436-3.22-1.155v-4.72l3.22 1.097z"/><path d="m18.976 15.436 3.22-1.155v-4.72l-3.22 1.097z"/><path d="m15.496 9.208 3.259-.917 3.022.974-3.022 1.026z"/><path d="m25.899 15.436-3.22-1.155v-4.72l3.22 1.097z"/><path d="m26.49 15.436 3.221-1.155v-4.72l-3.221 1.097z"/><path d="m23.01 9.208 3.259-.917 3.022.974-3.022 1.026z"/></g></svg>