<svg fill="none" height="24" viewBox="0 0 24 24" width="24" xmlns="http://www.w3.org/2000/svg"><g fill="#f4f4f7"><path d="m11.9389 9.76478c-.2334.50052-.8284.71712-1.3289.48372-.5006-.2334-.71712-.82842-.4837-1.32896.2334-.50054.8284-.7171 1.3289-.48369.5006.2334.7171.82838.4837 1.32893z"/><path d="m8.9195 13.8737c.50054.2334 1.0955.0168 1.3289-.4837s.0169-1.0955-.48366-1.3289c-.50054-.2334-1.09552-.0169-1.32893.4837-.2334.5005-.01685 1.0955.48369 1.3289z"/><path d="m13.8737 15.0805c-.2334.5005-.8284.7171-1.329.4837-.5005-.2334-.7171-.8284-.4837-1.329.2334-.5005.8284-.7171 1.329-.4836.5005.2334.7171.8283.4837 1.3289z"/><path d="m14.2352 11.9389c.5005.2334 1.0955.0169 1.3289-.4837.2334-.5005.0169-1.0955-.4837-1.3289-.5005-.23338-1.0955-.0168-1.3289.4837-.2334.5006-.0168 1.0955.4837 1.3289z"/><path clip-rule="evenodd" d="m17.0714 1.12432c-3.0032-1.400439-6.5731-.10111-7.97357 2.90213l-5.07142 10.87565c-1.40043 3.0033-.1011 6.5732 2.90214 7.9736s6.57315.1011 7.97355-2.9021l5.0714-10.87573c1.4005-3.00324.1011-6.57312-2.9021-7.97355zm-3.1367 16.19138 3.381-7.2504-7.2505-3.381-3.38093 7.2505zm-.8452 1.8126-7.25047-3.3809c-.93362 2.0021-.0674 4.3821 1.93476 5.3157s4.38211.0674 5.31571-1.9348zm3.1367-16.19137c2.0021.93362 2.8683 3.31354 1.9347 5.31571l-7.2505-3.38095c.9337-2.00216 3.3136-2.86838 5.3158-1.93476z" fill-rule="evenodd"/></g></svg>