<svg fill="none" height="24" width="24" xmlns="http://www.w3.org/2000/svg">
    <g fill="#f4f4f7">
        <path d="M11.939 9.765a1 1 0 1 1-1.813-.845 1 1 0 0 1 1.813.845zM8.92 13.874a1 1 0 1 0 .845-1.813 1 1 0 0 0-.846 1.813zm4.954 1.206a1 1 0 1 1-1.813-.845 1 1 0 0 1 1.813.846zm.361-3.141a1 1 0 1 0 .845-1.813 1 1 0 0 0-.845 1.813z"/>
        <path clip-rule="evenodd" d="M17.071 1.124a6 6 0 0 0-7.973 2.902L4.026 14.902a6 6 0 0 0 10.876 5.072l5.072-10.876a6 6 0 0 0-2.903-7.974zm-3.136 16.192 3.38-7.25-7.25-3.382-3.38 7.25zm-.845 1.812-7.251-3.38a4 4 0 1 0 7.25 3.38zm3.136-16.191a4 4 0 0 1 1.935 5.316l-7.25-3.381a4 4 0 0 1 5.315-1.935z" fill-rule="evenodd"/>
    </g>
</svg>
