<svg fill="none" height="24" viewBox="0 0 24 24" width="24" xmlns="http://www.w3.org/2000/svg"><path clip-rule="evenodd" d="m17.9513 15.571c-.1818 1.6477-1.0308 3.0944-2.2708 4.064-.3485.8342-.9713 1.5251-1.7558 1.9601-.2222.8623-1.0051 1.4993-1.9368 1.4993s-1.7146-.637-1.9368-1.4993c-.78438-.4349-1.40718-1.1258-1.75563-1.9598-1.23592-.9662-2.08344-2.4063-2.26926-4.047-1.09094.8278-2.64666.8235-3.74003-.0939-1.26922-1.065-1.434771-2.9573-.36977-4.2265l4.09325-4.87815c.26159-3.07222 2.83819-5.484171 5.97814-5.484171 3.1288 0 5.6983 2.394881 5.9753 5.451531l4.1206 4.91079c1.065 1.2692.8994 3.1615-.3698 4.2265-1.1009.9238-2.6706.9217-3.7626.0766zm-2.3259-2.6654-1.6782-2h-3.8943l-1.67823 2zm2.3624-.2961 1.0317 1.2295c.355.4231.9858.4783 1.4088.1233.4231-.355.4783-.9858.1233-1.4088l-2.5638-3.05547zm-2-3.70392v-2c0-2.20914-1.7909-4-4-4-2.20915 0-4.00001 1.79086-4.00001 4v2zm-11.00721 4.93342 1.0072-1.2003v-3.11144l-2.53929 3.02624c-.355.423-.29981 1.0538.12326 1.4088s1.05383.2998 1.40883-.1233zm7.00721 5.0666c-2.20915 0-4.00001-1.7909-4.00001-4h8.00001c0 2.2091-1.7909 4-4 4z" fill="#f4f4f7" fill-rule="evenodd"/></svg>