<svg fill="none" height="24" viewBox="0 0 24 24" width="24" xmlns="http://www.w3.org/2000/svg"><g fill="#f4f4f7"><path d="m8.46457 14.1213c-.39053.3905-.39053 1.0237 0 1.4142.39052.3905 1.02368.3905 1.41421 0l5.65682-5.65688c.3906-.39052.3906-1.02369 0-1.41421-.3905-.39053-1.0237-.39053-1.4142 0z"/><path clip-rule="evenodd" d="m6.34315 17.6569c3.12419 3.1241 8.18955 3.1241 11.31375 0 3.1241-3.1242 3.1241-8.18956 0-11.31375-3.1242-3.1242-8.18956-3.1242-11.31375 0-3.1242 3.12419-3.1242 8.18955 0 11.31375zm9.89945-1.4143c-2.3431 2.3432-6.1421 2.3432-8.48524 0-2.34315-2.3431-2.34315-6.1421 0-8.48524 2.34314-2.34315 6.14214-2.34315 8.48524 0 2.3432 2.34314 2.3432 6.14214 0 8.48524z" fill-rule="evenodd"/></g></svg>