<svg fill="none" height="24" viewBox="0 0 24 24" width="24" xmlns="http://www.w3.org/2000/svg"><g fill="#f4f4f7"><path d="m14.1254 13h-4v2h4z"/><g clip-rule="evenodd" fill-rule="evenodd"><path d="m8.12537 13c1.10457 0 2.00003-.8954 2.00003-2 0-1.10457-.89546-2-2.00003-2s-2 .89543-2 2c0 1.1046.89543 2 2 2zm0-1.5c.27614 0 .5-.2239.5-.5s-.22386-.5-.5-.5c-.27615 0-.5.2239-.5.5s.22385.5.5.5z"/><path d="m18.1254 11c0 1.1046-.8955 2-2 2-1.1046 0-2-.8954-2-2 0-1.10457.8954-2 2-2 1.1045 0 2 .89543 2 2zm-1.5 0c0 .2761-.2239.5-.5.5-.2762 0-.5-.2239-.5-.5s.2238-.5.5-.5c.2761 0 .5.2239.5.5z"/><path d="m2.74884 14.6663c.98172 1.9758 3.02055 3.3337 5.37653 3.3337h8.00003c2.44 0 4.5398-1.4565 5.4775-3.5475.7693-.5432 1.2717-1.4392 1.2717-2.4525s-.5024-1.9093-1.2717-2.45247c-.9377-2.09102-3.0375-3.54753-5.4775-3.54753h-8.00003c-2.35598 0-4.39481 1.3579-5.37653 3.33375-.96436.49888-1.62347 1.50555-1.62347 2.66625s.65911 2.1674 1.62347 2.6663zm5.37653-6.6663h8.00003c1.3834 0 2.6028.70234 3.3211 1.76991.2762.68939.4281 1.44199.4281 2.23009s-.1519 1.5407-.4281 2.2301c-.7183 1.0676-1.9377 1.7699-3.3211 1.7699h-8.00003c-2.20914 0-4-1.7909-4-4 0-2.20914 1.79086-4 4-4z"/></g></g></svg>