<svg fill="none" height="24" width="24" xmlns="http://www.w3.org/2000/svg"><g fill="#f4f4f7"><path d="m14.125 13h-4v2h4z"/><g clip-rule="evenodd" fill-rule="evenodd"><path d="m8.125 13a2 2 0 1 0 0-4 2 2 0 0 0 0 4zm0-1.5a.5.5 0 1 0 0-1 .5.5 0 0 0 0 1zm10-.5a2 2 0 1 1 -4 0 2 2 0 0 1 4 0zm-1.5 0a.5.5 0 1 1 -1 0 .5.5 0 0 1 1 0z"/><path d="m2.749 14.666a6 6 0 0 0 5.376 3.334h8c2.44 0 4.54-1.456 5.478-3.547a2.997 2.997 0 0 0 0-4.905 6.001 6.001 0 0 0 -5.478-3.548h-8a6 6 0 0 0 -5.375 3.334 3 3 0 0 0 0 5.332zm5.376-6.666h8c1.384 0 2.603.702 3.321 1.77.277.69.429 1.442.429 2.23s-.152 1.54-.428 2.23a3.996 3.996 0 0 1 -3.322 1.77h-8a4 4 0 0 1 0-8z"/></g></g></svg>