<svg fill="none" height="24" stroke="#f4f4f7" stroke-linecap="round" stroke-linejoin="round" stroke-width="2" width="24" xmlns="http://www.w3.org/2000/svg"><path d="m0 0h24v24h-24z" stroke="none"/><path d="m10 5h4v-2a1 1 0 0 0 -1-1h-2a1 1 0 0 0 -1 1z"/><path d="m14 3.5c0 1.626.507 3.212 1.45 4.537l.05.07a8.093 8.093 0 0 1 1.5 4.694v6.199a2 2 0 0 1 -2 2h-6a2 2 0 0 1 -2-2v-6.2c0-1.682.524-3.322 1.5-4.693l.05-.07a7.823 7.823 0 0 0 1.45-4.537"/><path d="m7.003 14.803a2.4 2.4 0 0 0 .997-.803 2.4 2.4 0 0 1 2-1 2.4 2.4 0 0 1 2 1 2.4 2.4 0 0 0 2 1 2.4 2.4 0 0 0 2-1 2.4 2.4 0 0 1 1-.805"/></svg>