<svg fill="none" height="24" stroke="#f4f4f7" stroke-linecap="round" stroke-linejoin="round" stroke-width="2" width="24" xmlns="http://www.w3.org/2000/svg"><path d="m0 0h24v24h-24z" stroke="none"/><path d="m4.028 7.82a9 9 0 1 0 12.823-3.4c-1.636-1.02-3.064-1.02-4.851-1.02h-1.647"/><path d="m4.914 9.485c-1.756-1.569-.805-5.38.109-6.17.086.896.585 1.208 1.111 1.685.88-.275 1.313-.282 1.867 0 .82-.91 1.694-2.354 2.628-2.093-1.082 1.741-.07 3.733 1.371 4.173-.17.975-1.484 1.913-2.76 2.686-1.296.938-.722 1.85 0 2.234.949.506 3.611-.995 4.545.354-1.698.102-1.536 3.107-3.983 2.727 2.523.957 4.345.462 5.458-.34 1.965-1.52 2.879-3.542 2.879-5.557-.014-1.398.194-2.695-1.26-4.75"/></svg>