<svg fill="none" height="24" stroke="#f4f4f7" stroke-linecap="round" stroke-linejoin="round" stroke-width="2" width="24" xmlns="http://www.w3.org/2000/svg"><path d="m0 0h24v24h-24z" stroke="none"/><circle cx="9" cy="12" r="1"/><circle cx="15" cy="12" r="1"/><path d="m7.5 7.5c3.5-1 5.5-1 9 0m-9.5 9c3.5 1 6.5 1 10 0"/><path d="m15.5 17c0 1 1.5 3 2 3 1.5 0 2.833-1.667 3.5-3 .667-1.667.5-5.833-1.5-11.5-1.457-1.015-3-1.34-4.5-1.5l-1 2.5m-5.5 10.5c0 1-1.356 3-1.832 3-1.429 0-2.698-1.667-3.333-3-.635-1.667-.476-5.833 1.428-11.5 1.388-1.015 2.782-1.34 4.237-1.5l1 2.5"/></svg>