<svg fill="none" height="24" stroke="#f4f4f7" stroke-linecap="round" stroke-linejoin="round" stroke-width="2" width="24" xmlns="http://www.w3.org/2000/svg"><path d="m0 0h24v24h-24z" stroke="none"/><path d="m11.667 6c-2.49 0-4.044 1.222-4.667 3.667.933-1.223 2.023-1.68 3.267-1.375.71.174 1.217.68 1.778 1.24.916.912 2 1.968 4.288 1.968 2.49 0 4.044-1.222 4.667-3.667-.933 1.223-2.023 1.68-3.267 1.375-.71-.174-1.217-.68-1.778-1.24-.916-.912-1.975-1.968-4.288-1.968zm-4 6.5c-2.49 0-4.044 1.222-4.667 3.667.933-1.223 2.023-1.68 3.267-1.375.71.174 1.217.68 1.778 1.24.916.912 1.975 1.968 4.288 1.968 2.49 0 4.044-1.222 4.667-3.667-.933 1.223-2.023 1.68-3.267 1.375-.71-.174-1.217-.68-1.778-1.24-.916-.912-1.975-1.968-4.288-1.968z"/></svg>