<svg fill="none" height="24" stroke="#f4f4f7" stroke-linecap="round" stroke-linejoin="round" stroke-width="2" width="24" xmlns="http://www.w3.org/2000/svg"><path d="m0 0h24v24h-24z" stroke="none"/><path d="m22 12.54c-1.804-.345-2.701-1.08-3.523-2.94-.487.696-1.102 1.568-.92 2.4.028.238-.32 1.002-.557 1h-14c0 5.208 3.164 7 6.196 7 4.124.022 7.828-1.376 9.854-5 1.146-.101 2.296-1.505 2.95-2.46z"/><path d="m5 10h3v3h-3zm3 0h3v3h-3zm3 0h3v3h-3zm-3-3h3v3h-3zm3 0h3v3h-3zm0-3h3v3h-3zm-6.429 14c1.5 0 2.047-.074 2.958-.78m2.471-1.22v.01"/></svg>