<svg fill="none" height="24" viewBox="0 0 24 24" width="24" xmlns="http://www.w3.org/2000/svg"><g fill="#f4f4f7"><path clip-rule="evenodd" d="m14.364 13.1214c.9236.9236 1.1191 2.2997.5864 3.4148l1.5349 1.5349c.3905.3905.3905 1.0237 0 1.4142s-1.0237.3905-1.4142 0l-1.535-1.5349c-1.1151.5327-2.4911.3372-3.4148-.5864-1.17155-1.1716-1.17155-3.0711 0-4.2426 1.1716-1.1716 3.0711-1.1716 4.2427 0zm-1.4143 2.8284c.3906-.3905.3906-1.0237 0-1.4142-.3905-.3906-1.0236-.3906-1.4142 0-.3905.3905-.3905 1.0237 0 1.4142.3906.3905 1.0237.3905 1.4142 0z" fill-rule="evenodd"/><path d="m8 5h8v2h-8z"/><path d="m16 9h-8v2h8z"/><path clip-rule="evenodd" d="m4 4c0-1.65685 1.34315-3 3-3h10c1.6569 0 3 1.34315 3 3v16c0 1.6569-1.3431 3-3 3h-10c-1.65685 0-3-1.3431-3-3zm3-1h10c.5523 0 1 .44772 1 1v16c0 .5523-.4477 1-1 1h-10c-.55228 0-1-.4477-1-1v-16c0-.55228.44771-1 1-1z" fill-rule="evenodd"/></g></svg>