<svg fill="none" height="24" viewBox="0 0 24 24" width="24" xmlns="http://www.w3.org/2000/svg"><g fill="#f4f4f7"><path d="m4 8c.55228 0 1-.44772 1-1s-.44772-1-1-1-1 .44772-1 1 .44772 1 1 1z"/><path d="m8 7c0 .55228-.44772 1-1 1s-1-.44772-1-1 .44772-1 1-1 1 .44772 1 1z"/><path d="m10 8c.5523 0 1-.44772 1-1s-.4477-1-1-1c-.55229 0-1 .44772-1 1s.44771 1 1 1z"/><path clip-rule="evenodd" d="m3 3c-1.65685 0-3 1.34315-3 3v12c0 1.6569 1.34315 3 3 3h18c1.6569 0 3-1.3431 3-3v-12c0-1.65685-1.3431-3-3-3zm18 2h-18c-.55228 0-1 .44772-1 1v3h20v-3c0-.55228-.4477-1-1-1zm-19 13v-7h20v7c0 .5523-.4477 1-1 1h-18c-.55228 0-1-.4477-1-1z" fill-rule="evenodd"/></g></svg>