<svg fill="none" height="24" width="24" xmlns="http://www.w3.org/2000/svg"><g fill="#f4f4f7"><path clip-rule="evenodd" d="m14.364 13.121c.924.924 1.12 2.3.586 3.415l1.535 1.535a1 1 0 0 1 -1.414 1.414l-1.535-1.535a3.001 3.001 0 0 1 -3.415-4.829 3 3 0 0 1 4.243 0zm-1.414 2.829a1 1 0 1 0 -1.414-1.414 1 1 0 0 0 1.414 1.414z" fill-rule="evenodd"/><path d="m8 5h8v2h-8zm8 4h-8v2h8z"/><path clip-rule="evenodd" d="m4 4a3 3 0 0 1 3-3h10a3 3 0 0 1 3 3v16a3 3 0 0 1 -3 3h-10a3 3 0 0 1 -3-3zm3-1h10a1 1 0 0 1 1 1v16a1 1 0 0 1 -1 1h-10a1 1 0 0 1 -1-1v-16a1 1 0 0 1 1-1z" fill-rule="evenodd"/></g></svg>