<svg fill="none" height="24" viewBox="0 0 24 24" width="24" xmlns="http://www.w3.org/2000/svg"><g fill="#f4f4f7"><path d="m12.207 16.278c-1.0829 1.065-2.56821 1.722-4.207 1.722-3.31371 0-6-2.6863-6-6 0-3.31371 2.68629-6 6-6 1.67492 0 3.1896.6863 4.278 1.79303l1.4143-1.41425c-1.4505-1.46864-3.4651-2.37878-5.6923-2.37878-4.41828 0-8 3.58172-8 8 0 4.4183 3.58172 8 8 8 2.1911 0 4.1764-.8808 5.6212-2.3077z"/><path d="m15 9h-2v2h-2v2h2v2h2v-2h2v-2h-2z"/><path d="m20 9h2v2h2v2h-2v2h-2v-2h-2v-2h2z"/></g></svg>