<svg fill="none" height="24" viewBox="0 0 24 24" width="24" xmlns="http://www.w3.org/2000/svg"><g fill="#f4f4f7"><path d="m17 5h-10v2h10z"/><path d="m7 9h2v2h-2z"/><path d="m9 13h-2v2h2z"/><path d="m7 17h2v2h-2z"/><path d="m13 9h-2v2h2z"/><path d="m11 13h2v2h-2z"/><path d="m13 17h-2v2h2z"/><path d="m15 9h2v2h-2z"/><path d="m17 13h-2v6h2z"/><path clip-rule="evenodd" d="m3 3c0-1.10457.89543-2 2-2h14c1.1046 0 2 .89543 2 2v18c0 1.1046-.8954 2-2 2h-14c-1.10457 0-2-.8954-2-2zm2 0h14v18h-14z" fill-rule="evenodd"/></g></svg>