<svg fill="none" height="24" width="24" xmlns="http://www.w3.org/2000/svg">
    <g fill="#f4f4f7">
        <path d="M8 13a1 1 0 1 1 0-2 1 1 0 0 1 0 2zm0 4a1 1 0 1 1 0-2 1 1 0 0 1 0 2zm3-1a1 1 0 1 0 2 0 1 1 0 0 0-2 0zm5 1a1 1 0 1 1 0-2 1 1 0 0 1 0 2zm-5-5a1 1 0 1 0 2 0 1 1 0 0 0-2 0zm5 1a1 1 0 1 1 0-2 1 1 0 0 1 0 2zM8 7a1 1 0 0 0 0 2h8a1 1 0 1 0 0-2z"/>
        <path clip-rule="evenodd" d="M6 3a3 3 0 0 0-3 3v12a3 3 0 0 0 3 3h12a3 3 0 0 0 3-3V6a3 3 0 0 0-3-3zm12 2H6a1 1 0 0 0-1 1v12a1 1 0 0 0 1 1h12a1 1 0 0 0 1-1V6a1 1 0 0 0-1-1z" fill-rule="evenodd"/>
    </g>
</svg>
