<svg fill="none" height="24" viewBox="0 0 24 24" width="24" xmlns="http://www.w3.org/2000/svg"><g fill="#f4f4f7"><path d="m11.7249 16.5461 4.5-2.598-4.5-2.5981v1.5981h-3.95v2h3.95z"/><path d="m8 7c-.55228 0-1 .44772-1 1s.44772 1 1 1h8c.5523 0 1-.44772 1-1s-.4477-1-1-1z"/><path clip-rule="evenodd" d="m6 3c-1.65685 0-3 1.34315-3 3v12c0 1.6569 1.34315 3 3 3h12c1.6569 0 3-1.3431 3-3v-12c0-1.65685-1.3431-3-3-3zm12 2h-12c-.55228 0-1 .44772-1 1v12c0 .5523.44772 1 1 1h12c.5523 0 1-.4477 1-1v-12c0-.55228-.4477-1-1-1z" fill-rule="evenodd"/></g></svg>