<svg fill="none" height="24" stroke="#f4f4f7" stroke-linecap="round" stroke-linejoin="round" stroke-width="2" width="24" xmlns="http://www.w3.org/2000/svg"><path d="m0 0h24v24h-24z" stroke="none"/><path d="m7.05 11.293 4.243-4.243a2 2 0 0 1 2.828 0l2.829 2.83a2 2 0 0 1 0 2.828l-4.243 4.243a2 2 0 0 1 -2.828 0l-2.829-2.831a2 2 0 0 1 0-2.828zm9.193-2.121 3.086-.772a1.5 1.5 0 0 0 .697-2.516l-2.216-2.217a1.5 1.5 0 0 0 -2.44.47l-1.248 2.913"/><path d="m9.172 16.243-.772 3.086a1.5 1.5 0 0 1 -2.516.697l-2.217-2.216a1.5 1.5 0 0 1 .47-2.44l2.913-1.248"/></svg>