<svg fill="none" height="24" viewBox="0 0 24 24" width="24" xmlns="http://www.w3.org/2000/svg"><g fill="#f4f4f7"><path d="m8 18v2h8v-2z"/><path clip-rule="evenodd" d="m13.988 3.2203c.0079-.07234.012-.14584.012-.2203 0-1.10457-.8954-2-2-2s-2 .89543-2 2c0 .07446.0041.14796.012.2203-4.01401.90503-7.012 4.49225-7.012 8.7797 0 .3883.02459.7709.0723 1.1462-1.20281.3907-2.0723 1.5207-2.0723 2.8538v4c0 1.6569 1.34315 3 3 3h16c1.6569 0 3-1.3431 3-3v-4c0-1.3331-.8695-2.4631-2.0723-2.8538.0477-.3753.0723-.7579.0723-1.1462 0-4.28745-2.998-7.87467-7.012-8.7797zm-1.988 1.7797c-3.86599 0-7 3.13401-7 7 0 .3402.02412.674.07063 1h13.85877c.0465-.326.0706-.6598.0706-1 0-3.86599-3.134-7-7-7zm-9 11c0-.5523.44772-1 1-1h16c.5523 0 1 .4477 1 1v4c0 .5523-.4477 1-1 1h-16c-.55228 0-1-.4477-1-1z" fill-rule="evenodd"/></g></svg>