<svg fill="none" height="24" viewBox="0 0 24 24" width="24" xmlns="http://www.w3.org/2000/svg"><g fill="#f4f4f7"><path d="m12 11c1.1046 0 2-.8954 2-2 0-1.10457-.8954-2-2-2s-2 .89543-2 2c0 1.1046.8954 2 2 2z"/><path d="m11 13c0 1.1046-.8954 2-2 2-1.10457 0-2-.8954-2-2s.89543-2 2-2c1.1046 0 2 .8954 2 2z"/><path d="m15 15c1.1046 0 2-.8954 2-2s-.8954-2-2-2-2 .8954-2 2 .8954 2 2 2z"/><path clip-rule="evenodd" d="m3 4c0-1.65685 1.34315-3 3-3h12c1.6569 0 3 1.34315 3 3v16c0 1.6569-1.3431 3-3 3h-12c-1.65685 0-3-1.3431-3-3zm3-1h12c.5523 0 1 .44772 1 1v16c0 .5523-.4477 1-1 1h-12c-.55228 0-1-.4477-1-1v-16c0-.55228.44772-1 1-1z" fill-rule="evenodd"/></g></svg>