<svg fill="none" height="24" viewBox="0 0 24 24" width="24" xmlns="http://www.w3.org/2000/svg"><g fill="#f4f4f7"><path d="m9.14648 12.2929c-.78104-.7811-.78104-2.0474 0-2.82846.78105-.78105 2.04742-.78105 2.82842 0l.0251.02511.0251-.02506c.781-.78104 2.0474-.78104 2.8284 0 .7811.78101.7811 2.04741 0 2.82841l-2.8284 2.8284-.0251-.0251-.0251.0251z"/><path clip-rule="evenodd" d="m3 4c0-1.65685 1.34315-3 3-3h12c1.6569 0 3 1.34315 3 3v16c0 1.6569-1.3431 3-3 3h-12c-1.65685 0-3-1.3431-3-3zm3-1h12c.5523 0 1 .44772 1 1v16c0 .5523-.4477 1-1 1h-12c-.55228 0-1-.4477-1-1v-16c0-.55228.44772-1 1-1z" fill-rule="evenodd"/></g></svg>