<svg fill="none" height="24" viewBox="0 0 24 24" width="24" xmlns="http://www.w3.org/2000/svg"><g fill="#f4f4f7"><path clip-rule="evenodd" d="m4 3c-1.65685 0-3 1.34315-3 3v4c0 1.6569 1.34315 3 3 3h16c1.6569 0 3-1.3431 3-3v-4c0-1.65685-1.3431-3-3-3zm16 2h-16c-.55228 0-1 .44772-1 1v4c0 .5523.44772 1 1 1h16c.5523 0 1-.4477 1-1v-4c0-.55229-.4477-1-1-1z" fill-rule="evenodd"/><path d="m7 20c0-.5523.44772-1 1-1h8c.5523 0 1 .4477 1 1s-.4477 1-1 1h-8c-.55228 0-1-.4477-1-1z"/><path d="m5 15c-.55228 0-1 .4477-1 1s.44772 1 1 1h14c.5523 0 1-.4477 1-1s-.4477-1-1-1z"/></g></svg>