<svg fill="none" height="24" viewBox="0 0 24 24" width="24" xmlns="http://www.w3.org/2000/svg"><path clip-rule="evenodd" d="m6.07178 3.17291c-1.74585.34729-3.34949 1.20447-4.60816 2.46314l2.1297 2.1297c.83747-.8374 1.90448-1.40772 3.06604-1.6388.87628-.17431 1.77668-.14965 2.63587.06757-.21613.25604-.41852.52484-.60596.80536-.98895 1.48004-1.51678 3.22012-1.51678 5.00012s.52783 3.5201 1.51678 5.0001c.18744.2805.38989.5493.60602.8054-.85919.2172-1.75965.2419-2.63593.0675-1.16156-.231-2.22857-.8013-3.06604-1.6387l-2.1297 2.1297c1.25867 1.2586 2.86231 2.1158 4.60816 2.4631 1.74579.3472 3.55542.169 5.19992-.5122.2484-.1029.4915-.2166.7284-.3405.2368.1239.4798.2376.7282.3405 1.6446.6812 3.4542.8594 5.2.5122 1.7458-.3473 3.3495-1.2045 4.6081-2.4631l-2.1297-2.1297c-.8374.8374-1.9044 1.4077-3.066 1.6387-.8763.1744-1.7767.1497-2.6359-.0675.2161-.2561.4186-.5249.606-.8054.9889-1.48 1.5168-3.2201 1.5168-5.0001s-.5279-3.52008-1.5168-5.00012c-.1874-.28052-.3898-.54932-.606-.80536.8592-.21722 1.7596-.24188 2.6359-.06757 1.1616.23108 2.2286.8014 3.066 1.6388l2.1297-2.1297c-1.2586-1.25867-2.8623-2.11585-4.6081-2.46314-1.7458-.34723-3.5554-.169-5.2.51215-.2484.1029-.4914.21661-.7282.34058-.2369-.12397-.48-.23768-.7284-.34058-1.6445-.68115-3.45413-.85938-5.19992-.51215zm5.92832 4.53199c-.3007.29205-.5713.61627-.8066.96826-.6579.98474-1.0091 2.14254-1.0091 3.32684s.3512 2.3421 1.0091 3.3268c.2353.352.5059.6763.8066.9683.3006-.292.5712-.6163.8064-.9683.658-.9847 1.0092-2.1425 1.0092-3.3268s-.3512-2.3421-1.0092-3.32684c-.2352-.35199-.5058-.67621-.8064-.96826z" fill="#f4f4f7" fill-rule="evenodd"/></svg>