<svg fill="none" height="24" viewBox="0 0 24 24" width="24" xmlns="http://www.w3.org/2000/svg"><g clip-rule="evenodd" fill="#f4f4f7" fill-rule="evenodd"><path d="m22.775 8c.1492.65461.225 1.32542.225 2h-9v-9c.6746 0 1.3454.07584 2 .22504.4923.1122.9754.2659 1.4442.46004 1.0919.4523 2.084 1.11523 2.9198 1.95096.8357.83573 1.4986 1.82788 1.9509 2.91981.1942.4687.3479.95185.4601 1.44415zm-2.0668 0c-.0685-.22982-.1489-.45639-.241-.67878-.3518-.84928-.8674-1.62096-1.5175-2.27097-.65-.65001-1.4216-1.16562-2.2709-1.51741-.2224-.09211-.449-.17253-.6788-.24104v4.7082z"/><path d="m1 14c0-4.97056 4.02944-9 9-9 .6746 0 1.3454.07584 2 .22504v6.77496h6.775c.1492.6546.225 1.3254.225 2 0 4.9706-4.0294 9-9 9-4.97056 0-9-4.0294-9-9zm15.8035 0h-6.8035v-6.80352c-3.75748 0-6.80352 3.04602-6.80352 6.80352s3.04604 6.8035 6.80352 6.8035c3.7575 0 6.8035-3.046 6.8035-6.8035z"/></g></svg>