<svg fill="none" height="24" viewBox="0 0 24 24" width="24" xmlns="http://www.w3.org/2000/svg"><g fill="#f4f4f7"><path d="m14.8284 12.4813 1.4142-1.4143-4.2426-4.24256-4.24268 4.24266 1.41422 1.4142 2.82846-2.82844z"/><path d="m14.8284 16.7239 1.4142-1.4142-4.2426-4.2426-4.24268 4.2426 1.41422 1.4142 2.82846-2.8284z"/><path clip-rule="evenodd" d="m23 4.77411c0-2.20914-1.7909-4.000001-4-4.000001h-14c-2.20914 0-4 1.790861-4 4.000001v13.99999c0 2.2091 1.79086 4 4 4h14c2.2091 0 4-1.7909 4-4zm-4-2h-14c-1.10457 0-2 .89543-2 2v13.99999c0 1.1046.89543 2 2 2h14c1.1046 0 2-.8954 2-2v-13.99999c0-1.10457-.8954-2-2-2z" fill-rule="evenodd"/></g></svg>