<svg fill="none" height="24" viewBox="0 0 24 24" width="24" xmlns="http://www.w3.org/2000/svg"><g fill="#f4f4f7"><path d="m12.7071 9.1716-1.4142-1.41421-4.24266 4.24261 4.24266 4.2426 1.4142-1.4142-2.82841-2.8284z"/><path d="m15.5355 7.75739 1.4142 1.41421-2.8284 2.8284 2.8284 2.8284-1.4142 1.4142-4.2426-4.2426z"/><path clip-rule="evenodd" d="m1 5c0-2.20914 1.79086-4 4-4h14c2.2091 0 4 1.79086 4 4v14c0 2.2091-1.7909 4-4 4h-14c-2.20914 0-4-1.7909-4-4zm4-2h14c1.1046 0 2 .89543 2 2v14c0 1.1046-.8954 2-2 2h-14c-1.10457 0-2-.8954-2-2v-14c0-1.10457.89543-2 2-2z" fill-rule="evenodd"/></g></svg>