<svg fill="none" height="24" viewBox="0 0 24 24" width="24" xmlns="http://www.w3.org/2000/svg"><g fill="#f4f4f7"><path d="m8.46448 7.75739-1.41422 1.41421 2.82843 2.8284-2.8284 2.8284 1.41422 1.4142 4.24259-4.2426z"/><path d="m11.2929 9.1716 1.4142-1.41421 4.2427 4.24261-4.2427 4.2426-1.4142-1.4142 2.8284-2.8284z"/><path clip-rule="evenodd" d="m1 12c0 6.0751 4.92487 11 11 11 6.0751 0 11-4.9249 11-11 0-6.07513-4.9249-11-11-11-6.07513 0-11 4.92487-11 11zm2 0c0 4.9706 4.02944 9 9 9 4.9706 0 9-4.0294 9-9 0-4.97056-4.0294-9-9-9-4.97056 0-9 4.02944-9 9z" fill-rule="evenodd"/></g></svg>