<svg fill="none" height="24" viewBox="0 0 24 24" width="24" xmlns="http://www.w3.org/2000/svg"><path clip-rule="evenodd" d="m12 0c-6.62742 0-12 5.37258-12 12 0 6.6274 5.37258 12 12 12 6.6274 0 12-5.3726 12-12 0-6.62742-5.3726-12-12-12zm-7.85645 13.5165c.70864 3.6931 3.95668 6.4835 7.85645 6.4835 4.4183 0 8-3.5817 8-8 0-4.41828-3.5817-8-8-8-3.9114 0-7.16717 2.80704-7.86272 6.5165l2.59096-.0094c.64995-2.29972 2.76412-3.98488 5.27186-3.98488 3.0253 0 5.4778 2.45248 5.4778 5.47778s-2.4525 5.4778-5.4778 5.4778c-2.50258 0-4.6132-1.6783-5.26782-3.9707zm5.37879-1.5165c0 1.3684 1.10936 2.4778 2.47776 2.4778s2.4778-1.1094 2.4778-2.4778-1.1094-2.47778-2.4778-2.47778-2.47776 1.10938-2.47776 2.47778z" fill="#f4f4f7" fill-rule="evenodd"/></svg>