<svg fill="none" height="24" viewBox="0 0 24 24" width="24" xmlns="http://www.w3.org/2000/svg"><path clip-rule="evenodd" d="m20.1702 3-.0039.00453c1.5795.08631 2.8337 1.39443 2.8337 2.99547v12c0 1.6569-1.3431 3-3 3h-16c-1.65685 0-3-1.3431-3-3v-12c0-1.65685 1.34315-3 3-3zm-9.6938 2h6l-3.3874 4h-6.00001zm-5.38741 4 3.38745-4h-4.47644c-.55228 0-1 .44772-1 1v3zm-2.08899 2v7c0 .5523.44772 1 1 1h16c.5523 0 1-.4477 1-1v-7zm18-2v-3c0-.55229-.4477-1-1-1h-1.5236l-3.3874 4z" fill="#f4f4f7" fill-rule="evenodd"/></svg>