<svg fill="none" height="24" viewBox="0 0 24 24" width="24" xmlns="http://www.w3.org/2000/svg"><g fill="#f4f4f7"><path d="m8 11c-.55228 0-1 .4477-1 1s.44772 1 1 1h7.9595c.5523 0 1-.4477 1-1s-.4477-1-1-1z"/><path d="m8.04053 15.0665c-.55229 0-1 .4477-1 1s.44771 1 1 1h7.95947c.5523 0 1-.4477 1-1s-.4477-1-1-1z"/><path clip-rule="evenodd" d="m5 3c-1.10457 0-2 .89543-2 2v14c0 1.1046.89543 2 2 2h14c1.1046 0 2-.8954 2-2v-14c0-1.10457-.8954-2-2-2zm2 2h-2v14h14v-14h-2v1c0 1.65685-1.3431 3-3 3h-4c-1.65685 0-3-1.34315-3-3zm2 0v1c0 .55228.44772 1 1 1h4c.5523 0 1-.44772 1-1v-1z" fill-rule="evenodd"/></g></svg>