<svg fill="none" height="24" viewBox="0 0 24 24" width="24" xmlns="http://www.w3.org/2000/svg"><g fill="#f4f4f7"><path d="m16.3394 9.32245c.404-.37656.4263-1.00933.0497-1.41334-.3765-.40402-1.0093-.42628-1.4133-.04973l-2.9261 2.72722-2.72725-2.92612c-.37656-.40401-1.00933-.42627-1.41334-.04972-.40402.37655-.42628 1.00932-.04973 1.41334l2.72722 2.9261-2.92612 2.7273c-.40401.3765-.42627 1.0093-.04972 1.4133s1.00932.4263 1.41334.0497l2.9261-2.7272 2.7273 2.9261c.3765.404 1.0093.4263 1.4133.0497.404-.3765.4263-1.0093.0497-1.4133l-2.7272-2.9261z"/><path clip-rule="evenodd" d="m1 12c0-6.07513 4.92487-11 11-11 6.0751 0 11 4.92487 11 11 0 6.0751-4.9249 11-11 11-6.07513 0-11-4.9249-11-11zm11 9c-4.97056 0-9-4.0294-9-9 0-4.97056 4.02944-9 9-9 4.9706 0 9 4.02944 9 9 0 4.9706-4.0294 9-9 9z" fill-rule="evenodd"/></g></svg>