<svg fill="none" height="24" width="24" xmlns="http://www.w3.org/2000/svg"><g fill="#f4f4f7"><path d="m16.396 7.757a1 1 0 0 1 0 1.415l-2.982 2.981 2.676 2.675a1 1 0 1 1 -1.415 1.415l-2.675-2.676-2.675 2.676a1 1 0 0 1 -1.415-1.415l2.676-2.675-2.982-2.981a1 1 0 1 1 1.416-1.415l2.98 2.983 2.981-2.982a1 1 0 0 1 1.415 0z"/><path clip-rule="evenodd" d="m4 1a3 3 0 0 0 -3 3v16a3 3 0 0 0 3 3h16a3 3 0 0 0 3-3v-16a3 3 0 0 0 -3-3zm16 2h-16a1 1 0 0 0 -1 1v16a1 1 0 0 0 1 1h16a1 1 0 0 0 1-1v-16a1 1 0 0 0 -1-1z" fill-rule="evenodd"/></g></svg>