<svg height="32" viewBox="0 0 32 32" width="32" xmlns="http://www.w3.org/2000/svg"><path d="m23.895 10.232-.419-.362-16.81 15.685 15.699-16.646-.42-.364c-2.026-1.087-4.61-.843-6.72-.149-.609.201-1.217.442-1.796.718-1.249.595-2.406 1.363-3.416 2.312-2.303 2.165-3.767 5.051-4.484 8.11-.201.859-.367 1.737-.488 2.611-.152 1.099-.242 2.205-.319 3.311-.065.93-.204 2.187 1.094 2.109.231-.014.462-.011.693-.016 3.249-.069 6.516-.033 9.64-1.078 2.032-.68 3.98-1.779 5.503-3.292 2.282-2.265 3.934-5.567 3.675-8.845-.114-1.453-.434-2.987-1.433-4.105zm2.479-5.231.942.942-17.609 16.589z" fill="#f4f4f7"/></svg>