<svg fill="none" height="24" viewBox="0 0 24 24" width="24" xmlns="http://www.w3.org/2000/svg"><g fill="#f4f4f7"><path d="m6 2.5c-.55228 0-1 .44772-1 1v2c0 .55228.44772 1 1 1s1-.44772 1-1v-2c0-.55228-.44772-1-1-1z"/><path clip-rule="evenodd" d="m13 21.5c2.973 0 5.441-2.1623 5.917-5h.083c2.2091 0 4-1.7909 4-4s-1.7909-4-4-4v-1h-18v8c0 3.3137 2.68629 6 6 6zm-10-12v6c0 2.2091 1.79086 4 4 4h6c2.2091 0 4-1.7909 4-4v-6zm18 3c0 1.1046-.8954 2-2 2v-4c1.1046 0 2 .8954 2 2z" fill-rule="evenodd"/><path d="m9 3.5c0-.55228.44771-1 1-1 .5523 0 1 .44772 1 1v2c0 .55228-.4477 1-1 1-.55229 0-1-.44772-1-1z"/><path d="m14 2.5c-.5523 0-1 .44772-1 1v2c0 .55228.4477 1 1 1s1-.44772 1-1v-2c0-.55228-.4477-1-1-1z"/></g></svg>