<svg fill="none" height="24" viewBox="0 0 24 24" width="24" xmlns="http://www.w3.org/2000/svg"><g fill="#f4f4f7"><path d="m20.3847 2.87868c-1.1715-1.17157-3.071-1.17157-4.2426 0l-2.1219 2.12184-.7072-.7072c-.3905-.39052-1.0236-.39052-1.4142 0-.3905.39053-.3905 1.02369 0 1.41422l5.6569 5.65686c.3905.3905 1.0237.3905 1.4142 0s.3905-1.0237 0-1.41422l-.707-.70702 2.1218-2.12184c1.1716-1.17157 1.1716-3.07107 0-4.24264z"/><path clip-rule="evenodd" d="m11.9297 7.09116-7.7782 7.77814c-.92364.9237-1.11911 2.2997-.5864 3.4149l-1.56516 1.5651 1.41421 1.4142 1.56516-1.5651c1.11513.5327 2.49119.3372 3.41483-.5864l7.77816-7.7782zm1.4142 4.24264-1.4142-1.41421-6.36399 6.36391c-.39053.3906-.39053 1.0237 0 1.4143.39052.3905 1.02369.3905 1.41421 0z" fill-rule="evenodd"/></g></svg>