<svg fill="none" height="24" width="24" xmlns="http://www.w3.org/2000/svg"><g fill="#f4f4f7"><path d="m20.385 2.879a3 3 0 0 0 -4.243 0l-2.122 2.121-.707-.708a1 1 0 1 0 -1.414 1.415l5.657 5.656a1 1 0 0 0 1.414-1.413l-.707-.707 2.122-2.122a3 3 0 0 0 0-4.242z"/><path clip-rule="evenodd" d="m11.93 7.091-7.778 7.779a3.001 3.001 0 0 0 -.587 3.415l-1.565 1.565 1.414 1.414 1.565-1.565a3.001 3.001 0 0 0 3.415-.586l7.778-7.778zm1.414 4.243-1.414-1.414-6.364 6.363a1 1 0 0 0 1.414 1.415z" fill-rule="evenodd"/></g></svg>