<svg fill="none" height="24" viewBox="0 0 24 24" width="24" xmlns="http://www.w3.org/2000/svg"><g fill="#f4f4f7"><path clip-rule="evenodd" d="m8.20348 2.00378c1.26059 0 2.30322 1.10364 2.47512 2.53863l8.4836 8.48349-7.7782 7.7782c-1.1716 1.1716-3.07109 1.1716-4.24266 0l-4.24264-4.2426c-1.17157-1.1716-1.17157-3.0711 0-4.2427l2.80478-2.80476v-4.55305c0-1.63322 1.11929-2.95721 2.5-2.95721zm.5 2.95721v1.55305l-1 1v-2.55305c0-.32664.22386-.59144.5-.59144.27615 0 .5.2648.5.59144zm0 5.91441v-1.53293l-4.39057 4.39053c-.39052.3906-.39052 1.0237 0 1.4143l4.24264 4.2426c.39053.3905 1.02369.3905 1.41422 0l6.36393-6.364-5.6302-5.63021v3.47971c0 .043-.0008.0858-.0023.1284h-2.00952c.00773-.0413.0118-.0843.0118-.1284z" fill-rule="evenodd"/><path d="m16.8586 16.8749c-1.1716 1.1716-1.1716 3.0711 0 4.2426 1.1716 1.1716 3.0711 1.1716 4.2427 0 1.1715-1.1715 1.1715-3.071 0-4.2426l-2.1214-2.1213z"/></g></svg>