<svg fill="none" height="24" viewBox="0 0 24 24" width="24" xmlns="http://www.w3.org/2000/svg"><g fill="#f4f4f7"><path d="m10.5445 19c3.866 0 7-3.134 7-7 0-3.86599-3.134-7-7-7-1.93302 0-3.68302.7835-4.94977 2.05025l-2.1213-2.12129-.01799.01798c1.81105-1.82022 4.31846-2.94694 7.08906-2.94694 5.5228 0 10 4.47715 10 10 0 5.5228-4.4772 10-10 10-2.76143 0-5.26142-1.1193-7.07107-2.9289l2.12132-2.1213c1.26675 1.2667 3.01674 2.0502 4.94975 2.0502z"/><path d="m10.5445 14c.5931 0 1.1259-.2582 1.4922-.6683l2.1227 2.1227c-.9104.9524-2.1934 1.5456-3.6149 1.5456-2.76145 0-5.00003-2.2386-5.00003-5 0-2.76142 2.23858-5 5.00003-5 1.4215 0 2.7045.59323 3.6149 1.54563l-2.1227 2.12267c-.3663-.4101-.8991-.6683-1.4922-.6683-1.1046 0-2.00003.8954-2.00003 2s.89543 2 2.00003 2z"/></g></svg>