<svg fill="none" height="24" viewBox="0 0 24 24" width="24" xmlns="http://www.w3.org/2000/svg"><path clip-rule="evenodd" d="m12 17.456c-.7611.3493-1.6078.544-2.5.544-3.31371 0-6-2.6863-6-6 0-3.31371 2.68629-6 6-6 .8922 0 1.7389.19474 2.5.54404.7611-.3493 1.6078-.54404 2.5-.54404 3.3137 0 6 2.68629 6 6 0 3.3137-2.6863 6-6 6-.8922 0-1.7389-.1947-2.5-.544zm-1.9997-1.487c-.16393.0205-.33088.031-.5003.031-2.20914 0-4-1.7909-4-4 0-2.20914 1.79086-4 4-4 .16942 0 .33637.01053.5003.03098-.93374 1.05773-1.5003 2.44722-1.5003 3.96902s.56656 2.9113 1.5003 3.969zm3.9995-7.93802c.1638-.02044.3308-.03098.5002-.03098 2.2091 0 4 1.79086 4 4 0 2.2091-1.7909 4-4 4-.1694 0-.3364-.0105-.5002-.031.9336-1.0577 1.5002-2.4472 1.5002-3.969s-.5666-2.91128-1.5002-3.96902zm-1.9998.84634c.9145.73306 1.5 1.85948 1.5 3.12268s-.5855 2.3896-1.5 3.1227c-.9145-.7331-1.5-1.8595-1.5-3.1227s.5855-2.38962 1.5-3.12268z" fill="#f4f4f7" fill-rule="evenodd"/></svg>