<svg fill="none" height="24" viewBox="0 0 24 24" width="24" xmlns="http://www.w3.org/2000/svg"><g clip-rule="evenodd" fill="#f4f4f7" fill-rule="evenodd"><path d="m7.7572 6.3431 4.2426-4.24264 4.2427 4.24264-4.2427 4.2426zm2.8284 0 1.4142-1.41421 1.4143 1.41421-1.4143 1.41422z"/><path d="m2.10046 11.9999 4.24264-4.24264 4.2426 4.24264-4.2426 4.2426zm2.82843 0 1.41421-1.4142 1.41422 1.4142-1.41422 1.4142z"/><path d="m13.4142 11.9999 4.2426 4.2426 4.2427-4.2426-4.2427-4.24264zm4.2426-1.4142-1.4142 1.4142 1.4142 1.4142 1.4142-1.4142z"/><path d="m7.7572 17.6569 4.2426-4.2427 4.2427 4.2427-4.2427 4.2426zm2.8284 0 1.4142-1.4142 1.4143 1.4142-1.4143 1.4142z"/></g></svg>