<svg fill="none" height="24" viewBox="0 0 24 24" width="24" xmlns="http://www.w3.org/2000/svg"><g fill="#f4f4f7"><path d="m13.392 10.4362 1.4186-1.4186c-.7075-.63284-1.6416-1.0176-2.6656-1.0176-2.20912 0-3.99998 1.79086-3.99998 4 0 2.2091 1.79086 4 3.99998 4 1.1113 0 2.1167-.4532 2.8416-1.1848l-1.3126-1.3126-.2094.0004c-.3522.3094-.814.497-1.3196.497-1.1045 0-2-.8954-2-2s.8955-2 2-2c.4716 0 .9051.1632 1.247.4362z"/><path clip-rule="evenodd" d="m12 3c4.9706 0 9 4.02944 9 9 0 4.9706-4.0294 9-9 9-4.97056 0-9-4.0294-9-9 0-4.97056 4.02944-9 9-9zm0 2c3.866 0 7 3.13401 7 7 0 3.866-3.134 7-7 7-3.86599 0-7-3.134-7-7 0-3.86599 3.13401-7 7-7z" fill-rule="evenodd"/></g></svg>