<svg fill="none" height="24" viewBox="0 0 24 24" width="24" xmlns="http://www.w3.org/2000/svg"><g fill="#f4f4f7"><path d="m4 9c0-.55228.44772-1 1-1h4c.55228 0 1 .44772 1 1s-.44772 1-1 1h-4c-.55228 0-1-.44772-1-1z"/><path clip-rule="evenodd" d="m4 3c-2.20914 0-4 1.79086-4 4v10c0 2.2091 1.79086 4 4 4h16c2.2091 0 4-1.7909 4-4v-10c0-2.20914-1.7909-4-4-4zm16 2h-16c-1.10457 0-2 .89543-2 2v7h20v-7c0-1.10457-.8954-2-2-2zm2 11h-20v1c0 1.1046.89543 2 2 2h16c1.1046 0 2-.8954 2-2z" fill-rule="evenodd"/></g></svg>