<svg fill="none" height="24" viewBox="0 0 24 24" width="24" xmlns="http://www.w3.org/2000/svg"><g fill="#f4f4f7"><path clip-rule="evenodd" d="m12 8.88916c1.6569 0 3 1.34314 3 3.00004 0 1.3062-.8348 2.4174-2 2.8293v5.1707h-2v-5.1707c-1.16519-.4119-2-1.5231-2-2.8293 0-1.6569 1.3431-3.00004 3-3.00004zm0 2.00004c.5523 0 1 .4477 1 1 0 .5522-.4477 1-1 1s-1-.4478-1-1c0-.5523.4477-1 1-1z" fill-rule="evenodd"/><path d="m7.05019 6.93938c-1.26671 1.26674-2.05019 3.01672-2.05019 4.94972 0 2.1775.99426 4.1228 2.55355 5.4066l1.42357-1.4236c-1.20142-.9132-1.97712-2.3575-1.97712-3.983 0-1.3807.55962-2.63069 1.46441-3.53551z"/><path d="m15.5355 8.35348c.9048.90483 1.4645 2.15482 1.4645 3.53562 0 1.6255-.7757 3.0699-1.9772 3.9831l1.4235 1.4236c1.5594-1.2838 2.5537-3.2292 2.5537-5.4067 0-1.93306-.7835-3.68308-2.0503-4.94983z"/><path d="m1 11.8891c0-3.03758 1.23119-5.78755 3.22176-7.77815l1.41422 1.41421c-1.62865 1.62867-2.63598 3.87865-2.63598 6.36394 0 2.4852 1.00733 4.7352 2.63597 6.3638l-1.41422 1.4143c-1.99056-1.9906-3.22175-4.7406-3.22175-7.7781z"/><path d="m19.7781 19.6673c1.9907-1.9906 3.2219-4.7407 3.2219-7.7782 0-3.03763-1.2312-5.78765-3.2219-7.77826l-1.4142 1.41421c1.6287 1.62869 2.6361 3.87871 2.6361 6.36405 0 2.4853-1.0074 4.7353-2.6361 6.364z"/></g></svg>