<svg fill="none" height="24" viewBox="0 0 24 24" width="24" xmlns="http://www.w3.org/2000/svg"><g fill="#f4f4f7"><path d="m5 9v-2h2v2z"/><path d="m9 9h10v-2h-10z"/><path d="m5 15v2h2v-2z"/><path d="m19 17h-10v-2h10z"/><path clip-rule="evenodd" d="m1 6c0-1.65685 1.34315-3 3-3h16c1.6569 0 3 1.34315 3 3v12c0 1.6569-1.3431 3-3 3h-16c-1.65685 0-3-1.3431-3-3zm3-1h16c.5523 0 1 .44772 1 1v5h-18v-5c0-.55228.44772-1 1-1zm-1 8v5c0 .5523.44772 1 1 1h16c.5523 0 1-.4477 1-1v-5z" fill-rule="evenodd"/></g></svg>