<svg fill="none" height="24" viewBox="0 0 24 24" width="24" xmlns="http://www.w3.org/2000/svg"><g fill="#f4f4f7"><path d="m10 11c0-.5523.4477-1 1-1h2c.5523 0 1 .4477 1 1s-.4477 1-1 1h-2c-.5523 0-1-.4477-1-1z"/><path d="m11 14c-.5523 0-1 .4477-1 1s.4477 1 1 1h2c.5523 0 1-.4477 1-1s-.4477-1-1-1z"/><path clip-rule="evenodd" d="m9.09447 4.74918c-.67841-.71675-1.09447-1.68438-1.09447-2.74918h2c0 1.10457.8954 2 2 2s2-.89543 2-2h2c0 1.0648-.4161 2.03243-1.0945 2.74918 1.2727.70573 2.2618 1.86072 2.7531 3.25082h1.3414c.5523 0 1 .44772 1 1 0 .55229-.4477 1-1 1h-1v2h1c.5523 0 1 .4477 1 1s-.4477 1-1 1h-1v2h1c.5523 0 1 .4477 1 1s-.4477 1-1 1h-1.3414c-.8237 2.3304-3.0462 4-5.6586 4-2.61244 0-4.83492-1.6696-5.65859-4h-1.34141c-.55228 0-1-.4477-1-1s.44772-1 1-1h1v-2h-1c-.55228 0-1-.4477-1-1s.44772-1 1-1h1v-2h-1c-.55228 0-1-.44771-1-1 0-.55228.44772-1 1-1h1.34141c.49133-1.3901 1.4804-2.54509 2.75306-3.25082zm-1.09447 11.25082v-6c0-2.20914 1.79086-4 4-4 2.2091 0 4 1.79086 4 4v6c0 2.2091-1.7909 4-4 4-2.20914 0-4-1.7909-4-4z" fill-rule="evenodd"/></g></svg>