<svg fill="none" height="24" viewBox="0 0 24 24" width="24" xmlns="http://www.w3.org/2000/svg"><g fill="#f4f4f7"><path clip-rule="evenodd" d="m7 4.05444c-2.76142 0-5 2.23858-5 5 0 2.76146 2.23858 4.99996 5 4.99996s5-2.2385 5-4.99996c0-2.76142-2.23858-5-5-5zm-2 5c0 1.10456.89543 1.99996 2 1.99996s2-.8954 2-1.99996c0-1.10457-.89543-2-2-2s-2 .89543-2 2z" fill-rule="evenodd"/><path d="m22 10.5544h-5v-2.99996h5z"/><path d="m11.5503 16.9457c1.1283 0 2.1474-.4671 2.8746-1.2185-.0152.0157-.0306.0313-.0461.0468l2.1213 2.1214c-1.2667 1.2667-3.0167 2.0503-4.9498 2.0503-1.93296 0-3.68296-.7835-4.94971-2.0503l2.12132-2.1213c.72385.7239 1.72389 1.1716 2.82839 1.1716z"/></g></svg>