<svg fill="none" height="24" viewBox="0 0 24 24" width="24" xmlns="http://www.w3.org/2000/svg"><g fill="#f4f4f7"><path d="m8 15c-.55228 0-1 .4477-1 1s.44772 1 1 1 1-.4477 1-1-.44772-1-1-1z"/><path d="m11 16c0-.5523.4477-1 1-1s1 .4477 1 1-.4477 1-1 1-1-.4477-1-1z"/><path d="m16 15c-.5523 0-1 .4477-1 1s.4477 1 1 1 1-.4477 1-1-.4477-1-1-1z"/><path clip-rule="evenodd" d="m4 3c-1.65685 0-3 1.34315-3 3v12c0 1.6569 1.34315 3 3 3h16c1.6569 0 3-1.3431 3-3v-12c0-1.65685-1.3431-3-3-3zm16 2h-16c-.55228 0-1 .44772-1 1v1h18v-1c0-.55228-.4477-1-1-1zm-17 13v-9h18v9c0 .5523-.4477 1-1 1h-16c-.55228 0-1-.4477-1-1z" fill-rule="evenodd"/></g></svg>