<svg fill="none" height="24" width="24" xmlns="http://www.w3.org/2000/svg"><g fill="#f4f4f7"><path d="m14.945 7.055a2 2 0 1 1 4 0 2 2 0 0 1 -4 0zm2 7.837a2 2 0 1 0 0 4 2 2 0 0 0 0-4zm-11.89 2a2 2 0 1 1 4 0 2 2 0 0 1 -4 0zm2-11.837a2 2 0 1 0 0 4 2 2 0 0 0 0-4zm2.945 6.945a2 2 0 1 1 4 0 2 2 0 0 1 -4 0z"/><path clip-rule="evenodd" d="m1 4a3 3 0 0 1 3-3h16a3 3 0 0 1 3 3v16a3 3 0 0 1 -3 3h-16a3 3 0 0 1 -3-3zm3-1h16a1 1 0 0 1 1 1v16a1 1 0 0 1 -1 1h-16a1 1 0 0 1 -1-1v-16a1 1 0 0 1 1-1z" fill-rule="evenodd"/></g></svg>