<svg fill="none" height="24" viewBox="0 0 24 24" width="24" xmlns="http://www.w3.org/2000/svg"><g fill="#f4f4f7"><path d="m16.9451 5.05518c-1.1046 0-2 .89543-2 2s.8954 2 2 2c1.1045 0 2-.89543 2-2s-.8955-2-2-2z"/><path d="m14.9451 16.8921c0-1.1046.8954-2 2-2 1.1045 0 2 .8954 2 2s-.8955 2-2 2c-1.1046 0-2-.8954-2-2z"/><path d="m7.05518 14.8921c-1.10457 0-2 .8954-2 2s.89543 2 2 2 2-.8954 2-2-.89543-2-2-2z"/><path d="m5.05518 7.05518c0-1.10457.89543-2 2-2s2 .89543 2 2-.89543 2-2 2-2-.89543-2-2z"/><path d="m16.9451 9.97363c-1.1046 0-2 .89547-2 1.99997 0 1.1046.8954 2 2 2 1.1045 0 2-.8954 2-2 0-1.1045-.8955-1.99997-2-1.99997z"/><path d="m5.05518 11.9736c0-1.1045.89543-1.99997 2-1.99997s2 .89547 2 1.99997c0 1.1046-.89543 2-2 2s-2-.8954-2-2z"/><path clip-rule="evenodd" d="m4 1c-1.65685 0-3 1.34315-3 3v16c0 1.6569 1.34315 3 3 3h16c1.6569 0 3-1.3431 3-3v-16c0-1.65685-1.3431-3-3-3zm16 2h-16c-.55228 0-1 .44772-1 1v16c0 .5523.44772 1 1 1h16c.5523 0 1-.4477 1-1v-16c0-.55228-.4477-1-1-1z" fill-rule="evenodd"/></g></svg>