<svg fill="none" height="24" viewBox="0 0 24 24" width="24" xmlns="http://www.w3.org/2000/svg"><g fill="#f4f4f7"><path clip-rule="evenodd" d="m12 9c-1.6569 0-3 1.3431-3 3s1.3431 3 3 3 3-1.3431 3-3-1.3431-3-3-3zm-1 3c0 .5523.4477 1 1 1s1-.4477 1-1-.4477-1-1-1-1 .4477-1 1z" fill-rule="evenodd"/><path d="m5 12c0-3.86599 3.13401-7 7-7v2c-2.76142 0-5 2.23858-5 5z"/><path d="m12 17c2.7614 0 5-2.2386 5-5h2c0 3.866-3.134 7-7 7z"/><path clip-rule="evenodd" d="m12 1c-6.07513 0-11 4.92487-11 11 0 6.0751 4.92487 11 11 11 6.0751 0 11-4.9249 11-11 0-6.07513-4.9249-11-11-11zm-9 11c0 4.9706 4.02944 9 9 9 4.9706 0 9-4.0294 9-9 0-4.97056-4.0294-9-9-9-4.97056 0-9 4.02944-9 9z" fill-rule="evenodd"/></g></svg>