<svg fill="none" height="24" viewBox="0 0 24 24" width="24" xmlns="http://www.w3.org/2000/svg"><path clip-rule="evenodd" d="m1 11.9554v.0892c.01066 2.6855.98363 5.1439 2.59196 7.0485.46519.5508.98353 1.0554 1.54712 1.5056.56723.4532 1.18029.8514 1.83111 1.1866.93252.4803 1.94256.8312 3.0064 1.029.61481.1143 1.24771.1775 1.89391.185.0431.0005.0862.0007.1294.0007 3.6895 0 6.9548-1.8164 8.9503-4.6038.4179-.5837.7801-1.2101 1.0789-1.8712.6237-1.3802.9708-2.912.9708-4.525 0-3.26022-1.4183-6.18916-3.6716-8.20347-.5219-.46655-1.0886-.88404-1.6928-1.24521-1.6482-.98517-3.5758-1.55132-5.6356-1.55132-.1119 0-.2235.00167-.3346.00499-1.66684.0498-3.24053.47042-4.6414 1.1822-.95305.48425-1.82611 1.10326-2.59408 1.83195-.71322.67673-1.33581 1.44806-1.84766 2.29388-.36108.59667-.66705 1.23041-.91086 1.89416-.42946 1.16913-.66607 2.43142-.6713 3.74822zm19.4812 3.0632c.3359-.9436.5187-1.9598.5187-3.0186 0-2.45735-.9848-4.68467-2.5813-6.3088-.8211 1.36279-1.9038 2.49304-3.1518 3.3557.4683 1.2157.7218 2.5134.7377 3.8309.7647.1706 1.5229.4262 2.2624.771.8072.3764 1.5472.8382 2.2143 1.3698zm-4.6399-.1232c.5339.1367 1.0627.3246 1.5804.566.8003.3732 1.52.8491 2.1506 1.4047-1.5035 2.3347-4.0572 3.9292-6.9935 4.1156.9729-.9232 1.7921-2.0412 2.3932-3.3303.4189-.8983.706-1.8242.8693-2.756zm-1.8449-2.2735c-.0381-.8837-.2066-1.7535-.4951-2.5811-2.8126 1.259-6.13546 1.3357-9.14748-.06883-.34131-.15916-.67063-.3336-.9875-.52214-.23845.80857-.36641 1.66437-.36641 2.55017 0 1.9462.61772 3.748 1.66779 5.2203 2.16268-3.0328 5.7008-4.7216 9.3287-4.5984zm-7.9494 6.1283c1.72558-2.6912 4.7244-4.212 7.8115-4.1311-.1355.7395-.3666 1.4739-.6991 2.1871-.7817 1.6763-2.0141 2.9988-3.48555 3.8903-1.36342-.3637-2.59944-1.0396-3.62685-1.9463zm5.9529-15.7502c1.7847 0 3.448.51946 4.8471 1.41543-.6357 1.13295-1.4877 2.08067-2.479 2.81514-1.0208-1.65985-2.4928-3.06624-4.341-4.01365.6349-.142 1.2952-.21692 1.9729-.21692zm-3.19371 1.84582c1.64001.76474 2.94121 1.96077 3.83171 3.39006-2.2915 1.01066-4.99068 1.06507-7.43884-.07652-.36522-.17031-.71365-.36201-1.04448-.57291.75907-1.34639 1.85471-2.47778 3.17276-3.28.49938.13413.99404.3133 1.47885.53937z" fill="#f4f4f7" fill-rule="evenodd"/></svg>