<svg fill="none" height="24" viewBox="0 0 24 24" width="24" xmlns="http://www.w3.org/2000/svg"><g clip-rule="evenodd" fill="#f4f4f7" fill-rule="evenodd"><path d="m8 12c0-2.20914 1.79086-4 4-4 2.2091 0 4 1.79086 4 4 0 2.2091-1.7909 4-4 4-2.20914 0-4-1.7909-4-4zm4 1c-.5523 0-1-.4477-1-1s.4477-1 1-1 1 .4477 1 1-.4477 1-1 1z"/><path d="m3 12c0-4.97056 4.02944-9 9-9 4.9706 0 9 4.02944 9 9 0 4.9706-4.0294 9-9 9-4.97056 0-9-4.0294-9-9zm9 7c-3.86599 0-7-3.134-7-7 0-3.86599 3.13401-7 7-7 3.866 0 7 3.13401 7 7 0 3.866-3.134 7-7 7z"/></g></svg>