<svg fill="none" height="24" viewBox="0 0 24 24" width="24" xmlns="http://www.w3.org/2000/svg"><g fill="#f4f4f7"><path d="m15.3056 6.99194c-.9478-.62692-2.0841-.99194-3.3056-.99194-3.31371 0-6 2.68629-6 6 0 3.3137 2.68629 6 6 6 1.2267 0 2.3675-.3682 3.3178-1h-3.3178v-1h4.4722c.5184-.5792.9259-1.2596 1.1892-2.0081h-5.6614v-1h5.9184c.0537-.3226.0816-.654.0816-.9919 0-.3317-.0269-.6572-.0787-.9742h-5.9213v-1h5.6676c-.2643-.75891-.6767-1.44838-1.2026-2.03386h-4.465v-1z"/><path clip-rule="evenodd" d="m22 12c0-5.52285-4.4772-10-10-10-5.52285 0-10 4.47715-10 10 0 5.5228 4.47715 10 10 10 5.5228 0 10-4.4772 10-10zm-10 8c4.4183 0 8-3.5817 8-8 0-4.41828-3.5817-8-8-8-4.41828 0-8 3.58172-8 8 0 4.4183 3.58172 8 8 8z" fill-rule="evenodd"/></g></svg>