<svg fill="none" height="24" viewBox="0 0 24 24" width="24" xmlns="http://www.w3.org/2000/svg"><path clip-rule="evenodd" d="m12 24c6.6274 0 12-5.3726 12-12 0-6.62742-5.3726-12-12-12-6.62742 0-12 5.37258-12 12 0 6.6274 5.37258 12 12 12zm6.5793-4.469c2.0965-1.833 3.4207-4.5274 3.4207-7.531 0-5.52285-4.4772-10-10-10-5.52285 0-10 4.47715-10 10 0 2.9616 1.28743 5.6225 3.33317 7.4535l1.66682-8.4797h2.17027l2.82974-4.90129 2.8297 4.90129h2.1703zm-2.4874 1.5962-.8863-8.1534h-6.41122l-.88624 8.1534c1.24901.5608 2.63396.8728 4.09186.8728s2.8428-.312 4.0919-.8728z" fill="#f4f4f7" fill-rule="evenodd"/></svg>