<svg fill="none" height="24" viewBox="0 0 24 24" width="24" xmlns="http://www.w3.org/2000/svg"><g fill="#f4f4f7"><path d="m12 14c1.1046 0 2-.8954 2-2s-.8954-2-2-2-2 .8954-2 2 .8954 2 2 2z"/><path clip-rule="evenodd" d="m12 22c-5.52284 0-10-4.4772-10-10 0-5.52283 4.47716-10 10-10 5.5228 0 10 4.47717 10 10 0 5.5228-4.4772 10-10 10zm-2.9693-2.5692c-.02023-.1408-.0307-.2846-.0307-.4308 0-1.6569 1.3431-3 3-3s3 1.3431 3 3c0 .1462-.0105.29-.0307.4308 2.03-.8119 3.6497-2.4315 4.4615-4.4616-.1407.0203-.2845.0308-.4308.0308-1.6569 0-3-1.3431-3-3s1.3431-3 3-3c.0637 0 .127.00195.1897.00586.0813.00513.1617.01343.2411.0249-.8119-2.03003-2.4315-3.64966-4.4615-4.46155.0202.14075.0307.28455.0307.43079 0 1.65686-1.3431 3-3 3s-3-1.34314-3-3c0-.14624.01048-.29004.03072-.43079-2.03002.81189-3.64966 2.43152-4.46157 4.46155.07942-.01147.15985-.01977.24115-.0249.06273-.00391.12598-.00586.1897-.00586 1.65686 0 3 1.3431 3 3s-1.34314 3-3 3c-.1463 0-.29015-.0105-.43085-.0308.81189 2.0301 2.43154 3.6497 4.46155 4.4616z" fill-rule="evenodd"/></g></svg>