<svg fill="none" height="24" viewBox="0 0 24 24" width="24" xmlns="http://www.w3.org/2000/svg"><g fill="#f4f4f7"><path d="m12 6c-1.2215 0-2.35777.36502-3.30565.99194h3.30565v1h-4.46499c-.5259.58548-.93832 1.27495-1.20264 2.03386h5.66763v1h-5.92131c-.05177.317-.07869.6425-.07869.9742 0 .3379.02793.6693.08161.9919h5.91839v1h-5.66143c.26332.7485.67084 1.4289 1.18922 2.0081h4.47221v1h-3.31779c.9503.6318 2.09109 1 3.31779 1 3.3137 0 6-2.6863 6-6 0-3.31371-2.6863-6-6-6z"/><path clip-rule="evenodd" d="m2 12c0-5.52285 4.47715-10 10-10 5.5228 0 10 4.47715 10 10 0 5.5228-4.4772 10-10 10-5.52285 0-10-4.4772-10-10zm10 8c-4.41828 0-8-3.5817-8-8 0-4.41828 3.58172-8 8-8 4.4183 0 8 3.58172 8 8 0 4.4183-3.5817 8-8 8z" fill-rule="evenodd"/></g></svg>