<svg fill="none" height="24" viewBox="0 0 24 24" width="24" xmlns="http://www.w3.org/2000/svg"><g fill="#f4f4f7"><path d="m12 18c-1.5367 0-2.93849-.5777-4-1.5278-1.2275-1.0986-2-2.6952-2-4.4722s.7725-3.37357 2-4.47221c1.06151-.95008 2.4633-1.52779 4-1.52779z"/><path clip-rule="evenodd" d="m2 12c0-5.52285 4.47715-10 10-10 5.5228 0 10 4.47715 10 10 0 5.5228-4.4772 10-10 10-5.52285 0-10-4.4772-10-10zm10 8c-4.41828 0-8-3.5817-8-8 0-4.41828 3.58172-8 8-8 4.4183 0 8 3.58172 8 8 0 4.4183-3.5817 8-8 8z" fill-rule="evenodd"/></g></svg>