<svg fill="none" height="24" width="24" xmlns="http://www.w3.org/2000/svg"><g fill="#f4f4f7"><path d="m12 14a2 2 0 1 0 0-4 2 2 0 0 0 0 4z"/><path clip-rule="evenodd" d="m12 22c-5.523 0-10-4.477-10-10s4.477-10 10-10 10 4.477 10 10-4.477 10-10 10zm-2.97-2.57a3 3 0 1 1 5.939 0 8.026 8.026 0 0 0 4.462-4.46 3 3 0 1 1 0-5.938 8.026 8.026 0 0 0 -4.462-4.463 3 3 0 1 1 -5.939 0 8.026 8.026 0 0 0 -4.46 4.462 3.015 3.015 0 0 1 .43-.031 3 3 0 1 1 -.43 5.97 8.026 8.026 0 0 0 4.46 4.46z" fill-rule="evenodd"/></g></svg>