<svg fill="none" height="24" viewBox="0 0 24 24" width="24" xmlns="http://www.w3.org/2000/svg"><g fill="#f4f4f7"><path d="m10.4044 17.7657c.0146.0146.0285.0296.0416.0451-.2512-.0669-.49595-.1498-.73307-.2474.24136-.0528.50377.0146.69147.2023z"/><path d="m8.43574 16.705c-.02712.0271-.0558.0517-.08575.0738-.39338-.3013-.74836-.6503-1.05635-1.0382.02401-.0338.05116-.066.08144-.0963.29289-.2929.76777-.2929 1.06066 0s.29289.7678 0 1.0607z"/><path d="m6.37104 13.6475c.22597.226.2776.5602.1549.8357-.14067-.3109-.2556-.636-.34207-.9725.06742.0347.13068.0803.18717.1368z"/><path d="m6.37104 10.6753c-.07703.077-.16664.1338-.26221.1703.07754-.3933.19351-.7728.34385-1.13441.20811.29281.18089.70161-.08164.96411z"/><path d="m7.37508 8.70669c-.08513-.08513-.14551-.18563-.18116-.29256.26515-.3532.56836-.6762.90355-.96289.12392.0327.24111.09763.33827.19479.29289.29289.29289.76776 0 1.06066-.29289.29289-.76777.29289-1.06066 0z"/><path d="m9.34371 6.76662c-.03036-.03035-.05757-.06266-.08163-.09652.42602-.21839.88162-.38733 1.35912-.49922.0185.21311-.0537.43264-.2168.59574-.2929.2929-.7678.2929-1.06069 0z"/><path d="m13.2872 17.8734c.3095-.0679.6101-.1598.8996-.2734-.2703-.1086-.5911-.0534-.8102.1657-.0337.0336-.0635.0697-.0894.1077z"/><path d="m15.5312 16.8608c.4038-.295.7693-.6392 1.0878-1.0239-.0185-.0236-.0387-.0463-.0604-.0681-.2929-.2929-.7678-.2929-1.0607 0s-.2929.7678 0 1.0607c.0109.0108.022.0213.0333.0313z"/><path d="m17.3654 14.6921c.1983-.3968.354-.8186.461-1.2595-.1628.0184-.3206.0901-.4455.2149-.2876.2876-.2928.7507-.0155 1.0446z"/><path d="m17.8911 10.8934c-.0879-.4662-.2298-.91324-.4189-1.33455-.0215.01724-.0423.03584-.0623.0558-.2929.2929-.2929.76775 0 1.06065.134.134.306.2067.4812.2181z"/><path d="m16.7556 8.35985c-.2585-.3363-.5518-.64443-.8745-.91899-.1404.02795-.2743.09634-.3832.20517-.2929.29289-.2929.76776 0 1.06066.2929.29289.7678.29289 1.0607 0 .0994-.0994.1651-.21975.197-.34684z"/><path d="m14.4373 6.76662c.0533-.05331.0969-.11265.1308-.17583-.4408-.20952-.9112-.36687-1.4032-.46408-.0332.2266.0373.46552.2117.63991.2929.2929.7678.2929 1.0607 0z"/><path d="m12.5257 7.64603c.2929.29289.2929.76776 0 1.06066-.2929.29289-.7678.29289-1.0607 0-.2929-.2929-.2929-.76777 0-1.06066.2929-.2929.7678-.2929 1.0607 0z"/><path d="m10.4044 9.61465c.2929.2929.2929.76775 0 1.06065s-.7678.2929-1.06069 0c-.2929-.2929-.2929-.76775 0-1.06065.29289-.29289.76779-.29289 1.06069 0z"/><path d="m8.43574 12.7967c.29289-.2929.29289-.7678 0-1.0607s-.76777-.2929-1.06066 0c-.2929.2929-.2929.7678 0 1.0607.29289.2928.76777.2928 1.06066 0z"/><path d="m10.4044 13.6475c.2929.2929.2929.7678 0 1.0607-.2929.2928-.7678.2928-1.06069 0-.2929-.2929-.2929-.7678 0-1.0607.29289-.2929.76779-.2929 1.06069 0z"/><path d="m12.5257 12.7967c.2929-.2929.2929-.7678 0-1.0607s-.7678-.2929-1.0607 0-.2929.7678 0 1.0607c.2929.2928.7678.2928 1.0607 0z"/><path d="m14.4373 9.61465c.2929.2929.2929.76775 0 1.06065s-.7678.2929-1.0607 0-.2929-.76775 0-1.06065c.2929-.29289.7678-.29289 1.0607 0z"/><path d="m16.5586 12.7681c.2929-.2929.2929-.7678 0-1.0607s-.7678-.2929-1.0607 0-.2929.7678 0 1.0607.7678.2929 1.0607 0z"/><path d="m14.423 13.6902c.2929.2929.2929.7678 0 1.0607s-.7678.2929-1.0607 0-.2929-.7678 0-1.0607.7678-.2929 1.0607 0z"/><path d="m12.3159 16.705c.2929-.2929.2929-.7678 0-1.0607s-.7677-.2929-1.0606 0-.2929.7678 0 1.0607.7677.2929 1.0606 0z"/><path clip-rule="evenodd" d="m22 12c0 5.5228-4.4772 10-10 10-5.52285 0-10-4.4772-10-10 0-5.52285 4.47715-10 10-10 5.5228 0 10 4.47715 10 10zm-2 0c0 4.4183-3.5817 8-8 8-4.41828 0-8-3.5817-8-8 0-4.41828 3.58172-8 8-8 4.4183 0 8 3.58172 8 8z" fill-rule="evenodd"/></g></svg>