<svg fill="none" height="24" viewBox="0 0 24 24" width="24" xmlns="http://www.w3.org/2000/svg"><g fill="#f4f4f7"><path d="m16 7c-.5523 0-1 .44772-1 1s.4477 1 1 1h3c.5523 0 1-.44772 1-1s-.4477-1-1-1z"/><path d="m15 12c0-.5523.4477-1 1-1h3c.5523 0 1 .4477 1 1s-.4477 1-1 1h-3c-.5523 0-1-.4477-1-1z"/><path d="m16 15c-.5523 0-1 .4477-1 1s.4477 1 1 1h3c.5523 0 1-.4477 1-1s-.4477-1-1-1z"/><path clip-rule="evenodd" d="m3 3c-1.65685 0-3 1.34315-3 3v12c0 1.6569 1.34315 3 3 3h18c1.6569 0 3-1.3431 3-3v-12c0-1.65685-1.3431-3-3-3zm18 2h-8v14h8c.5523 0 1-.4477 1-1v-12c0-.55228-.4477-1-1-1zm-18 0h8v14h-8c-.55228 0-1-.4477-1-1v-12c0-.55228.44772-1 1-1z" fill-rule="evenodd"/></g></svg>