<svg fill="none" height="24" viewBox="0 0 24 24" width="24" xmlns="http://www.w3.org/2000/svg"><g fill="#f4f4f7"><path d="m7.71689 5.72315c-1.00108.46681-1.43419 1.65677-.96738 2.65785s1.65677 1.43419 2.65785.96738l10.87574-5.07142c1.001-.46681 1.4341-1.65677.9673-2.65785-.4668-1.001082-1.6567-1.434192-2.6578-.967381z"/><path d="m4.74951 15.381c-.46681-1.0011-.0337-2.191.96738-2.6579l10.87571-5.07137c1.0011-.46681 2.191-.0337 2.6578.96738s.0337 2.19099-.9673 2.65789l-10.87574 5.0714c-1.00108.4668-2.19104.0337-2.65785-.9674z"/><path d="m2.74951 22.381c-.46681-1.0011-.0337-2.191.96738-2.6579l10.87571-5.0714c1.0011-.4668 2.191-.0337 2.6578.9674s.0337 2.191-.9673 2.6579l-10.87574 5.0714c-1.00108.4668-2.19104.0337-2.65785-.9674z"/></g></svg>