<svg fill="none" height="24" viewBox="0 0 24 24" width="24" xmlns="http://www.w3.org/2000/svg"><path d="m18.5535 15.5355c-.9048.9049-2.1548 1.4645-3.5355 1.4645-1.8764 0-3.5114-1.0336-4.3667-2.5626h2.381l.6961-1.8749h-3.6791c-.0207-.1846-.0313-.3723-.0313-.5625s.0106-.3779.0313-.5626h4.2869l.6962-1.8749h-4.381c.8552-1.5289 2.4902-2.5625 4.3666-2.5625 1.3807 0 2.6307.55964 3.5355 1.46447l1.4142-1.41422c-1.2667-1.26675-3.0167-2.05025-4.9497-2.05025-3.0088 0-5.57419 1.89827-6.56393 4.5625h-2.42166l-.69617 1.8749h2.70404c-.01476.1856-.02228.3732-.02228.5626s.00752.3769.02227.5625h-3.31182l-.69616 1.8749h4.42175c.98973 2.6643 3.55516 4.5626 6.56396 4.5626 1.933 0 3.683-.7835 4.9497-2.0503z" fill="#f4f4f7"/></svg>