<svg fill="none" height="24" viewBox="0 0 24 24" width="24" xmlns="http://www.w3.org/2000/svg"><path clip-rule="evenodd" d="m14.6734 17.4378c-2.3677 1.1041-5.0876.5301-6.81896-1.2339l14.01026-6.53316c-.1542-.64105-.3745-1.27628-.6639-1.89698-2.3341-5.0054-8.2839-7.170949-13.28928-4.83689-5.0054 2.33405-7.170953 8.28383-4.8369 13.28923 2.33406 5.0054 8.28388 7.171 13.28928 4.8369 2.6521-1.2367 4.5069-3.4884 5.3176-6.077h-4.3391c-.594 1.0375-1.5031 1.9081-2.669 2.4518zm-5.07141-10.8757c-2.36763 1.10405-3.67627 3.5564-3.43796 6.0165l10.25677-4.78277c-1.7314-1.76389-4.4512-2.33778-6.81881-1.23373z" fill="#f4f4f7" fill-rule="evenodd"/></svg>