<svg fill="none" height="24" viewBox="0 0 24 24" width="24" xmlns="http://www.w3.org/2000/svg"><g fill="#f4f4f7"><path d="m14 12c0 1.1046-.8954 2-2 2s-2-.8954-2-2 .8954-2 2-2 2 .8954 2 2z"/><path clip-rule="evenodd" d="m12 3c-5.59152 0-10.28982 3.82432-11.621948 9 1.332128 5.1757 6.030428 9 11.621948 9 5.5915 0 10.2898-3.8243 11.6219-9-1.3321-5.17568-6.0304-9-11.6219-9zm4 9c0 2.2091-1.7909 4-4 4-2.20914 0-4-1.7909-4-4 0-2.20914 1.79086-4 4-4 2.2091 0 4 1.79086 4 4z" fill-rule="evenodd"/></g></svg>