<svg fill="none" height="24" viewBox="0 0 24 24" width="24" xmlns="http://www.w3.org/2000/svg"><g fill="#f4f4f7"><path d="m12.552 8c-.5523 0-1 .44772-1 1s.4477 1 1 1h4c.5523 0 1-.44772 1-1s-.4477-1-1-1z" fill-opacity=".5"/><path d="m12.552 17c-.5523 0-1 .4477-1 1s.4477 1 1 1h4c.5523 0 1-.4477 1-1s-.4477-1-1-1z" fill-opacity=".5"/><path d="m12.552 5c-.5523 0-1 .44772-1 1s.4477 1 1 1h8c.5523 0 1-.44772 1-1s-.4477-1-1-1z" fill-opacity=".8"/><path d="m12.552 14c-.5523 0-1 .4477-1 1s.4477 1 1 1h8c.5523 0 1-.4477 1-1s-.4477-1-1-1z" fill-opacity=".8"/><path d="m3.448 4.00208c-.55229 0-1 .44771-1 1v5.00002c0 .5523.44771 1 1 1h5c.55228 0 1-.4477 1-1v-5.00002c0-.55229-.44772-1-1-1z"/><path d="m3.448 12.9979c-.55229 0-1 .4477-1 1v5c0 .5523.44771 1 1 1h5c.55228 0 1-.4477 1-1v-5c0-.5523-.44772-1-1-1z"/></g></svg>