<svg xmlns="http://www.w3.org/2000/svg" width="64" height="64">
    <rect style="opacity:.2" width="45" height="20" x="10" y="41" rx="4" ry="4"/>
    <path style="fill:#1565c0" d="M14.219 4A4.2 4.2 0 0 0 10 8.2V29h45V8.2A4.2 4.2 0 0 0 50.781 4Z"/>
    <path style="fill:#1e88e5" d="M14.219 21A4.2 4.2 0 0 0 10 25.2V46h45V25.2a4.2 4.2 0 0 0-4.219-4.2Z"/>
    <rect style="fill:#42a5f5" width="45" height="20" x="10" y="40" rx="4" ry="4"/>
    <path style="opacity:.2" d="M28.5 13c-.831 0-1.5.669-1.5 1.5s.669 1.5 1.5 1.5h8c.831 0 1.5-.669 1.5-1.5s-.669-1.5-1.5-1.5Zm0 17c-.831 0-1.5.669-1.5 1.5s.669 1.5 1.5 1.5h8c.831 0 1.5-.669 1.5-1.5s-.669-1.5-1.5-1.5Zm0 20c-.831 0-1.5.669-1.5 1.5s.669 1.5 1.5 1.5h8c.831 0 1.5-.669 1.5-1.5s-.669-1.5-1.5-1.5Z"/>
    <rect style="fill:#fff" width="11" height="3" x="27" y="12" rx="1.5" ry="1.5"/>
    <rect style="fill:#fff" width="11" height="3" x="27" y="29" rx="1.5" ry="1.5"/>
    <rect style="fill:#fff" width="11" height="3" x="27" y="49" rx="1.5" ry="1.5"/>
    <path style="opacity:.1;fill:#fff" d="M14.219 4A4.2 4.2 0 0 0 10 8.2v1A4.2 4.2 0 0 1 14.219 5H50.78A4.2 4.2 0 0 1 55 9.2v-1A4.2 4.2 0 0 0 50.781 4H14.22zm0 17A4.2 4.2 0 0 0 10 25.2v1a4.2 4.2 0 0 1 4.219-4.2H50.78A4.2 4.2 0 0 1 55 26.2v-1a4.2 4.2 0 0 0-4.219-4.2H14.22z"/>
    <path style="opacity:.2;fill:#fff" d="M14 40c-2.216 0-4 1.784-4 4v1c0-2.216 1.784-4 4-4h37c2.216 0 4 1.784 4 4v-1c0-2.216-1.784-4-4-4H14z"/>
</svg>
