<svg fill="none" height="24" viewBox="0 0 24 24" width="24" xmlns="http://www.w3.org/2000/svg"><g fill="#f4f4f7"><path d="m7 18h10v-2h-10z"/><path d="m17 14h-10v-2h10z"/><path d="m7 10h4v-2h-4z"/><path clip-rule="evenodd" d="m6 2c-1.65685 0-3 1.34315-3 3v14c0 1.6569 1.34315 3 3 3h12c1.6569 0 3-1.3431 3-3v-10c0-3.86599-3.134-7-7-7zm0 2h7v5h6v10c0 .5523-.4477 1-1 1h-12c-.55228 0-1-.4477-1-1v-14c0-.55228.44772-1 1-1zm9 .10002c1.6113.32708 2.9413 1.42904 3.584 2.89998h-3.584z" fill-rule="evenodd"/></g></svg>