<svg fill="none" height="24" stroke="#f4f4f7" stroke-linecap="round" stroke-linejoin="round" stroke-width="2" width="24" xmlns="http://www.w3.org/2000/svg"><path d="m0 0h24v24h-24z" stroke="none"/><rect height="5" rx="1" width="3" x="3" y="16"/><path d="m6 20a1 1 0 0 0 1 1h3.756a1 1 0 0 0 .958-.713l1.2-3c.09-.303.133-.63-.056-.884-.188-.254-.542-.403-.858-.403h-2v-2.467a1.1 1.1 0 0 0 -2.015-.61l-1.985 3.077zm8-17v4a1 1 0 0 0 1 1h4"/><path d="m5 12.1v-7.1a2 2 0 0 1 2-2h7l5 5v11a2 2 0 0 1 -2 2h-2.3"/></svg>