<svg fill="none" height="24" width="24" xmlns="http://www.w3.org/2000/svg"><g fill="#f4f4f7"><path d="m6 7a1 1 0 1 0 0 2 1 1 0 0 0 0-2zm11 1a1 1 0 1 1 2 0 1 1 0 0 1 -2 0zm-11 3a1 1 0 1 0 0 2 1 1 0 0 0 0-2zm11 1a1 1 0 1 1 2 0 1 1 0 0 1 -2 0zm-11 3a1 1 0 1 0 0 2 1 1 0 0 0 0-2zm11 1a1 1 0 1 1 2 0 1 1 0 0 1 -2 0z"/><path clip-rule="evenodd" d="m4 3a3 3 0 0 0 -3 3v12a3 3 0 0 0 3 3h16a3 3 0 0 0 3-3v-12a3 3 0 0 0 -3-3zm16 2h-16a1 1 0 0 0 -1 1v12a1 1 0 0 0 1 1h16a1 1 0 0 0 1-1v-12a1 1 0 0 0 -1-1z" fill-rule="evenodd"/></g></svg>