<svg fill="none" height="24" viewBox="0 0 24 24" width="24" xmlns="http://www.w3.org/2000/svg"><path clip-rule="evenodd" d="m4.70834 15.4397c1.21829.8531 2.61386 1.2641 3.99627 1.2666.47516 1.2982 1.33869 2.469 2.55699 3.3221 3.1668 2.2174 7.5316 1.4478 9.7491-1.7191 2.2174-3.1668 1.4478-7.5316-1.7191-9.74906-1.2182-.85305-2.6138-1.26403-3.9962-1.26653-.4752-1.29819-1.3387-2.46904-2.557-3.3221-3.16682-2.21744-7.53164-1.4478-9.74909 1.71903-2.217439 3.16684-1.4478 7.53166 1.71903 9.74906zm1.14716-1.6383c.7461.5225 1.58531.8128 2.43186.8861-.08624-1.515.31728-3.0688 1.25518-4.4082.93786-1.3395 2.25996-2.2501 3.71306-2.68721-.3584-.77043-.9182-1.45974-1.6643-1.98217-2.26206-1.58389-5.37979-1.03415-6.96368 1.22788-1.58389 2.26202-1.03415 5.3798 1.22788 6.9636zm12.289-3.6029c-.7461-.52239-1.5853-.81269-2.4319-.88599.0863 1.51499-.3173 3.06879-1.2552 4.40819-.9379 1.3395-2.2599 2.2501-3.713 2.6872.3584.7704.9182 1.4597 1.6643 1.9822 2.262 1.5838 5.3798 1.0341 6.9637-1.2279 1.5838-2.262 1.0341-5.3798-1.2279-6.9637z" fill="#f4f4f7" fill-rule="evenodd"/></svg>