<svg fill="#f4f4f7" viewBox="0 0 20 20" xmlns="http://www.w3.org/2000/svg"><g clip-rule="evenodd" fill-rule="evenodd"><path d="m6.625 2.655a9 9 0 0 1 12.375 8.345 1 1 0 1 1 -2 0 7 7 0 0 0 -9.625-6.492 1 1 0 1 1 -.75-1.853zm-1.963 2.304a1 1 0 0 1 .088 1.411 6.97 6.97 0 0 0 -1.75 4.63 1 1 0 1 1 -2 0 8.97 8.97 0 0 1 2.25-5.953 1 1 0 0 1 1.412-.088z"/><path d="m5 11a5 5 0 1 1 10 0 1 1 0 1 1 -2 0 3 3 0 1 0 -6 0c0 1.677-.345 3.276-.968 4.729a1 1 0 1 1 -1.838-.789 9.964 9.964 0 0 0 .806-3.94zm8.921 2.012a1 1 0 0 1 .831 1.145 19.86 19.86 0 0 1 -.545 2.436 1 1 0 1 1 -1.92-.558c.207-.713.371-1.445.49-2.192a1 1 0 0 1 1.144-.83z"/><path d="m10 10a1 1 0 0 1 1 1c0 2.236-.46 4.368-1.29 6.304a1 1 0 0 1 -1.838-.789 13.952 13.952 0 0 0 1.128-5.515 1 1 0 0 1 1-1z"/></g></svg>