<svg fill="none" height="24" viewBox="0 0 24 24" width="24" xmlns="http://www.w3.org/2000/svg"><path clip-rule="evenodd" d="m4 1.5c-1.10457 0-2 .89543-2 2v1c0 .05666.00236.11278.00698.16825-1.168839.40986-2.00698 1.52293-2.00698 2.83175v12c0 1.6569 1.34315 3 3 3h18c1.6569 0 3-1.3431 3-3v-12c0-1.65685-1.3431-3-3-3h-9.126c-.4441-1.72523-2.01016-3-3.874-3zm5.73244 3c-.34581-.5978-.99216-1-1.73244-1h-4v1zm-6.73244 2c-.55228 0-1 .44772-1 1v12c0 .5523.44772 1 1 1h18c.5523 0 1-.4477 1-1v-12c0-.55228-.4477-1-1-1z" fill="#f4f4f7" fill-rule="evenodd"/></svg>