<svg fill="none" height="24" viewBox="0 0 24 24" width="24" xmlns="http://www.w3.org/2000/svg"><g fill="#f4f4f7"><path d="m21 5v-2h-18v2z"/><path d="m21 19v2h-18v-2z"/><path clip-rule="evenodd" d="m12.0001 7.37636c-.3981-.02429-.7889.19238-.9676.57568l-3.38096 7.25046c-.23339.5006-.01684 1.0956.48368 1.329.50055.2334 1.09552.0169 1.32895-.4838l.48861-1.0478h4.09452l.4886 1.0478c.2334.5007.8284.7172 1.3289.4838.5006-.2334.7171-.8284.4837-1.329l-3.3809-7.25046c-.1788-.3833-.5695-.59997-.9675-.57568zm1.1146 5.62354h-2.2293l1.1147-2.3904z" fill-rule="evenodd"/></g></svg>