<svg fill="none" height="24" viewBox="0 0 24 24" width="24" xmlns="http://www.w3.org/2000/svg"><g fill="#f4f4f7"><path d="m19 21h2v-18h-2z"/><path d="m5 21h-2v-18h2z"/><path clip-rule="evenodd" d="m9.46416 16.0479.48865-1.048h4.09449l.4886 1.0479c.2334.5006.8284.7171 1.329.4837.5005-.2334.7171-.8284.4836-1.3289l-3.3809-7.25047c-.1788-.38336-.5696-.60014-.9677-.57576-.398-.02423-.7887.19253-.9674.57579l-3.38095 7.25044c-.23341.5006-.01685 1.0955.48369 1.3289s1.09552.0169 1.32892-.4836zm2.53594-5.4383-1.1147 2.3903h2.2293z" fill-rule="evenodd"/></g></svg>