<svg fill="none" height="24" viewBox="0 0 24 24" width="24" xmlns="http://www.w3.org/2000/svg"><g fill="#f4f4f7"><g opacity=".5"><path d="m16 5c.5523 0 1-.44771 1-1 0-.55228-.4477-1-1-1h-8c-.55229 0-1 .44772-1 1s.44771 1 1 1z"/><path d="m16 7c.5523 0 1 .44772 1 1 0 .55229-.4477 1-1 1h-8c-.55229 0-1-.44771-1-1 0-.55228.44771-1 1-1z"/><path d="m17 12c0 .5523-.4477 1-1 1h-8c-.55229 0-1-.4477-1-1s.44771-1 1-1h8c.5523 0 1 .4477 1 1z"/><path d="m16 21c.5523 0 1-.4477 1-1s-.4477-1-1-1h-8c-.55229 0-1 .4477-1 1s.44771 1 1 1z"/></g><path clip-rule="evenodd" d="m21 16c0 .5523-.4477 1-1 1h-16c-.55228 0-1-.4477-1-1s.44772-1 1-1h16c.5523 0 1 .4477 1 1z" fill-rule="evenodd"/></g></svg>