<svg fill="none" height="24" viewBox="0 0 24 24" width="24" xmlns="http://www.w3.org/2000/svg"><g fill="#f4f4f7"><path clip-rule="evenodd" d="m12.9479 3.20946c-.1758-.3771-.5569-.59301-.9482-.57677-.3911-.01603-.7719.19986-.9476.57679l-5.9167 12.68832c-.23341.5005-.01685 1.0955.48369 1.3289s1.09552.0169 1.32892-.4837l1.45068-3.111h7.20261l1.4507 3.111c.2334.5005.8284.7171 1.3289.4837s.7171-.8284.4837-1.3289zm1.7208 8.42254-2.6687-5.723-2.66869 5.723z" fill-rule="evenodd"/><path d="m6 19.3682c-.55228 0-1 .4478-1 1 0 .5523.44772 1 1 1h12c.5523 0 1-.4477 1-1 0-.5522-.4477-1-1-1z"/></g></svg>