<svg fill="none" height="24" viewBox="0 0 24 24" width="24" xmlns="http://www.w3.org/2000/svg"><g fill="#f4f4f7"><path d="m6.5 3h-3.5v3.5h1v-2.5h2.5z"/><path d="m8.5 4v-1h2.5v1z"/><path d="m13 4h2.5v-1h-2.5z"/><path d="m17.5 3v1h2.5v2.5h1v-3.5z"/><path d="m21 8.5h-1v2.5h1z"/><path d="m21 13h-1v2.5h1z"/><path d="m21 17.5h-1v2.5h-2.5v1h3.5z"/><path d="m15.5 21v-1h-2.5v1z"/><path d="m11 21v-1h-2.5v1z"/><path d="m6.5 21v-1h-2.5v-2.5h-1v3.5z"/><path d="m3 15.5h1v-2.5h-1z"/><path d="m3 11h1v-2.5h-1z"/><path d="m11 9.5h-4v-2h10v2h-4v7h-2z"/></g></svg>