<svg fill="none" height="24" viewBox="0 0 24 24" width="24" xmlns="http://www.w3.org/2000/svg"><g fill="#f4f4f7"><path d="m15.4695 11.2929c-.3906-.3905-1.0237-.3905-1.4142 0-.3906.3905-.3906 1.0237 0 1.4142.3905.3905 1.0236.3905 1.4142 0 .3905-.3905.3905-1.0237 0-1.4142z"/><path d="m16.1766 9.17156c.3905-.39053 1.0237-.39053 1.4142 0 .3905.39052.3905 1.02364 0 1.41424-.3905.3905-1.0237.3905-1.4142 0-.3905-.3906-.3905-1.02372 0-1.41424z"/><path d="m19.7121 11.2929c-.3905-.3905-1.0236-.3905-1.4142 0-.3905.3905-.3905 1.0237 0 1.4142.3906.3905 1.0237.3905 1.4142 0 .3906-.3905.3906-1.0237 0-1.4142z"/><path d="m16.1766 13.4142c.3905-.3905 1.0237-.3905 1.4142 0 .3905.3906.3905 1.0237 0 1.4142-.3905.3906-1.0237.3906-1.4142 0-.3905-.3905-.3905-1.0236 0-1.4142z"/><path d="m6 13h-2v-2h2v-2h2v2h2v2h-2v2h-2z"/><path clip-rule="evenodd" d="m7 5c-3.86599 0-7 3.13401-7 7 0 3.866 3.13401 7 7 7h10c3.866 0 7-3.134 7-7 0-3.86599-3.134-7-7-7zm10 2h-10c-2.76142 0-5 2.23858-5 5 0 2.7614 2.23858 5 5 5h10c2.7614 0 5-2.2386 5-5 0-2.76142-2.2386-5-5-5z" fill-rule="evenodd"/></g></svg>