<svg fill="none" height="24" width="24" xmlns="http://www.w3.org/2000/svg">
    <g fill="#f4f4f7">
        <path d="M15.47 11.293a1 1 0 1 0-1.415 1.414 1 1 0 0 0 1.415-1.414zm.707-2.121a1 1 0 1 1 1.414 1.414 1 1 0 0 1-1.414-1.414zm3.535 2.121a1 1 0 1 0-1.414 1.414 1 1 0 0 0 1.414-1.414zm-3.535 2.121a1 1 0 1 1 1.414 1.415 1 1 0 0 1-1.414-1.415zM6 13H4v-2h2V9h2v2h2v2H8v2H6z"/>
        <path clip-rule="evenodd" d="M7 5a7 7 0 0 0 0 14h10a7 7 0 1 0 0-14zm10 2H7a5 5 0 0 0 0 10h10a5 5 0 0 0 0-10z" fill-rule="evenodd"/>
    </g>
</svg>
