<svg fill="none" height="24" viewBox="0 0 24 24" width="24" xmlns="http://www.w3.org/2000/svg"><g fill="#f4f4f7"><path d="m10.9759 9c0 .55228-.4477 1-1.00001 1-.55228 0-1-.44772-1-1 0-.55229.44772-1 1-1 .55231 0 1.00001.44771 1.00001 1z"/><path d="m13.9712 10c.5523 0 1-.44772 1-1 0-.55229-.4477-1-1-1s-1 .44771-1 1c0 .55228.4477 1 1 1z"/><path clip-rule="evenodd" d="m19 20.9999v-10.9999c0-3.86599-3.134-7-7-7-3.86599 0-7 3.13401-7 7v11h2.82846l1.41418-1.4142 1.41426 1.4142h2.6864l1.4141-1.4142 1.4143 1.4142zm-2-10.9999c0-2.76142-2.2386-5-5-5-2.76142 0-5 2.23858-5 5v9l2.24264-2.2427 2.75736 2.7574 2.7574-2.7574 2.2426 2.2426z" fill-rule="evenodd"/></g></svg>