<svg fill="none" height="24" width="24" xmlns="http://www.w3.org/2000/svg">
    <path clip-rule="evenodd" d="M17.535 2.879a3 3 0 0 0-4.242 0l-1.414 1.414c-.06.06-.118.122-.172.186a3.01 3.01 0 0 0-.172-.186l-1.414-1.414A3 3 0 1 0 5.88 7.12l.877.88H1v6h2v8h18v-8h2V8h-6.343l.878-.879a3 3 0 0 0 0-4.242zM14.707 7.12l1.414-1.414a1 1 0 0 0-1.414-1.414l-1.414 1.414a1 1 0 0 0 1.414 1.414zm-4.586-1.414L8.707 4.293a1 1 0 1 0-1.414 1.414l1.414 1.414a1 1 0 1 0 1.414-1.414zM21 10v2H3v-2zm-8.083 4H19v6h-6.083zm-1.834 0v6H5v-6z" fill="#f4f4f7" fill-rule="evenodd"/>
</svg>
