<svg fill="none" height="24" viewBox="0 0 24 24" width="24" xmlns="http://www.w3.org/2000/svg"><path clip-rule="evenodd" d="m17.5354 2.87868c-1.1716-1.17157-3.071-1.17157-4.2426 0l-1.4142 1.41421c-.0603.06028-.1175.12249-.1716.18642-.054-.06392-.1112-.12611-.1715-.18638l-1.4142-1.41422c-1.17155-1.17157-3.07105-1.17157-4.24262 0-1.17157 1.17158-1.17157 3.07107 0 4.24265l.87864.87864h-5.75732v6h2v8h18v-8h2v-6h-6.3433l.8787-.87868c1.1716-1.17157 1.1716-3.07107 0-4.24264zm-2.8284 4.24264 1.4142-1.41421c.3905-.39053.3905-1.02369 0-1.41422-.3905-.39052-1.0237-.39052-1.4142 0l-1.4142 1.41422c-.3905.39052-.3905 1.02369 0 1.41421s1.0237.39052 1.4142 0zm-4.5857-1.41418-1.41419-1.41421c-.39053-.39053-1.02369-.39053-1.41422 0-.39052.39052-.39052 1.02369 0 1.41421l1.41422 1.41422c.39052.39052 1.02369.39052 1.41419 0 .3905-.39053.3905-1.02369 0-1.41422zm10.8787 4.29286v2h-18v-2zm-8.0833 4h6.0833v6h-6.0833zm-1.8333 0v6h-6.0834v-6z" fill="#f4f4f7" fill-rule="evenodd"/></svg>