<svg fill="none" height="24" width="24" xmlns="http://www.w3.org/2000/svg"><g fill="#f4f4f7"><path d="m10 12a1 1 0 1 1 -2 0 1 1 0 0 1 2 0zm5 1a1 1 0 1 0 0-2 1 1 0 0 0 0 2z"/><path clip-rule="evenodd" d="m12.024 2h-.024c-5.523 0-10 4.477-10 10s4.477 10 10 10 10-4.477 10-10c0-5.258-4.058-9.568-9.212-9.97v-.002a9.94 9.94 0 0 0 -.763-.028zm-.024 18a8 8 0 0 0 7.742-10.022 10.016 10.016 0 0 1 -8.982-4.376 7.976 7.976 0 0 1 -5.691 2.4 8 8 0 0 0 6.931 11.998zm-.021-16h.045-.024z" fill-rule="evenodd"/></g></svg>