<svg fill="none" height="24" viewBox="0 0 24 24" width="24" xmlns="http://www.w3.org/2000/svg"><g fill="#f4f4f7"><path d="m10 12c0 .5523-.44772 1-1 1s-1-.4477-1-1 .44772-1 1-1 1 .4477 1 1z"/><path d="m15 13c.5523 0 1-.4477 1-1s-.4477-1-1-1-1 .4477-1 1 .4477 1 1 1z"/><path clip-rule="evenodd" d="m12.0244 2.00003-.0244-.00003c-5.52285 0-10 4.47715-10 10 0 5.5228 4.47715 10 10 10 5.5228 0 10-4.4772 10-10 0-5.25765-4.0575-9.56763-9.212-9.96941l.0006-.00239c-.2557-.01929-.5106-.02859-.7642-.02817zm-.0244 17.99997c4.4183 0 8-3.5817 8-8 0-.6986-.0895-1.3763-.2578-2.02225-3.5825.25355-7.0063-1.45314-8.9817-4.37529-1.44728 1.4764-3.4623 2.3942-5.69171 2.40007-.67977 1.17613-1.06879 2.54137-1.06879 3.99747 0 4.4183 3.58172 8 8 8zm-.0215-15.99997h.0451l-.0236-.00003z" fill-rule="evenodd"/></g></svg>