<svg fill="none" height="24" viewBox="0 0 24 24" width="24" xmlns="http://www.w3.org/2000/svg"><path d="m9 3c-1.10457 0-2 .89543-2 2 0 .74028.4022 1.38663 1 1.73244v10.53516c-.5978.3458-1 .9921-1 1.7324 0 1.1046.89543 2 2 2 .74028 0 1.3866-.4022 1.7324-1h1.2261c2.2091 0 4-1.7909 4-4v-1.2676c.5978-.3458 1-.9921 1-1.7324 0-1.1046-.8954-2-2-2s-2 .8954-2 2c0 .7403.4022 1.3866 1 1.7324v1.2676c0 1.1046-.8954 2-2 2h-1.2261c-.1756-.3036-.4288-.5568-.7324-.7324v-10.53516c.5978-.34581 1-.99216 1-1.73244 0-1.10457-.8954-2-2-2z" fill="#f4f4f7"/></svg>