<svg fill="none" height="24" viewBox="0 0 24 24" width="24" xmlns="http://www.w3.org/2000/svg"><path d="m7 5c0-1.10457.89543-2 2-2 1.1046 0 2 .89543 2 2 0 .74028-.4022 1.38663-1 1.73244v7.30716h1.7915c1.1046 0 2-.8955 2-2v-1.2558c-.6092-.3427-1.0207-.99543-1.0207-1.74425 0-1.10457.8954-2 2-2 1.1045 0 2 .89543 2 2 0 .73168-.393 1.37155-.9793 1.72025v1.2798c0 2.2091-1.7909 4-4 4h-1.7915v1.228c.5978.3458 1 .9921 1 1.7324 0 1.1046-.8954 2-2 2-1.10457 0-2-.8954-2-2 0-.7403.4022-1.3866 1-1.7324v-10.53516c-.5978-.34581-1-.99216-1-1.73244z" fill="#f4f4f7"/></svg>