<svg fill="none" height="24" viewBox="0 0 24 24" width="24" xmlns="http://www.w3.org/2000/svg"><path d="m7 5c0-1.10457.89543-2 2-2 1.1046 0 2 .89543 2 2 0 .34168-.0857.66336-.2367.9447h.5805c2.2091 0 4 1.79086 4 4v1.2797c.5863.3487.9792.9886.9792 1.7203 0 1.1046-.8954 2-2 2s-2-.8954-2-2c0-.7488.4115-1.4015 1.0208-1.7443v-1.2557c0-1.10457-.8955-2-2-2h-1.3438v9.3229c.5978.3458 1 .9921 1 1.7324 0 1.1046-.8954 2-2 2-1.10457 0-2-.8954-2-2 0-.7403.4022-1.3866 1-1.7324v-10.53516c-.5978-.34581-1-.99216-1-1.73244z" fill="#f4f4f7"/></svg>