<svg height="32" viewBox="0 0 32 32" width="32" xmlns="http://www.w3.org/2000/svg"><path d="m23.308 14.459c-1.36 0-2.53.751-3.158 1.853-.164-.012-.325-.026-.496-.026-3.742 0-7.292-2.85-8.588-6.379.779-.67 1.279-1.651 1.279-2.757 0-2.017-1.637-3.654-3.654-3.654s-3.654 1.637-3.654 3.654c0 1.348.738 2.514 1.827 3.148v11.975c-1.089.633-1.827 1.799-1.827 3.147 0 2.016 1.637 3.654 3.654 3.654s3.654-1.638 3.654-3.654c0-1.349-.738-2.514-1.827-3.147v-6.574c2.403 2.542 5.72 4.24 9.135 4.24.182 0 .332-.012.496-.018.632 1.097 1.802 1.845 3.158 1.845 2.016 0 3.654-1.638 3.654-3.654s-1.638-3.654-3.654-3.654zm-14.616 12.789c-1.008 0-1.827-.817-1.827-1.827 0-1.008.819-1.827 1.827-1.827 1.011 0 1.827.819 1.827 1.827 0 1.01-.816 1.827-1.827 1.827zm0-18.271c-1.008 0-1.827-.816-1.827-1.827s.819-1.827 1.827-1.827c1.011 0 1.827.816 1.827 1.827s-.816 1.827-1.827 1.827zm14.616 10.963c-1.008 0-1.827-.817-1.827-1.827s.819-1.827 1.827-1.827c1.01 0 1.827.816 1.827 1.827s-.817 1.827-1.827 1.827z" fill="#f4f4f7"/></svg>