<svg height="32" viewBox="0 0 32 32" width="32" xmlns="http://www.w3.org/2000/svg"><path d="m9.169 5.186c-1.885 0-3.415 1.53-3.415 3.415 0 1.26.691 2.35 1.708 2.943v11.192c-1.016.592-1.708 1.681-1.708 2.942 0 1.884 1.53 3.415 3.415 3.415s3.415-1.531 3.415-3.415c0-1.261-.69-2.35-1.708-2.942v-11.192c1.018-.593 1.708-1.683 1.708-2.943 0-1.885-1.53-3.415-3.415-3.415zm0 22.199c-.942 0-1.708-.764-1.708-1.708 0-.942.765-1.708 1.708-1.708.945 0 1.708.765 1.708 1.708 0 .944-.763 1.708-1.708 1.708zm0-17.076c-.942 0-1.708-.763-1.708-1.708s.765-1.708 1.708-1.708c.945 0 1.708.763 1.708 1.708s-.763 1.708-1.708 1.708zm15.369 12.427v-10.72c0-5.136-5.123-5.123-5.123-5.123h-1.708v-3.415l-5.123 5.123 5.123 5.123v-3.415h1.708c1.506 0 1.708 1.708 1.708 1.708v10.719c-1.017.592-1.708 1.679-1.708 2.942 0 1.884 1.531 3.415 3.415 3.415s3.415-1.531 3.415-3.415c0-1.261-.691-2.35-1.708-2.942zm-1.707 4.649c-.942 0-1.708-.764-1.708-1.708 0-.942.765-1.708 1.708-1.708.944 0 1.708.765 1.708 1.708 0 .944-.764 1.708-1.708 1.708z" fill="#f4f4f7"/></svg>