<svg fill="none" height="24" viewBox="0 0 24 24" width="24" xmlns="http://www.w3.org/2000/svg"><g fill="#f4f4f7"><path clip-rule="evenodd" d="m6.85327 8c0-2.76142 2.23858-5 5.00003-5 2.7614 0 5 2.23858 5 5 0 2.7614-2.2386 5-5 5-2.76145 0-5.00003-2.2386-5.00003-5zm5.00003 3c-1.6569 0-3.00003-1.34315-3.00003-3s1.34313-3 3.00003-3c1.6568 0 3 1.34315 3 3s-1.3432 3-3 3z" fill-rule="evenodd"/><path d="m5 12.1294c1.25216 2.0737 3.4189 3.533 5.9414 3.8192v2.0514h-2.08813v2h6.00003v-2h-1.9119v-2.0734c3.9035-.5308 6.9118-3.8774 6.9118-7.92659 0-1.56363-.4486-3.02249-1.2241-4.25489l-1.7038 1.04814c.5877.92758.9279 2.02743.9279 3.20675 0 3.31369-2.6862 5.99999-6 5.99999-2.18709 0-4.10089-1.1702-5.14939-2.9187z"/></g></svg>