<svg fill="none" height="24" stroke="#f4f4f7" stroke-linecap="round" stroke-linejoin="round" stroke-width="2" width="24" xmlns="http://www.w3.org/2000/svg"><path d="m0 0h24v24h-24z" stroke="none"/><path d="m8 13v-2.5a1.5 1.5 0 0 1 3 0v1.5m0-.5v-1a1.5 1.5 0 0 1 3 0v1.5"/><path d="m17 12v-5.5a1.5 1.5 0 0 1 3 0v9.5a6 6 0 0 1 -6 6h-2 .208a6 6 0 0 1 -5.012-2.7 69.74 69.74 0 0 1 -.196-.3c-.312-.479-1.407-2.388-3.286-5.728a1.5 1.5 0 0 1 .536-2.022 1.867 1.867 0 0 1 2.28.28l1.47 1.47"/><path d="m14 10.5a1.5 1.5 0 0 1 3 0v1.5"/></svg>