<svg fill="none" height="24" viewBox="0 0 24 24" width="24" xmlns="http://www.w3.org/2000/svg"><path clip-rule="evenodd" d="m12.0122 5.57169-1.087-1.087c-2.14786-2.14788-5.63027-2.14788-7.77815 0-2.147888 2.14789-2.147888 5.63031 0 7.77821l8.83885 8.8388.0018-.0018.0263.0263 8.8388-8.8388c2.1479-2.1479 2.1479-5.63029 0-7.77817-2.1478-2.14789-5.6302-2.14789-7.7781 0zm-.0245 12.69981 4.9362-4.9363 1.4508-1.401.0015.0014 1.0624-1.0624c1.3669-1.36685 1.3669-3.58292 0-4.94976-1.3668-1.36683-3.5829-1.36683-4.9497 0l-2.4756 2.4756-.0073-.00724-.001.00107-2.49399-2.49396c-1.36684-1.36684-3.58292-1.36684-4.94975 0-1.36684 1.36683-1.36684 3.58291 0 4.94979l2.53942 2.5394.0018-.0018z" fill="#f4f4f7" fill-rule="evenodd"/></svg>