<svg fill="none" height="24" viewBox="0 0 24 24" width="24" xmlns="http://www.w3.org/2000/svg"><g fill="#f4f4f7"><path d="m17.5 12c0 1.576-.6629 2.9972-1.7251 4-.985.9299-2.3134 1.5-3.7749 1.5s-2.78993-.5701-3.77494-1.5c-1.06217-1.0028-1.72506-2.424-1.72506-4z"/><path clip-rule="evenodd" d="m1 7c0-3.31371 2.68629-6 6-6h10c3.3137 0 6 2.68629 6 6v10c0 3.3137-2.6863 6-6 6h-16zm2.75 5c0-4.55635 3.69365-8.25 8.25-8.25 4.5563 0 8.25 3.69365 8.25 8.25 0 4.5563-3.6937 8.25-8.25 8.25-4.55635 0-8.25-3.6937-8.25-8.25z" fill-rule="evenodd"/></g></svg>