<svg height="32" width="32" xmlns="http://www.w3.org/2000/svg"><path d="m7.73 9.828c0 3.552.097 6.459.226 6.459.097 0 1.776-.517 3.746-1.13 2.68-.904 3.972-1.13 5.361-1.066l1.808.097.097 7.492.065 7.524h3.875v-7.88c0-7.653-.032-7.879-.743-8.945-1.292-1.938-4.618-2.358-8.752-1.13l-1.486.452v-8.332h-4.198v6.459zm11.142-4.101a94.115 94.115 0 0 0 -1.389 2.551c-.065.161.807.258 1.938.258h2.034l1.162-1.873c2.228-3.488 2.261-3.294-.258-3.294h-2.196l-1.292 2.357zm-11.142 19.44c0 2.034.129 3.714.258 3.714s1.066-.839 2.099-1.873l1.841-1.873-1.873-1.841c-1.033-1.001-1.97-1.841-2.099-1.841s-.226 1.679-.226 3.714z" fill="#f4f4f7"/></svg>