<svg fill="none" height="24" viewBox="0 0 24 24" width="24" xmlns="http://www.w3.org/2000/svg"><path clip-rule="evenodd" d="m6 22.8787c-1.65685 0-3-1.3432-3-3v-10.00004c0-.03389.00169-.0674.00498-.10043h-.00498c0-.57596.2288-1.12834.63607-1.53561l6.24261-6.2426c1.17152-1.171575 3.07102-1.171575 4.24262 0l6.2426 6.24262c.4073.40726.6361.95963.6361 1.53559h-.005c.0033.03303.005.06654.005.10043v10.00004c0 1.6568-1.3431 3-3 3zm6.7071-19.46447 6.2929 6.2929v10.17157c0 .5522-.4477 1-1 1h-3v-5c0-1.6569-1.3431-3-3-3s-3 1.3431-3 3v5h-3c-.55228 0-1-.4478-1-1v-10.1715l6.2929-6.29297c.3905-.39052 1.0237-.39052 1.4142 0z" fill="#f4f4f7" fill-rule="evenodd"/></svg>