<svg fill="none" height="24" viewBox="0 0 24 24" width="24" xmlns="http://www.w3.org/2000/svg"><g fill="#f4f4f7"><path d="m10 5c0 .55228-.44772 1-1 1-.55229 0-1-.44772-1-1s.44771-1 1-1c.55228 0 1 .44772 1 1z"/><path d="m9 9c.55228 0 1-.44772 1-1s-.44772-1-1-1c-.55229 0-1 .44772-1 1s.44771 1 1 1z"/><path d="m10 19c0 .5523-.44772 1-1 1-.55229 0-1-.4477-1-1s.44771-1 1-1c.55228 0 1 .4477 1 1z"/><path d="m9 12c.55228 0 1-.4477 1-1s-.44772-1-1-1c-.55229 0-1 .4477-1 1s.44771 1 1 1z"/><path d="m13 5c0 .55228-.4477 1-1 1s-1-.44772-1-1 .4477-1 1-1 1 .44772 1 1z"/><path d="m12 9c.5523 0 1-.44772 1-1s-.4477-1-1-1-1 .44772-1 1 .4477 1 1 1z"/><path d="m13 19c0 .5523-.4477 1-1 1s-1-.4477-1-1 .4477-1 1-1 1 .4477 1 1z"/><path d="m15 6c.5523 0 1-.44772 1-1s-.4477-1-1-1-1 .44772-1 1 .4477 1 1 1z"/><path d="m16 8c0 .55228-.4477 1-1 1s-1-.44772-1-1 .4477-1 1-1 1 .44772 1 1z"/><path d="m15 20c.5523 0 1-.4477 1-1s-.4477-1-1-1-1 .4477-1 1 .4477 1 1 1z"/><path clip-rule="evenodd" d="m8 1c-1.65685 0-3 1.34315-3 3v16c0 1.6569 1.34315 3 3 3h8c1.6569 0 3-1.3431 3-3v-16c0-1.65685-1.3431-3-3-3zm8 2h-8c-.55229 0-1 .44772-1 1v16c0 .5523.44772 1 1 1h8c.5523 0 1-.4477 1-1v-16c0-.55228-.4477-1-1-1z" fill-rule="evenodd"/></g></svg>