<svg fill="none" height="24" viewBox="0 0 24 24" width="24" xmlns="http://www.w3.org/2000/svg"><g clip-rule="evenodd" fill="#f4f4f7" fill-rule="evenodd"><path d="m7 7c-1.65685 0-3 1.34315-3 3 0 1.6569 1.34315 3 3 3s3-1.3431 3-3c0-1.65685-1.34315-3-3-3zm-1 3c0-.55228.44772-1 1-1s1 .44772 1 1c0 .5523-.44772 1-1 1s-1-.4477-1-1z"/><path d="m3 3c-1.65685 0-3 1.34315-3 3v12c0 1.6569 1.34315 3 3 3h18c1.6569 0 3-1.3431 3-3v-12c0-1.65685-1.3431-3-3-3zm18 2h-18c-.55228 0-1 .44772-1 1v12c0 .5523.44772 1 1 1h4.31374l6.87866-6.8786c1.1716-1.1716 3.0711-1.1716 4.2426 0l3.565 3.5649v-9.6863c0-.55228-.4477-1-1-1zm0 14h-10.8578l5.4644-5.4644c.3905-.3906 1.0237-.3906 1.4142 0l4.8862 4.8861c-.1591.3416-.5054.5783-.907.5783z"/></g></svg>