<svg fill="none" height="24" viewBox="0 0 24 24" width="24" xmlns="http://www.w3.org/2000/svg"><path d="m8.12132 9.87868 2.08308 2.08302.0062-.0062 1.4525 1.4525.0062.0062 2.1214 2.1213c1.9526 1.9527 5.1184 1.9527 7.071 0 1.9527-1.9526 1.9527-5.1184 0-7.07103-1.9526-1.95263-5.1184-1.95263-7.071 0l-.7134.71339 1.4142 1.41424.7134-.71342c1.1715-1.17157 3.071-1.17157 4.2426 0 1.1716 1.17162 1.1716 3.07102 0 4.24262s-3.0711 1.1716-4.2426 0l-2.0723-2.0722-.0063.0063-3.59077-3.59093c-1.95262-1.95263-5.11844-1.95263-7.07106 0-1.952625 1.95263-1.952625 5.11843 0 7.07103 1.95262 1.9527 5.11844 1.9527 7.07106 0l.71327-.7133-1.41417-1.4142-.71331.7133c-1.17157 1.1716-3.07107 1.1716-4.24264 0s-1.17157-3.071 0-4.24262c1.17157-1.17157 3.07107-1.17157 4.24264 0z" fill="#f4f4f7"/></svg>