<svg fill="none" height="24" viewBox="0 0 24 24" width="24" xmlns="http://www.w3.org/2000/svg"><g fill="#f4f4f7"><path d="m5 3c-.55228 0-1-.44772-1-1s.44772-1 1-1h14c.5523 0 1 .44772 1 1s-.4477 1-1 1z"/><path d="m9 15c-.55228 0-1-.4477-1-1s.44772-1 1-1h2v-2c0-.5523.4477-1 1-1s1 .4477 1 1v2h2c.5523 0 1 .4477 1 1s-.4477 1-1 1h-2v2c0 .5523-.4477 1-1 1s-1-.4477-1-1v-2z"/><path clip-rule="evenodd" d="m4 14c0 4.4183 3.58172 8 8 8 4.4183 0 8-3.5817 8-8 0-4.41828-3.5817-8-8-8-4.41828 0-8 3.58172-8 8zm8-6c-3.31371 0-6 2.6863-6 6s2.68629 6 6 6c3.3137 0 6-2.6863 6-6s-2.6863-6-6-6z" fill-rule="evenodd"/></g></svg>