<svg fill="none" height="24" viewBox="0 0 24 24" width="24" xmlns="http://www.w3.org/2000/svg"><g fill="#f4f4f7"><path clip-rule="evenodd" d="m12 7c-2.76142 0-5 2.23858-5 5 0 2.7614 2.23858 5 5 5 2.7614 0 5-2.2386 5-5 0-2.76142-2.2386-5-5-5zm-3 5c0 1.6569 1.3431 3 3 3s3-1.3431 3-3-1.3431-3-3-3-3 1.3431-3 3z" fill-rule="evenodd"/><path d="m18 5c-.5523 0-1 .44772-1 1s.4477 1 1 1 1-.44772 1-1-.4477-1-1-1z"/><path clip-rule="evenodd" d="m5 1c-2.20914 0-4 1.79086-4 4v14c0 2.2091 1.79086 4 4 4h14c2.2091 0 4-1.7909 4-4v-14c0-2.20914-1.7909-4-4-4zm14 2h-14c-1.10457 0-2 .89543-2 2v14c0 1.1046.89543 2 2 2h14c1.1046 0 2-.8954 2-2v-14c0-1.10457-.8954-2-2-2z" fill-rule="evenodd"/></g></svg>