<svg fill="none" height="24" viewBox="0 0 24 24" width="24" xmlns="http://www.w3.org/2000/svg"><g clip-rule="evenodd" fill="#f4f4f7" fill-rule="evenodd"><path d="m13 12.8293c1.1652-.4118 2-1.5231 2-2.8293 0-1.65685-1.3431-3-3-3s-3 1.34315-3 3c0 1.3062.83481 2.4175 2 2.8293v3.1707c0 .5523.4477 1 1 1s1-.4477 1-1zm-2-2.8293c0 .5523.4477 1 1 1s1-.4477 1-1c0-.55228-.4477-1-1-1s-1 .44772-1 1z"/><path d="m12 2c-5.52285 0-10 4.47715-10 10 0 5.5228 4.47715 10 10 10 5.5228 0 10-4.4772 10-10 0-5.52285-4.4772-10-10-10zm-8 10c0 4.4183 3.58172 8 8 8 4.4183 0 8-3.5817 8-8 0-4.41828-3.5817-8-8-8-4.41828 0-8 3.58172-8 8z"/></g></svg>