<svg height="210mm" viewBox="0 0 210 210" width="210mm"
    xmlns="http://www.w3.org/2000/svg">
    <g fill="#f4f4f7" stroke="#f4f4f7">
        <path d="m68.012443 50.440268 7.23865 6.93515h74.557177v6.90236h.0236v36.967472h-.0236v6.90097h-13.40236v7.82024l7.42251 7.11115v-7.99439h7.37999c3.05945 0 5.523-2.31511 5.523-5.19039v-8.11357-38.035022-8.11358c0-2.87529-2.46355-5.19039-5.523-5.19039zm22.76476 10.56834v9.85278l-.0853-11.74223c-.006-.77916.0854-9.69831.0854 1.88945zm14.354037 0v21.76723c0 .3897-.0133-23.65668-.0133-23.65668-.003-.77917.0133 1.11027.0133 1.88945zm14.16897 0s.0123 22.5464.0123 21.76723v-23.65668c0-.77918-.0123 1.11027-.0123 1.88945zm14.67121-1.88945v23.65668zm-79.243997 13.15162v28.974472 7.69875.94883c0 2.87528 2.46353 5.19039 5.52299 5.19039h7.37862v19.20483c0 2.40953 1.91896 4.34781 4.30115 4.34781h12.20362v15.85713c0 1.53859 1.09494 2.77628 2.45477 2.77628h38.279847c1.35978 0 2.45523-1.23769 2.45523-2.77628v-12.66972l-3.48075-3.33477v13.70078c0 1.29059-.91919 2.32865-2.05981 2.32865h-32.109207c-1.14061 0-2.05842-1.03806-2.05842-2.32865v-18.24769h-.25129v-2.81369h-8.84714c-1.91794 0-3.46272-1.56397-3.46272-3.50384v-9.42134h-.002v-10.0565h-13.40189v-6.90097h-.0236v-22.364522z" stroke-linejoin="round" stroke-width="4.7303"/>
        <path d="m40.371393 18.274978 7.66672 7.32203h127.474377c4.69454 0 8.4739 3.77938 8.4739 8.4739v121.354872l7.32204 6.99234v-134.876522c0-5.13378-4.13287-9.26662-9.26662-9.26662zm-20.22202 14.56758v147.324862c0 5.13379 4.13393 9.26662 9.26765 9.26662h152.624787c.64486 0 1.27396-.0654 1.88102-.18965l-7.51737-7.17889c-.29346.0305-.59118.0465-.89297.0465h-139.566147c-4.69448 0-8.4739-3.77936-8.4739-8.4739v-133.802162z" stroke-linejoin="round" stroke-width="7.9375"/>
        <path d="m1.7417132 4.0598289v16.4899491l191.7955168 187.339462h14.71745l-.004-1.57147z" stroke-width="2.82649"/>
    </g>
</svg>