<svg fill="none" height="24" viewBox="0 0 24 24" width="24" xmlns="http://www.w3.org/2000/svg"><path clip-rule="evenodd" d="m16.9307 4.01587h-2.1652c-.4073-1.17348-1.5227-2.01587-2.8348-2.01587-1.3122 0-2.42757.84239-2.83489 2.01587h-2.16515c-1.65685 0-3 1.34314-3 3v2.19618c-1.12883.43078-1.93066 1.52365-1.93066 2.80385 0 1.2801.80183 2.373 1.93066 2.8038v2.1962c0 1.6568 1.34315 3 3 3h2.15401c.3978 1.1905 1.52173 2.0486 2.84603 2.0486s2.4482-.8581 2.846-2.0486h2.154c1.6568 0 3-1.3432 3-3v-2.1713c1.1643-.4124 1.9983-1.5232 1.9983-2.8287 0-1.3056-.834-2.4164-1.9983-2.82872v-2.17131c0-1.65686-1.3432-3-3-3zm-11.00004 10.85283v2.1472c0 .5523.44772 1 1 1h2.18836c.42524-1.1398 1.52368-1.9514 2.81168-1.9514s2.3864.8116 2.8116 1.9514h2.1884c.5522 0 1-.4477 1-1v-2.1701c-1.1661-.4114-2.0017-1.5231-2.0017-2.8299 0-1.3069.8356-2.41858 2.0017-2.82993v-2.1701c0-.55229-.4478-1-1-1h-2.1764c-.4163 1.15689-1.5234 1.98413-2.8236 1.98413-1.3003 0-2.40739-.82724-2.82367-1.98413h-2.17637c-.55228 0-1 .44771-1 1v2.14715c1.20127.39163 2.06934 1.52088 2.06934 2.85288s-.86807 2.4612-2.06934 2.8528z" fill="#f4f4f7" fill-rule="evenodd"/></svg>