<svg fill="none" height="24" viewBox="0 0 24 24" width="24" xmlns="http://www.w3.org/2000/svg"><g fill="#f4f4f7"><path d="m3.03509 12.9431c.20736 1.9796 1.06963 3.9037 2.58679 5.4209 1.51716 1.5171 3.44122 2.3794 5.42092 2.5868z"/><path d="m3 11.4938 9.4921 9.492c.8055-.0451 1.606-.1979 2.3783-.4585l-11.4119-11.41182c-.26057.77223-.4134 1.57282-.4585 2.37832z"/><path d="m3.86722 8.10999 12.00858 12.00861c.623-.2985 1.2188-.6728 1.7735-1.123l-12.65909-12.65901c-.45015.55466-.82448 1.15041-1.12299 1.7734z"/><path d="m5.66301 5.59517c3.5179-3.4738 9.18579-3.46017 12.68679.04087s3.5147 9.16886.0409 12.68676z"/></g></svg>