<svg fill="none" height="24" viewBox="0 0 24 24" width="24" xmlns="http://www.w3.org/2000/svg"><g fill="#f4f4f7"><path d="m14.8284 12 1.4142 1.4142 2.8284-2.8284c1.5621-1.56215 1.5621-4.09481 0-5.6569-1.562-1.5621-4.0947-1.5621-5.6568 0l-2.8284 2.82842 1.4142 1.41422 2.8284-2.82843c.7811-.78105 2.0474-.78105 2.8284 0 .7811.78105.7811 2.04738 0 2.82843z"/><path d="m12 14.8285 1.4142 1.4142-2.8284 2.8284c-1.56208 1.5621-4.09474 1.5621-5.65684 0s-1.5621-4.0947 0-5.6568l2.82843-2.8285 1.41421 1.4142-2.82843 2.8285c-.78105.781-.78105 2.0473 0 2.8284.78105.781 2.04738.781 2.82843 0z"/><path d="m14.8285 10.5857c.3905-.3905.3905-1.02371 0-1.41423-.3906-.39053-1.0237-.39053-1.4143 0l-4.2426 4.24263c-.39053.3905-.39053 1.0237 0 1.4142.39052.3905 1.0237.3905 1.4142 0z"/></g></svg>