<svg fill="none" height="24" viewBox="0 0 24 24" width="24" xmlns="http://www.w3.org/2000/svg"><path clip-rule="evenodd" d="m20 4h-16c-.55229 0-1 .44772-1 1v14c0 .5523.44772 1 1 1h16c.5523 0 1-.4477 1-1v-14c0-.55229-.4477-1-1-1zm-16-2c-1.65685 0-3 1.34315-3 3v14c0 1.6569 1.34315 3 3 3h16c1.6569 0 3-1.3431 3-3v-14c0-1.65685-1.3431-3-3-3zm2 5h2v2h-2zm5 0c-.5523 0-1 .44772-1 1s.4477 1 1 1h6c.5523 0 1-.44772 1-1s-.4477-1-1-1zm-3 4h-2v2h2zm2 1c0-.5523.4477-1 1-1h6c.5523 0 1 .4477 1 1s-.4477 1-1 1h-6c-.5523 0-1-.4477-1-1zm-2 3h-2v2h2zm2 1c0-.5523.4477-1 1-1h6c.5523 0 1 .4477 1 1s-.4477 1-1 1h-6c-.5523 0-1-.4477-1-1z" fill="#f4f4f7" fill-rule="evenodd"/></svg>