<svg fill="none" height="24" width="24" xmlns="http://www.w3.org/2000/svg"><g fill="#f4f4f7"><path d="m12.98 21.953a10.12 10.12 0 0 1 -1.96 0l.193-1.991a8.1 8.1 0 0 0 1.574 0zm-3.884-.381.58-1.914a7.947 7.947 0 0 1 -1.446-.6l-.945 1.763c.573.307 1.179.56 1.811.75zm-3.44-1.842 1.27-1.545a8.062 8.062 0 0 1 -1.111-1.11l-1.545 1.268c.415.506.88.97 1.386 1.386zm-2.477-3.015 1.763-.944a7.938 7.938 0 0 1 -.6-1.447l-1.914.58a9.93 9.93 0 0 0 .751 1.81zm-1.132-3.735 1.991-.193a8.12 8.12 0 0 1 0-1.574l-1.99-.193a10.123 10.123 0 0 0 0 1.96zm.381-3.884 1.914.58c.153-.505.355-.989.6-1.446l-1.763-.945a9.938 9.938 0 0 0 -.75 1.811zm1.842-3.44 1.545 1.27a8.06 8.06 0 0 1 1.11-1.111l-1.268-1.545c-.506.415-.97.88-1.386 1.386zm3.015-2.477.945 1.763a7.938 7.938 0 0 1 1.446-.6l-.58-1.914a9.938 9.938 0 0 0 -1.81.751zm3.735-1.132a10.123 10.123 0 0 1 1.96 0l-.193 1.991a8.12 8.12 0 0 0 -1.574 0zm3.884.381-.58 1.914c.505.153.989.355 1.447.6l.944-1.763a9.936 9.936 0 0 0 -1.811-.75zm3.44 1.842-1.27 1.545c.406.333.778.705 1.111 1.11l1.545-1.269a10.06 10.06 0 0 0 -1.386-1.386zm2.477 3.015-1.763.945c.245.457.447.941.6 1.446l1.914-.58a9.937 9.937 0 0 0 -.751-1.81zm1.132 3.735-1.991.193a8.1 8.1 0 0 1 0 1.574l1.99.194a10.123 10.123 0 0 0 0-1.962zm-.381 3.884-1.914-.58a7.947 7.947 0 0 1 -.6 1.447l1.763.944c.307-.573.56-1.179.75-1.811zm-1.842 3.44-1.545-1.27a8.063 8.063 0 0 1 -1.11 1.111l1.269 1.545c.506-.415.97-.88 1.386-1.386zm-3.015 2.477-.944-1.763a7.947 7.947 0 0 1 -1.447.6l.58 1.914a9.935 9.935 0 0 0 1.81-.751z"/><g clip-rule="evenodd" fill-rule="evenodd"><path d="m9 12a3 3 0 1 1 6 0 3 3 0 0 1 -6 0zm3 1a1 1 0 1 1 0-2 1 1 0 0 1 0 2z"/><path d="m12 6a6 6 0 1 0 0 12 6 6 0 0 0 0-12zm-4 6a4 4 0 1 0 8 0 4 4 0 0 0 -8 0z"/></g></g></svg>