<svg fill="none" height="24" viewBox="0 0 24 24" width="24" xmlns="http://www.w3.org/2000/svg"><g fill="#f4f4f7"><path d="m12.9805 21.9525c-.3226.0314-.6497.0475-.9805.0475s-.6579-.0161-.9806-.0475l.1938-1.9906c.2583.0252.5207.0381.7868.0381s.5285-.0129.7868-.0381z"/><path d="m9.09617 21.5719.57991-1.9141c-.50484-.153-.98883-.3547-1.44657-.5998l-.94432 1.763c.57261.3067 1.17855.5593 1.81098.7509z"/><path d="m5.65597 19.7304 1.26965-1.5453c-.40542-.3331-.77761-.7053-1.11071-1.1107l-1.54531 1.2696c.41579.5061.8803.9706 1.38637 1.3864z"/><path d="m3.17901 16.7148 1.76303-.9443c-.24518-.4578-.44688-.9417-.59983-1.4466l-1.91408.5799c.19161.6325.44418 1.2384.75088 1.811z"/><path d="m2.04746 12.9805 1.9906-.1937c-.02514-.2583-.03806-.5207-.03806-.7868s.01292-.5285.03806-.7868l-1.9906-.1937c-.03139.3226-.04746.6497-.04746.9805s.01607.6579.04746.9805z"/><path d="m2.42813 9.09617 1.91408.57991c.15296-.50484.35465-.98883.59983-1.44657l-1.76303-.94432c-.3067.57261-.55927 1.17855-.75088 1.81098z"/><path d="m4.2696 5.65597 1.54531 1.26965c.3331-.40542.70529-.77761 1.11071-1.11071l-1.26965-1.54531c-.50606.41579-.97058.8803-1.38637 1.38637z"/><path d="m7.2852 3.17901.94431 1.76303c.45775-.24518.94173-.44688 1.44657-.59983l-.57991-1.91408c-.63243.19161-1.23837.44418-1.81097.75088z"/><path d="m11.0195 2.04746c.3226-.03139.6497-.04746.9805-.04746s.6579.01607.9805.04746l-.1937 1.9906c-.2583-.02514-.5207-.03806-.7868-.03806s-.5285.01292-.7868.03806z"/><path d="m14.9038 2.42813-.5799 1.91408c.5049.15296.9888.35465 1.4466.59983l.9443-1.76303c-.5726-.3067-1.1785-.55927-1.811-.75088z"/><path d="m18.344 4.2696-1.2696 1.54531c.4054.3331.7776.70529 1.1107 1.11071l1.5453-1.26965c-.4158-.50606-.8803-.97058-1.3864-1.38637z"/><path d="m20.821 7.2852-1.763.94431c.2451.45775.4468.94173.5998 1.44657l1.9141-.57991c-.1916-.63243-.4442-1.23837-.7509-1.81097z"/><path d="m21.9525 11.0195-1.9906.1937c.0252.2583.0381.5207.0381.7868s-.0129.5285-.0381.7868l1.9906.1938c.0314-.3227.0475-.6498.0475-.9806s-.0161-.6579-.0475-.9805z"/><path d="m21.5719 14.9038-1.9141-.5799c-.153.5049-.3547.9888-.5998 1.4466l1.763.9443c.3067-.5726.5593-1.1785.7509-1.811z"/><path d="m19.7304 18.344-1.5453-1.2696c-.3331.4054-.7053.7776-1.1107 1.1107l1.2696 1.5453c.5061-.4158.9706-.8803 1.3864-1.3864z"/><path d="m16.7148 20.821-.9443-1.763c-.4578.2451-.9417.4468-1.4466.5998l.5799 1.9141c.6325-.1916 1.2384-.4442 1.811-.7509z"/><g clip-rule="evenodd" fill-rule="evenodd"><path d="m9 12c0-1.6569 1.3431-3 3-3s3 1.3431 3 3-1.3431 3-3 3-3-1.3431-3-3zm3 1c-.5523 0-1-.4477-1-1s.4477-1 1-1 1 .4477 1 1-.4477 1-1 1z"/><path d="m12 6c-3.31371 0-6 2.68629-6 6 0 3.3137 2.68629 6 6 6 3.3137 0 6-2.6863 6-6 0-3.31371-2.6863-6-6-6zm-4 6c0 2.2091 1.79086 4 4 4 2.2091 0 4-1.7909 4-4 0-2.20914-1.7909-4-4-4-2.20914 0-4 1.79086-4 4z"/></g></g></svg>