<svg fill="none" height="24" viewBox="0 0 24 24" width="24" xmlns="http://www.w3.org/2000/svg"><g fill="#f4f4f7"><path d="m13 4.00894c.0002-.55229-.4473-1.00018-.9996-1.0004-.5523-.00021-1.0002.44733-1.0004.99961l-.0032 8.00345c-.0002.5523.4474 1.0002.9997 1.0004.5522.0002 1.0001-.4473 1.0003-.9996z"/><path d="m4 12.9917c0-2.2091.89541-4.2091 2.34308-5.65682l1.41422 1.41422c-1.08575 1.08578-1.7573 2.5858-1.7573 4.2426 0 3.3137 2.68629 6 6 6 3.3137 0 6-2.6863 6-6 0-1.6569-.6716-3.15688-1.7574-4.24267l1.4142-1.41422c1.4478 1.44772 2.3432 3.44769 2.3432 5.65689 0 4.4183-3.5817 8-8 8-4.41828 0-8-3.5817-8-8z"/></g></svg>