<svg fill="none" height="24" viewBox="0 0 24 24" width="24" xmlns="http://www.w3.org/2000/svg"><path clip-rule="evenodd" d="m3.00977 5.83789c0-.55228.44771-1 1-1h15.99023c.5523 0 1 .44772 1 1v11.32421c0 1.1046-.8954 2-2 2h-14c-1.10457 0-2-.8954-2-2v-10.99999c0-.04762.00333-.09446.00977-.14031zm1.99023 2.22376v9.10045h14v-9.10011l-4.8785 4.87851c-1.1716 1.1716-3.0711 1.1716-4.24265 0zm1.57232-1.25611h10.85568l-4.7207 4.72076c-.3905.3905-1.0237.3905-1.4142 0z" fill="#f4f4f7" fill-rule="evenodd"/></svg>