<svg fill="none" height="24" viewBox="0 0 24 24" width="24" xmlns="http://www.w3.org/2000/svg"><path clip-rule="evenodd" d="m3.05002 10.0151c-.25824-.70802-.10334-1.53277.46472-2.10083l6.36396-6.36396c1.1716-1.171572 3.0711-1.171572 4.2426 0l6.364 6.36396c.5681.56812.723 1.393.4646 2.10113.0325.0985.05.2037.05.3131v11c0 1.1046-.8954 2-2 2h-13.99996c-1.10457 0-2-.8954-2-2v-11c0-.1095.01758-.2148.05008-.3134zm1.87894-.68662 6.36394-6.36396c.3905-.39052 1.0237-.39052 1.4142 0l6.364 6.36396h-.0303v.03032l-6.3337 6.3336c-.3905.3906-1.0237.3906-1.4142 0zm14.07094 2.89962-4.8786 4.8786c-1.1715 1.1715-3.071 1.1715-4.2426 0l-4.87876-4.8788v9.1006h13.99996z" fill="#f4f4f7" fill-rule="evenodd"/></svg>