<svg fill="none" height="24" viewBox="0 0 24 24" width="24" xmlns="http://www.w3.org/2000/svg"><g fill="#f4f4f7"><path d="m16.2426 6.34319c.3905-.39053 1.0237-.39053 1.4142 0 .3906.39052.3906 1.02369 0 1.41421l-9.89946 9.8995c-.39053.3905-1.02369.3905-1.41421 0-.39053-.3905-.39053-1.0237 0-1.4142z"/><path d="m9.87866 9.87872c-.78105.78108-2.04738.78108-2.82843 0-.78105-.78105-.78105-2.04738 0-2.82843s2.04738-.78105 2.82843 0c.78104.78105.78104 2.04738 0 2.82843z"/><path d="m14.1213 16.9498c.781.781 2.0474.781 2.8284 0 .7811-.7811.7811-2.0474 0-2.8284-.781-.7811-2.0474-.7811-2.8284 0-.781.781-.781 2.0473 0 2.8284z"/></g></svg>