<svg fill="none" height="24" viewBox="0 0 24 24" width="24" xmlns="http://www.w3.org/2000/svg"><g fill="#f4f4f7"><path d="m5.6361 20.364c-1.62872-1.6287-2.6361-3.8787-2.6361-6.364 0-4.97056 4.02944-9 9-9 4.9706 0 9 4.02944 9 9 0 2.4853-1.0074 4.7353-2.636 6.3639l1.4142 1.4143c1.9906-1.9907 3.2218-4.7406 3.2218-7.7782 0-6.07513-4.9249-11-11-11-6.07513 0-11 4.92487-11 11 0 3.0376 1.23124 5.7876 3.22189 7.7782z"/><path d="m16.9498 18.9497c1.2667-1.2667 2.0502-3.0167 2.0502-4.9497 0-3.866-3.134-7-7-7-3.86599 0-7 3.134-7 7 0 1.933.78353 3.6831 2.05031 4.9498l1.41422-1.4142c-.90486-.9048-1.46453-2.1549-1.46453-3.5356 0-2.7614 2.23858-5 5-5 2.7614 0 5 2.2386 5 5 0 1.3807-.5596 2.6307-1.4644 3.5355z"/><path d="m14.1213 16.1213c.5429-.5429.8787-1.2929.8787-2.1213 0-1.6569-1.3431-3-3-3s-3 1.3431-3 3c0 .8285.33581 1.5785.87874 2.1214l1.41426-1.4142c-.181-.181-.293-.431-.293-.7072 0-.5523.4477-1 1-1s1 .4477 1 1c0 .2761-.1119.5261-.2929.7071z"/></g></svg>