<svg fill="none" height="24" viewBox="0 0 24 24" width="24" xmlns="http://www.w3.org/2000/svg"><g fill="#f4f4f7"><path d="m22 18.0048c0 .5496-.4456.9952-.9952.9952h-8.0096c-.5496 0-.9952-.4456-.9952-.9952s.4456-.9952.9952-.9952h8.0096c.5496 0 .9952.4456.9952.9952z"/><path d="m22 12.0002c0 .5497-.4456.9952-.9952.9952h-18.00961c-.54963 0-.99519-.4455-.99519-.9952 0-.5496.44556-.9951.99519-.9951h18.00961c.5496 0 .9952.4455.9952.9951z"/><path d="m21.0048 6.99039c.5496 0 .9952-.44557.9952-.9952s-.4456-.99519-.9952-.99519h-12.00961c-.54963 0-.99519.44556-.99519.99519s.44556.9952.99519.9952z"/></g></svg>