<svg fill="none" height="24" viewBox="0 0 24 24" width="24" xmlns="http://www.w3.org/2000/svg"><g fill="#f4f4f7"><path d="m2 5.99519c0-.54963.44556-.99519.99519-.99519h8.00961c.5496 0 .9952.44556.9952.99519s-.4456.9952-.9952.9952h-8.00961c-.54963 0-.99519-.44557-.99519-.9952z"/><path d="m2 11.9998c0-.5497.44556-.9952.99519-.9952h18.00961c.5496 0 .9952.4455.9952.9952 0 .5496-.4456.9951-.9952.9951h-18.00961c-.54963 0-.99519-.4455-.99519-.9951z"/><path d="m2.99519 17.0096c-.54963 0-.99519.4456-.99519.9952s.44556.9952.99519.9952h12.00961c.5496 0 .9952-.4456.9952-.9952s-.4456-.9952-.9952-.9952z"/></g></svg>