<svg fill="none" height="24" viewBox="0 0 24 24" width="24" xmlns="http://www.w3.org/2000/svg"><g fill="#f4f4f7"><path d="m8.01562 6.98193c-.55228 0-1 .45092-1 1.0032 0 .55229.44772 1.0032 1.00001 1.0032h7.95027c.5523 0 1-.45091 1-1.0032 0-.55228-.4477-1.0032-1-1.0032z"/><path d="m7.01562 12c0-.5523.44772-1.0032 1-1.0032h7.95028c.5523 0 1 .4509 1 1.0032s-.4477 1.0032-1 1.0032h-7.95027c-.55229 0-1.00001-.4509-1.00001-1.0032z"/><path d="m8.0249 15.0122c-.55228 0-1 .4509-1 1.0032s.44772 1.0032 1 1.0032h7.9503c.5523 0 1-.4509 1-1.0032s-.4477-1.0032-1-1.0032z"/><path clip-rule="evenodd" d="m3 6c0-1.65685 1.34315-3 3-3h12c1.6569 0 3 1.34315 3 3v12c0 1.6569-1.3431 3-3 3h-12c-1.65685 0-3-1.3431-3-3zm3-1h12c.5523 0 1 .44772 1 1v12c0 .5523-.4477 1-1 1h-12c-.55228 0-1-.4477-1-1v-12c0-.55228.44772-1 1-1z" fill-rule="evenodd"/></g></svg>