<svg fill="none" height="24" width="24" xmlns="http://www.w3.org/2000/svg"><g fill="#f4f4f7"><path d="m8.016 6.982a1.003 1.003 0 0 0 0 2.006h7.95a1.003 1.003 0 0 0 0-2.006zm-1 5.018c0-.552.447-1.003 1-1.003h7.95a1.003 1.003 0 0 1 0 2.006h-7.95c-.553 0-1-.45-1-1.003zm1.009 3.012a1.003 1.003 0 0 0 0 2.007h7.95a1.003 1.003 0 0 0 0-2.007z"/><path clip-rule="evenodd" d="m3 6a3 3 0 0 1 3-3h12a3 3 0 0 1 3 3v12a3 3 0 0 1 -3 3h-12a3 3 0 0 1 -3-3zm3-1h12a1 1 0 0 1 1 1v12a1 1 0 0 1 -1 1h-12a1 1 0 0 1 -1-1v-12a1 1 0 0 1 1-1z" fill-rule="evenodd"/></g></svg>