<svg fill="none" height="24" viewBox="0 0 24 24" width="24" xmlns="http://www.w3.org/2000/svg"><g fill="#f4f4f7"><path d="m7 14c1.10457 0 2-.8954 2-2s-.89543-2-2-2-2 .8954-2 2 .89543 2 2 2z"/><path d="m19 12c0 1.1046-.8954 2-2 2s-2-.8954-2-2 .8954-2 2-2 2 .8954 2 2z"/><path clip-rule="evenodd" d="m7 5c-3.86599 0-7 3.13401-7 7 0 3.866 3.13401 7 7 7h10c3.866 0 7-3.134 7-7 0-3.86599-3.134-7-7-7zm10 3h-10c-2.20914 0-4 1.79086-4 4 0 2.2091 1.79086 4 4 4h10c2.2091 0 4-1.7909 4-4 0-2.20914-1.7909-4-4-4z" fill-rule="evenodd"/></g></svg>