<svg fill="none" height="24" viewBox="0 0 24 24" width="24" xmlns="http://www.w3.org/2000/svg"><g fill="#f4f4f7"><path d="m18 16.6341c0 .5523-.4477 1-1 1s-1-.4477-1-1c0-.5522.4477-1 1-1s1 .4478 1 1z"/><path clip-rule="evenodd" d="m5.86603 3.13414c-.4783-.27614-1.08989-.11227-1.36603.36603-.27614.47829-.11227 1.08988.36603 1.36602l13.45447 7.76791h-16.3205v4c0 2.2092 1.79086 4 4 4h12c2.2091 0 4-1.7908 4-4v-4zm14.13397 11.49996h-16v2c0 1.1046.89543 2 2 2h12c1.1046 0 2-.8954 2-2z" fill-rule="evenodd"/></g></svg>