<svg fill="none" height="24" viewBox="0 0 24 24" width="24" xmlns="http://www.w3.org/2000/svg"><g fill="#f4f4f7"><path d="m6.77857 6.13915c.95033-1.35722 2.82096-1.68706 4.17823-.73673 1.3572.95033 1.687 2.82097.7367 4.17819l-5.73579 8.19149c-.95033 1.3572-2.82097 1.6871-4.17818.7368-1.357218-.9504-1.6870616-2.821-.73673-4.1782z"/><path d="m15.2678 6.22811c.9504-1.35721 2.821-1.68706 4.1782-.73673 1.3572.95034 1.6871 2.82097.7367 4.17819l-5.7357 8.19153c-.9504 1.3572-2.821 1.687-4.1782.7367-1.35722-.9503-1.68707-2.821-.73673-4.1782z"/><path d="m20.5 18.8596c1.6569 0 3-1.3431 3-3 0-1.6568-1.3431-3-3-3s-3 1.3432-3 3c0 1.6569 1.3431 3 3 3z"/></g></svg>