<svg fill="none" height="24" viewBox="0 0 24 24" width="24" xmlns="http://www.w3.org/2000/svg"><path clip-rule="evenodd" d="m12 8.95439 5.6352-1.12703c1.375-.27501 2.3648-1.48235 2.3648-2.88462 0-1.85637-1.6983-3.24868-3.5187-2.88461l-4.0696.81393c-1.4023.28046-2.4117 1.5117-2.4117 2.94174v8.0757c-.58835-.3403-1.27143-.5351-2-.5351-2.20914 0-4 1.7909-4 4s1.79086 4 4 4c2.2091 0 4-1.7909 4-4zm4.8736-4.9351-4.0697.81393c-.4674.09349-.8039.5039-.8039.98058v1.10099l5.2429-1.04859c.4402-.08804.7571-.47455.7571-.92346 0-.59428-.5437-1.04-1.1264-.92345zm-6.8736 13.33511c0-1.1046-.89543-2-2-2s-2 .8954-2 2 .89543 2 2 2 2-.8954 2-2z" fill="#f4f4f7" fill-rule="evenodd"/></svg>