<svg fill="none" height="24" viewBox="0 0 24 24" width="24" xmlns="http://www.w3.org/2000/svg"><path clip-rule="evenodd" d="m22 6.00086c0-2.45154-2.1852-4.32626-4.6082-3.95349l-7 1.07693c-1.95136.3002-3.3918 1.9792-3.3918 3.95348v8.76292c-.45463-.2159-.9632-.3368-1.5-.3368-1.933 0-3.5 1.567-3.5 3.5s1.567 3.5 3.5 3.5c1.93296 0 3.49994-1.5669 3.5-3.4999v-11.92622c0-.98714.72022-1.82664 1.6959-1.97674l7-1.07692c1.2115-.18639 2.3041.75097 2.3041 1.97674v6.83984c-.4546-.2159-.9632-.3368-1.5-.3368-1.933 0-3.5 1.567-3.5 3.5s1.567 3.5 3.5 3.5 3.4999-1.5669 3.5-3.4999zm-2 10.00304c0-.8284-.6716-1.5-1.5-1.5s-1.5.6716-1.5 1.5.6716 1.5 1.5 1.5 1.4999-.6716 1.5-1.5zm-13 3c0-.8284-.67157-1.5-1.5-1.5s-1.5.6716-1.5 1.5.67157 1.5 1.5 1.5c.82839 0 1.49994-.6716 1.5-1.5z" fill="#f4f4f7" fill-rule="evenodd"/></svg>