<svg fill="none" height="24" viewBox="0 0 24 24" width="24" xmlns="http://www.w3.org/2000/svg"><g fill="#f4f4f7"><path clip-rule="evenodd" d="m12 18.939c2.2091 0 4-1.7908 4-4 0-2.2091-1.7909-4-4-4-2.20914 0-4 1.7909-4 4 0 2.2092 1.79086 4 4 4zm0-2c1.1046 0 2-.8954 2-2 0-1.1045-.8954-2-2-2s-2 .8955-2 2c0 1.1046.8954 2 2 2z" fill-rule="evenodd"/><path d="m12 9.04401c1.1046 0 2-.89543 2-2s-.8954-2-2-2-2 .89543-2 2 .8954 2 2 2z"/><path clip-rule="evenodd" d="m7 1c-1.65685 0-3 1.34315-3 3v16c0 1.6569 1.34315 3 3 3h10c1.6569 0 3-1.3431 3-3v-16c0-1.65685-1.3431-3-3-3zm10 2h-10c-.55228 0-1 .44772-1 1v16c0 .5523.44772 1 1 1h10c.5523 0 1-.4477 1-1v-16c0-.55228-.4477-1-1-1z" fill-rule="evenodd"/></g></svg>