<svg fill="none" height="24" width="24" xmlns="http://www.w3.org/2000/svg"><g fill="#f4f4f7"><path d="m6 6a1 1 0 0 1 1-1h10a1 1 0 1 1 0 2h-10a1 1 0 0 1 -1-1zm0 4a1 1 0 0 1 1-1h10a1 1 0 1 1 0 2h-10a1 1 0 0 1 -1-1zm1 3a1 1 0 1 0 0 2h10a1 1 0 1 0 0-2zm-1 5a1 1 0 0 1 1-1h4a1 1 0 1 1 0 2h-4a1 1 0 0 1 -1-1z"/><path clip-rule="evenodd" d="m2 4a3 3 0 0 1 3-3h14a3 3 0 0 1 3 3v16a3 3 0 0 1 -3 3h-14a3 3 0 0 1 -3-3zm3-1h14a1 1 0 0 1 1 1v16a1 1 0 0 1 -1 1h-14a1 1 0 0 1 -1-1v-16a1 1 0 0 1 1-1z" fill-rule="evenodd"/></g></svg>