<svg fill="none" height="24" viewBox="0 0 24 24" width="24" xmlns="http://www.w3.org/2000/svg"><g fill="#f4f4f7"><path d="m16.6818 15.7529 2.1298 2.1298c1.3636-1.5775 2.1884-3.6337 2.1884-5.8826 0-2.21263-.7984-4.23877-2.1229-5.80601l-2.1327 2.13262c.7871 1.01506 1.2556 2.28949 1.2556 3.67339 0 1.4202-.4934 2.7252-1.3182 3.7528z" fill-opacity=".5"/><path d="m15.6734 16.7445c-1.0151.787-2.2895 1.2555-3.6734 1.2555-3.31371 0-6-2.6863-6-6 0-3.31371 2.68629-6 6-6 1.4202 0 2.7252.49344 3.7528 1.31823l2.1298-2.1298c-1.5775-1.36361-3.6337-2.18843-5.8826-2.18843-4.97056 0-9 4.02944-9 9 0 4.9706 4.02944 9 9 9 2.2126 0 4.2387-.7984 5.806-2.1229z"/></g></svg>