<svg fill="none" height="24" viewBox="0 0 24 24" width="24" xmlns="http://www.w3.org/2000/svg"><g clip-rule="evenodd" fill="#f4f4f7" fill-rule="evenodd"><path d="m7 3c1.86384 0 3.4299 1.27477 3.874 3h8.126v2h-8.126c-.4441 1.72523-2.01016 3-3.874 3-2.20914 0-4-1.79086-4-4s1.79086-4 4-4zm0 6c1.10457 0 2-.89543 2-2s-.89543-2-2-2-2 .89543-2 2 .89543 2 2 2z"/><path d="m17 20c-1.8638 0-3.4299-1.2748-3.874-3h-8.126v-2h8.126c.4441-1.7252 2.0102-3 3.874-3 2.2091 0 4 1.7909 4 4s-1.7909 4-4 4zm0-2c1.1046 0 2-.8954 2-2s-.8954-2-2-2-2 .8954-2 2 .8954 2 2 2z"/></g></svg>