<svg fill="none" height="24" viewBox="0 0 24 24" width="24" xmlns="http://www.w3.org/2000/svg"><g fill="#f4f4f7"><path d="m22 11c0 2.6522-1.0536 5.1957-2.9289 7.0711-1.8754 1.8753-4.4189 2.9289-7.0711 2.9289-2.65216 0-5.1957-1.0536-7.07107-2.9289-1.87536-1.8754-2.92893-4.4189-2.92893-7.0711z" opacity=".2"/><path d="m20 11c0 2.1217-.8429 4.1566-2.3431 5.6569-1.5003 1.5002-3.5352 2.3431-5.6569 2.3431-2.12173 0-4.15656-.8429-5.65685-2.3431-1.50029-1.5003-2.34315-3.5352-2.34315-5.6569z" opacity=".3"/><path d="m20 11c0-2.12173-.8429-4.15656-2.3431-5.65685-1.5003-1.5003-3.5352-2.34315-5.6569-2.34315-2.12173 0-4.15656.84285-5.65685 2.34315-1.50029 1.50029-2.34315 3.53512-2.34315 5.65685z"/></g></svg>