<svg fill="none" height="24" viewBox="0 0 24 24" width="24" xmlns="http://www.w3.org/2000/svg"><g fill="#f4f4f7"><path d="m14.0636 8c.5523 0 1-.44772 1-1s-.4477-1-1-1-1 .44772-1 1 .4477 1 1 1z"/><path clip-rule="evenodd" d="m13 3c2.1523 0 4.1281.7555 5.6768 2.01576l1.4472 1.44723-1.2952 1.29519-.0008-.0008-4.2426 4.24262 3.6382 3.6383-.0012.0013 1.9049 1.9049-1.4129 1.413-.0022-.0022c-1.5539 1.2776-3.5435 2.0447-5.7122 2.0447-4.97056 0-9-4.0294-9-9 0-4.97056 4.02944-9 9-9zm-1.2431 9 5.5324 5.5323c-1.1849.92-2.6731 1.4677-4.2893 1.4677-3.86599 0-7-3.134-7-7 0-3.86599 3.13401-7 7-7 1.6162 0 3.1045.54772 4.2893 1.46768z" fill-rule="evenodd"/></g></svg>