<svg fill="none" height="24" viewBox="0 0 24 24" width="24" xmlns="http://www.w3.org/2000/svg"><g fill="#f4f4f7"><path d="m6 12c0 .5523-.44772 1-1 1s-1-.4477-1-1 .44772-1 1-1 1 .4477 1 1z"/><path d="m9 13c.55228 0 1-.4477 1-1s-.44772-1-1-1c-.55229 0-1 .4477-1 1s.44771 1 1 1z"/><path d="m14 12c0 .5523-.4477 1-1 1s-1-.4477-1-1 .4477-1 1-1 1 .4477 1 1z"/><path d="m20 11h-4v2h4z"/><path clip-rule="evenodd" d="m2 6c-1.104569 0-2 .89543-2 2v8c0 1.1046.89543 2 2 2h20c1.1046 0 2-.8954 2-2v-8c0-1.10457-.8954-2-2-2zm20 2h-20v8h20z" fill-rule="evenodd"/></g></svg>