<svg fill="none" height="24" viewBox="0 0 24 24" width="24" xmlns="http://www.w3.org/2000/svg"><g fill="#f4f4f7"><path clip-rule="evenodd" d="m21.2635 2.29289c-.3905-.39052-1.0237-.39052-1.4142 0l-.8724.87236c-1.1151-.53271-2.4912-.33724-3.4148.5864l-10.60661 10.60655 5.65681 5.6569 10.6066-10.6066c.9237-.92364 1.1191-2.2997.5864-3.41483l.8724-.87235c.3905-.39052.3905-1.02369 0-1.41421zm-4.268 8.51061-6.3832 6.3832-2.82838-2.8285 6.38318-6.3831zm1.8183-1.81825.9909-.99096c.3906-.39053.3906-1.02369 0-1.41422l-1.4142-1.41421c-.3905-.39052-1.0237-.39052-1.4142 0l-.991.99097z" fill-rule="evenodd"/><path d="m2 22.9502 2.12171-7.7785 5.65646 5.6572z"/></g></svg>