<svg fill="none" height="24" viewBox="0 0 24 24" width="24" xmlns="http://www.w3.org/2000/svg"><g fill="#f4f4f7"><path d="m22 12c0-1.3132-.2587-2.61353-.7612-3.8269-.5026-1.21314-1.2391-2.31568-2.1677-3.24414-.9286-.92872-2.031-1.66529-3.2443-2.16773-1.2132-.50269-2.5136-.76123-3.8268-.76123v2c1.0506 0 2.0909.20703 3.0615.60889.9706.4021 1.8525.99145 2.5954 1.73437.7428.74268 1.3321 1.62476 1.7341 2.59522.4021.9707.609 2.01102.609 3.06152z"/><path d="m2 10v-5c0-.55225.44772-1 1-1h5c.55228 0 1 .44775 1 1v4c0 .55225-.44772 1-1 1h-2c0 4.4182 3.58173 8 8 8v-2c0-.5522.4477-1 1-1h4c.5523 0 1 .4478 1 1v5c0 .5522-.4477 1-1 1h-5c-6.62741 0-12-5.3726-12-12z"/><path d="m17.5433 9.70386c.3015.72804.4567 1.50834.4567 2.29614h-1.8c0-.5515-.1086-1.0977-.3197-1.6072-.2111-.50974-.5204-.97263-.9105-1.36253-.39-.39013-.8529-.69946-1.3625-.91064-.5096-.21094-1.0558-.31958-1.6073-.31958v-1.80005c.7879 0 1.5681.15527 2.2961.45679.7279.30151 1.3894.74341 1.9465 1.30053.5572.55713.9992 1.21851 1.3007 1.94654z"/></g></svg>