<svg fill="none" height="24" viewBox="0 0 24 24" width="24" xmlns="http://www.w3.org/2000/svg"><g fill="#f4f4f7"><path d="m9 8c.55228 0 1-.44772 1-1s-.44772-1-1-1-1 .44772-1 1 .44772 1 1 1z"/><path clip-rule="evenodd" d="m17 3c1.1046 0 2 .89543 2 2v14c0 1.1046-.8954 2-2 2h-10c-1.10457 0-2-.8954-2-2v-14c0-1.10457.89543-2 2-2zm-4.5351 2h4.5351v11h-10v-5.5351c.58835.3403 1.27143.5351 2 .5351 2.2091 0 4-1.79086 4-4 0-.72857-.1948-1.41165-.5351-2zm-3.4649 0c-1.10457 0-2 .89543-2 2s.89543 2 2 2c1.1046 0 2-.89543 2-2s-.8954-2-2-2z" fill-rule="evenodd"/></g></svg>