<svg fill="none" height="24" viewBox="0 0 24 24" width="24" xmlns="http://www.w3.org/2000/svg"><g fill="#f4f4f7"><path d="m12 14c1.1046 0 2 .8954 2 2s-.8954 2-2 2-2-.8954-2-2 .8954-2 2-2z"/><path clip-rule="evenodd" d="m8 5c-.55228 0-1-.44772-1-1s.44772-1 1-1h8c.5523 0 1 .44772 1 1s-.4477 1-1 1h-3v5.083c2.8377.476 5 2.944 5 5.917 0 3.3137-2.6863 6-6 6-3.31371 0-6-2.6863-6-6 0-2.973 2.16229-5.441 5-5.917v-5.083zm4 7c2.2091 0 4 1.7909 4 4s-1.7909 4-4 4c-2.20914 0-4-1.7909-4-4s1.79086-4 4-4z" fill-rule="evenodd"/></g></svg>