<svg fill="none" height="24" viewBox="0 0 24 24" width="24" xmlns="http://www.w3.org/2000/svg"><g fill="#f4f4f7"><path d="m12 11c1.1046 0 2-.8954 2-2 0-1.10457-.8954-2-2-2s-2 .89543-2 2c0 1.1046.8954 2 2 2z"/><path clip-rule="evenodd" d="m18 9c0 2.973-2.1623 5.441-5 5.917v5.083c0 .5523-.4477 1-1 1s-1-.4477-1-1v-5.083c-2.83771-.476-5-2.944-5-5.917 0-3.31371 2.68629-6 6-6 3.3137 0 6 2.68629 6 6zm-6 4c2.2091 0 4-1.7909 4-4 0-2.20914-1.7909-4-4-4-2.20914 0-4 1.79086-4 4 0 2.2091 1.79086 4 4 4z" fill-rule="evenodd"/></g></svg>