<svg fill="none" height="24" viewBox="0 0 24 24" width="24" xmlns="http://www.w3.org/2000/svg"><g clip-rule="evenodd" fill="#f4f4f7" fill-rule="evenodd"><path d="m16.2721 10.2721c0 2.2092-1.7908 4-4 4-2.2091 0-3.99996-1.7908-3.99996-4 0-2.20912 1.79086-3.99998 3.99996-3.99998 2.2092 0 4 1.79086 4 3.99998zm-2 0c0 1.1046-.8954 2-2 2-1.1045 0-2-.8954-2-2 0-1.10455.8955-1.99998 2-1.99998 1.1046 0 2 .89543 2 1.99998z"/><path d="m5.79417 16.5183c-3.59993-3.4274-3.73979-9.12421-.31239-12.72413 3.4274-3.599927 9.12412-3.739787 12.72412-.31239 3.5999 3.4274 3.7398 9.12412.3124 12.72412l-6.2059 6.5182zm11.27563-1.6915-4.8268 5.0697-5.06976-4.8267c-2.79994-2.6658-2.90872-7.09662-.24296-9.89656 2.66575-2.79994 7.09652-2.90872 9.89652-.24296 2.7999 2.66575 2.9087 7.09652.243 9.89652z"/></g></svg>