<svg fill="none" height="24" viewBox="0 0 24 24" width="24" xmlns="http://www.w3.org/2000/svg"><g clip-rule="evenodd" fill="#f4f4f7" fill-rule="evenodd"><path d="m8 8c.55228 0 1 .44772 1 1v6c0 .5523-.44772 1-1 1-.55229 0-1-.4477-1-1v-6c0-.55228.44771-1 1-1zm8 7.4641-6-3.4641 6-3.4641z"/><path d="m3 12c0 4.9706 4.02944 9 9 9 4.9706 0 9-4.0294 9-9 0-4.97056-4.0294-9-9-9-4.97056 0-9 4.02944-9 9zm9-11c-6.07513 0-11 4.92487-11 11 0 6.0751 4.92487 11 11 11 6.0751 0 11-4.9249 11-11 0-6.07513-4.9249-11-11-11z"/></g></svg>