<svg fill="none" height="24" viewBox="0 0 24 24" width="24" xmlns="http://www.w3.org/2000/svg"><g clip-rule="evenodd" fill="#f4f4f7" fill-rule="evenodd"><path d="m8 8c.55228 0 1 .44772 1 1v6c0 .5523-.44772 1-1 1-.55229 0-1-.4477-1-1v-6c0-.55228.44771-1 1-1zm8 7.4641-6-3.4641 6-3.4641z"/><path d="m19 3h-14c-1.10457 0-2 .89543-2 2v14c0 1.1046.89543 2 2 2h14c1.1046 0 2-.8954 2-2v-14c0-1.10457-.8954-2-2-2zm-14-2c-2.20914 0-4 1.79086-4 4v14c0 2.2091 1.79086 4 4 4h14c2.2091 0 4-1.7909 4-4v-14c0-2.20914-1.7909-4-4-4z"/></g></svg>