<svg fill="none" height="24" viewBox="0 0 24 24" width="24" xmlns="http://www.w3.org/2000/svg"><g fill="#f4f4f7"><path d="m15.8787 4.87866h-11.99998v2h11.99998z"/><path d="m15.8787 8.87866h-11.99998v2.00004h11.99998z"/><path d="m3.87872 12.8787h7.99998v2h-7.99998z"/><path clip-rule="evenodd" d="m13.7574 12.7573c-1.1716 1.1716-1.1716 3.0711 0 4.2427.9236.9236 2.2997 1.1191 3.4148.5864l1.5349 1.5349 1.4142-1.4142-1.5349-1.5349c.5327-1.1152.3372-2.4912-.5864-3.4149-1.1716-1.1715-3.0711-1.1715-4.2426 0zm1.4142 2.8285c.3905.3905 1.0237.3905 1.4142 0 .3905-.3906.3905-1.0237 0-1.4142-.3905-.3906-1.0237-.3906-1.4142 0-.3905.3905-.3905 1.0236 0 1.4142z" fill-rule="evenodd"/></g></svg>