<svg fill="none" height="24" viewBox="0 0 24 24" width="24" xmlns="http://www.w3.org/2000/svg"><path clip-rule="evenodd" d="m9 2c-.55229 0-1 .44772-1 1v2c0 .55228.44771 1 1 1s1-.44772 1-1v-2c0-.55228-.44771-1-1-1zm-1 7h8v2c0 2.2091-1.7909 4-4 4-2.20914 0-4-1.7909-4-4zm5 7.917c2.8377-.476 5-2.944 5-5.917v-4h-12v4c0 2.973 2.16229 5.441 5 5.917v5.083c0 .5523.4477 1 1 1s1-.4477 1-1zm1-13.917c0-.55228.4477-1 1-1s1 .44772 1 1v2c0 .55228-.4477 1-1 1s-1-.44772-1-1z" fill="#f4f4f7" fill-rule="evenodd"/></svg>