<svg fill="none" height="24" viewBox="0 0 24 24" width="24" xmlns="http://www.w3.org/2000/svg"><path clip-rule="evenodd" d="m3 4h18v7c0 4.9706-4.0294 9-9 9-4.97056 0-9-4.0294-9-9zm-2-2h22v9c0 6.0751-4.9249 11-11 11-6.07513 0-11-4.9249-11-11zm10.2929 12.6935c.3905.3905 1.0237.3905 1.4142 0l4.2426-4.2427c.3906-.3905.3906-1.02366 0-1.41419-.3905-.39052-1.0236-.39052-1.4142 0l-3.5355 3.53549-3.53553-3.53549c-.39053-.39052-1.02369-.39052-1.41422 0-.39052.39053-.39052 1.02369 0 1.41419z" fill="#f4f4f7" fill-rule="evenodd"/></svg>