<svg fill="none" height="24" viewBox="0 0 24 24" width="24" xmlns="http://www.w3.org/2000/svg"><path clip-rule="evenodd" d="m3 12c0-4.97056 4.02944-9 9-9 4.9706 0 9 4.02944 9 9 0 4.9706-4.0294 9-9 9-4.97056 0-9-4.0294-9-9zm2.07089 1c.48523 3.3923 3.40264 6 6.92911 6 3.5265 0 6.4439-2.6077 6.9291-6h-4.0998c-.4119 1.1652-1.5231 2-2.8293 2s-2.41749-.8348-2.82932-2zm13.85821-2c-.4852-3.39229-3.4026-6-6.9291-6-3.52647 0-6.44388 2.60771-6.92911 6h4.09979c.41183-1.16519 1.52312-2 2.82932-2s2.4174.83481 2.8293 2zm-6.9291 2c.5523 0 1-.4477 1-1s-.4477-1-1-1-1 .4477-1 1 .4477 1 1 1z" fill="#f4f4f7" fill-rule="evenodd"/></svg>