<svg fill="none" height="24" viewBox="0 0 24 24" width="24" xmlns="http://www.w3.org/2000/svg"><path clip-rule="evenodd" d="m12 22c5.5228 0 10-4.4772 10-10 0-5.52285-4.4772-10-10-10-5.52285 0-10 4.47715-10 10 0 5.5228 4.47715 10 10 10zm8-10h-2c0-3.31371-2.6863-6-6-6-3.31371 0-6 2.68629-6 6h-2c0-4.41828 3.58172-8 8-8 4.4183 0 8 3.58172 8 8zm-15.74796 2h15.49596c-.8881 3.4505-4.0203 6-7.748 6-3.72768 0-6.85988-2.5495-7.74796-6zm3.74796-2c0-2.20914 1.79086-4 4-4 2.2091 0 4 1.79086 4 4z" fill="#f4f4f7" fill-rule="evenodd"/></svg>