<svg fill="none" height="24" width="24" xmlns="http://www.w3.org/2000/svg"><g clip-rule="evenodd" fill="#f4f4f7" fill-rule="evenodd"><path d="m16 9a4 4 0 1 1 -8 0 4 4 0 0 1 8 0zm-2 0a2 2 0 1 1 -4 0 2 2 0 0 1 4 0z"/><path d="m12 1c-6.075 0-11 4.925-11 11s4.925 11 11 11 11-4.925 11-11-4.925-11-11-11zm-9 11c0 2.09.713 4.014 1.908 5.542a8.986 8.986 0 0 1 7.157-3.542 8.984 8.984 0 0 1 7.092 3.458 9 9 0 1 0 -16.157-5.458zm9 9a8.963 8.963 0 0 1 -5.672-2.012 6.992 6.992 0 0 1 5.737-2.988 6.991 6.991 0 0 1 5.689 2.92 8.964 8.964 0 0 1 -5.754 2.08z"/></g></svg>