<svg fill="none" height="24" viewBox="0 0 24 24" width="24" xmlns="http://www.w3.org/2000/svg"><g clip-rule="evenodd" fill="#f4f4f7" fill-rule="evenodd"><path d="m16 9c0 2.2091-1.7909 4-4 4-2.20914 0-4-1.7909-4-4 0-2.20914 1.79086-4 4-4 2.2091 0 4 1.79086 4 4zm-2 0c0 1.1046-.8954 2-2 2s-2-.8954-2-2c0-1.10457.8954-2 2-2s2 .89543 2 2z"/><path d="m12 1c-6.07513 0-11 4.92487-11 11 0 6.0751 4.92487 11 11 11 6.0751 0 11-4.9249 11-11 0-6.07513-4.9249-11-11-11zm-9 11c0 2.0902.71255 4.014 1.90798 5.5417 1.64447-2.1528 4.23829-3.5417 7.15652-3.5417 2.8803 0 5.4447 1.3531 7.092 3.4583 1.1565-1.514 1.8435-3.4059 1.8435-5.4583 0-4.97056-4.0294-9-9-9-4.97056 0-9 4.02944-9 9zm9 9c-2.15023 0-4.12435-.7541-5.67233-2.0122 1.26585-1.8066 3.36339-2.9878 5.73683-2.9878 2.3439 0 4.4188 1.1521 5.6893 2.9209-1.5599 1.2982-3.5657 2.0791-5.7538 2.0791z"/></g></svg>