<svg fill="none" height="24" viewBox="0 0 24 24" width="24" xmlns="http://www.w3.org/2000/svg"><path clip-rule="evenodd" d="m5 21h14c1.1046 0 2-.8954 2-2v-14c0-1.10457-.8954-2-2-2h-14c-1.10457 0-2 .89543-2 2v14c0 1.1046.89543 2 2 2zm-4-2c0 2.2091 1.79086 4 4 4h14c2.2091 0 4-1.7909 4-4v-14c0-2.20914-1.7909-4-4-4h-14c-2.20914 0-4 1.79086-4 4zm8.17154-2.2884-1.41422-1.4142 4.24258-4.2427 4.2427 4.2427-1.4142 1.4142-2.8284-2.8284zm-1.17153-6.7116h7.99999v-2h-7.99999z" fill="#f4f4f7" fill-rule="evenodd"/></svg>