<svg fill="none" height="24" viewBox="0 0 24 24" width="24" xmlns="http://www.w3.org/2000/svg"><g fill="#f4f4f7"><path d="m10 16h-2v-8h2z"/><path d="m15.2974 7.75732 1.4142 1.41421-2.8284 2.82847 2.8284 2.8284-1.4142 1.4142-4.2427-4.2427z"/><path clip-rule="evenodd" d="m1 12c0 6.0751 4.92487 11 11 11 6.0751 0 11-4.9249 11-11 0-6.07513-4.9249-11-11-11-6.07513 0-11 4.92487-11 11zm2 0c0 4.9706 4.02944 9 9 9 4.9706 0 9-4.0294 9-9 0-4.97056-4.0294-9-9-9-4.97056 0-9 4.02944-9 9z" fill-rule="evenodd"/></g></svg>