<svg fill="none" height="24" viewBox="0 0 24 24" width="24" xmlns="http://www.w3.org/2000/svg"><path clip-rule="evenodd" d="m4 5.5h5c1.1046 0 2 .89543 2 2v9c0 .5523-.4477 1-1 1h-6c-.55228 0-1-.4477-1-1v-10c0-.55228.44772-1 1-1zm10 14c-.3506 0-.6872-.0602-1-.1707v.1707c0 .5523-.4477 1-1 1s-1-.4477-1-1v-.1707c-.3128.1105-.6494.1707-1 .1707h-6c-1.65685 0-3-1.3431-3-3v-10c0-1.65685 1.34315-3 3-3h5c1.1947 0 2.2671.52376 3 1.35418.7329-.83042 1.8053-1.35418 3-1.35418h5c1.6569 0 3 1.34315 3 3v10c0 1.6569-1.3431 3-3 3zm-1-12v9c0 .5523.4477 1 1 1h6c.5523 0 1-.4477 1-1v-10c0-.55228-.4477-1-1-1h-5c-1.1046 0-2 .89543-2 2zm-8 0h4v2h-4zm10 0h4v2h-4zm4 3h-4v2h4zm-14 0h4v2h-4zm14 3h-4v2h4zm-14 0h4v2h-4z" fill="#f4f4f7" fill-rule="evenodd"/></svg>