<svg fill="none" height="24" viewBox="0 0 24 24" width="24" xmlns="http://www.w3.org/2000/svg"><path clip-rule="evenodd" d="m7 14c1.10457 0 2-.8954 2-2s-.89543-2-2-2-2 .8954-2 2 .89543 2 2 2zm3.4649-4c-.69165-1.1956-1.98434-2-3.4649-2-1.86384 0-3.42994 1.27477-3.87398 3h-1.12602c-.55228 0-1 .4477-1 1s.44772 1 1 1h1.12602c.44404 1.7252 2.01014 3 3.87398 3 2.20914 0 4-1.7909 4-4h2c0 2.2091 1.7909 4 4 4 1.8638 0 3.4299-1.2748 3.874-3h1.126c.5523 0 1-.4477 1-1s-.4477-1-1-1h-1.126c-.4441-1.72523-2.0102-3-3.874-3-1.4806 0-2.7733.8044-3.4649 2zm4.5351 2c0 1.1046.8954 2 2 2s2-.8954 2-2-.8954-2-2-2-2 .8954-2 2z" fill="#f4f4f7" fill-rule="evenodd"/></svg>