<svg fill="none" height="24" viewBox="0 0 24 24" width="24" xmlns="http://www.w3.org/2000/svg"><path d="m13.1459 11.0499-.1743-1.99238 2.3746-.20775c-.8991-.86655-2.122-1.39947-3.4693-1.39947-2.76143 0-5.00001 2.23858-5.00001 5 0 2.7614 2.23858 5 5.00001 5 1.8208 0 3.4142-.9732 4.2885-2.4279l2.0028.5007c-1.1381 2.3256-3.5277 3.9272-6.2913 3.9272-3.866 0-7.00001-3.134-7.00001-7 0-3.86599 3.13401-7 7.00001-7 1.9464 0 3.7073.79444 4.9761 2.07676l-.2452-2.80294 1.9924-.17432.5229 5.9772z" fill="#f4f4f7"/></svg>