<svg fill="none" height="24" width="24" xmlns="http://www.w3.org/2000/svg">
    <g fill="#f4f4f7">
        <path d="M3 4a1 1 0 0 1 1-1h8a1 1 0 1 1 0 2H4a1 1 0 0 1-1-1zm0 8a1 1 0 0 1 1-1h8a1 1 0 1 1 0 2H4a1 1 0 0 1-1-1zm0 4a1 1 0 0 1 1-1h8a1 1 0 1 1 0 2H4a1 1 0 0 1-1-1zm0 4a1 1 0 0 1 1-1h8a1 1 0 1 1 0 2H4a1 1 0 0 1-1-1z" fill-opacity=".5"/>
        <path clip-rule="evenodd" d="M15.17 9a3.001 3.001 0 1 0 0-2H4a1 1 0 0 0 0 2zM19 8a1 1 0 1 1-2 0 1 1 0 0 1 2 0z" fill-rule="evenodd"/>
    </g>
</svg>
