<svg fill="none" height="24" viewBox="0 0 24 24" width="24" xmlns="http://www.w3.org/2000/svg"><g fill="#f4f4f7"><g fill-opacity=".5"><path d="m3 4c0-.55228.44772-1 1-1h8c.5523 0 1 .44772 1 1s-.4477 1-1 1h-8c-.55228 0-1-.44772-1-1z"/><path d="m3 12c0-.5523.44772-1 1-1h8c.5523 0 1 .4477 1 1s-.4477 1-1 1h-8c-.55228 0-1-.4477-1-1z"/><path d="m3 16c0-.5523.44772-1 1-1h8c.5523 0 1 .4477 1 1s-.4477 1-1 1h-8c-.55228 0-1-.4477-1-1z"/><path d="m3 20c0-.5523.44772-1 1-1h8c.5523 0 1 .4477 1 1s-.4477 1-1 1h-8c-.55228 0-1-.4477-1-1z"/></g><path clip-rule="evenodd" d="m15.1707 9c.4118 1.1652 1.5231 2 2.8293 2 1.6569 0 3-1.34315 3-3s-1.3431-3-3-3c-1.3062 0-2.4175.83481-2.8293 2h-11.1707c-.55228 0-1 .44772-1 1s.44772 1 1 1zm3.8293-1c0 .55228-.4477 1-1 1s-1-.44772-1-1 .4477-1 1-1 1 .44772 1 1z" fill-rule="evenodd"/></g></svg>