<svg height="32" viewBox="0 0 32 32" width="32" xmlns="http://www.w3.org/2000/svg"><path d="m22.624 11.916c0-.58.002-1.129 0-1.677-.002-.545-.24-.784-.791-.784-4.983-.001-9.965-.001-14.947 0-.537 0-.772.236-.772.768-.001 1.566 0 3.132 0 4.698v.289h.999c0-1.581 0-3.151 0-4.731h14.52v1.437h.992zm-3.518 6.481c-3.301 0-6.585 0-9.878 0v1.957h9.878c0-.66 0-1.306 0-1.957zm-2.243 4.247c.025-.031.05-.062.075-.094-.64-.322-.841-.876-.843-1.522-1.17 0-2.295 0-3.426 0-.071.308-.084.637-.224.9-.135.255-.399.443-.66.716zm10.48-.627c-.199.515-.58.675-1.119.668-1.823-.022-3.646-.008-5.469-.009-.665 0-.97-.305-.97-.977-.001-2.712-.001-5.424 0-8.135 0-.677.297-.975.968-.976 1.841-.001 3.683.011 5.524-.008.537-.005.898.175 1.067.695v8.741zm-.565-.993c0-2.589 0-5.147 0-7.707-2.163 0-4.303 0-6.45 0v7.707zm-1.681.801c.005-.211-.157-.391-.362-.402-.217-.012-.409.164-.415.382-.006.22.174.403.394.401.214-.002.378-.165.383-.381zm-2.31-.005c.002-.221-.18-.401-.399-.397-.203.004-.379.183-.383.388-.004.217.18.399.401.395.208-.004.38-.177.381-.386zm.776-.397c-.204-.007-.388.163-.398.369-.011.223.158.408.379.414.213.006.386-.155.397-.367.011-.223-.158-.408-.378-.416zm-18.376 1.694c-.404-.121-.533-.393-.529-.809.016-1.904.006-3.809.007-5.713 0-.498.192-.701.695-.705.833-.008 1.666-.007 2.5 0 .483.004.689.214.689.689.002 1.941-.004 3.882.005 5.823.002.38-.18.59-.508.715-.953 0-1.906 0-2.859 0zm-.137-5.982v4.762h3.112c0-1.596 0-3.174 0-4.762-1.043 0-2.066 0-3.112 0zm17.574-5.219c-.345 0-.654 0-.992 0 0-.48 0-.95 0-1.437-4.85 0-9.671 0-14.52 0v4.731c-.345 0-.661 0-.999 0 0-.108 0-.198 0-.289 0-1.566 0-3.132 0-4.698 0-.531.235-.767.772-.768 4.982-.001 9.965-.001 14.947 0 .551 0 .789.239.791.784.002.549 0 1.097 0 1.677zm-3.518 6.481v1.957c-3.293 0-6.577 0-9.878 0 0-.651 0-1.295 0-1.957zm-4.299.96c-.006-.248-.216-.439-.468-.427-.24.012-.424.21-.417.45.006.234.209.434.44.435.242.001.451-.214.446-.458zm2.056 3.287c-1.665 0-3.331 0-5.078 0 .261-.273.525-.46.66-.716.139-.263.153-.592.224-.9h3.426c.001.646.203 1.2.843 1.522-.025.031-.05.062-.075.094zm-10.062-.188c0 .133-.108.24-.24.24s-.24-.108-.24-.24c0-.133.108-.24.24-.24s.24.108.24.24z" fill="#f4f4f7"/></svg>