<svg fill="none" height="24" viewBox="0 0 24 24" width="24" xmlns="http://www.w3.org/2000/svg"><g fill="#f4f4f7"><path clip-rule="evenodd" d="m6.34326 3.68567c.48833-.48832 1.02408-.90032 1.59243-1.23599 2.49951-1.4762 5.62941-1.4762 8.12881 0 .5684.33567 1.1041.74767 1.5925 1.23599l-5.6569 5.65686zm5.65684 2.82843-2.587-2.58701c1.6316-.77941 3.5425-.77941 5.174 0z" fill-rule="evenodd"/><path d="m2 12.6576c0-3.13107 1.43899-5.92604 3.69172-7.75964l1.42356 1.42356c-1.89485 1.46297-3.11528 3.75698-3.11528 6.33608 0 4.4183 3.58172 8 8 8 4.4183 0 8-3.5817 8-8 0-2.5791-1.2204-4.87309-3.1153-6.33606l1.4236-1.42356c2.2527 1.8336 3.6917 4.62856 3.6917 7.75962 0 5.5228-4.4772 10-10 10-5.52285 0-10-4.4772-10-10z"/></g></svg>