<svg fill="none" height="24" viewBox="0 0 24 24" width="24" xmlns="http://www.w3.org/2000/svg"><path clip-rule="evenodd" d="m3 6c-1.65685 0-3 1.34315-3 3v7c0 1.6569 1.34315 3 3 3h18c1.6569 0 3-1.3431 3-3v-7c0-1.65685-1.3431-3-3-3zm6 2h-2v5c0 .5523-.44772 1-1 1s-1-.4477-1-1v-5h-2c-.55228 0-1 .44772-1 1v7c0 .5523.44772 1 1 1h18c.5523 0 1-.4477 1-1v-7c0-.55228-.4477-1-1-1h-2v3c0 .5523-.4477 1-1 1s-1-.4477-1-1v-3h-2v5c0 .5523-.4477 1-1 1s-1-.4477-1-1v-5h-2v3c0 .5523-.4477 1-1 1-.55229 0-1-.4477-1-1z" fill="#f4f4f7" fill-rule="evenodd"/></svg>