<svg fill="none" height="24" viewBox="0 0 24 24" width="24" xmlns="http://www.w3.org/2000/svg"><g fill="#f4f4f7"><path d="m9.17154 16.8182-1.41422 1.4142 4.24268 4.2426 4.2426-4.2426-1.4142-1.4142-2.8284 2.8284z"/><path d="m14.8284 7.182 1.4142-1.41421-4.2426-4.24264-4.24267 4.24264 1.41422 1.41421 2.82845-2.82843z"/><path clip-rule="evenodd" d="m12 9.00018c1.6569 0 3 1.34312 3 3.00002 0 1.6568-1.3431 3-3 3s-3-1.3432-3-3c0-1.6569 1.3431-3.00002 3-3.00002zm0 2.00002c.5523 0 1 .4477 1 1s-.4477 1-1 1-1-.4477-1-1 .4477-1 1-1z" fill-rule="evenodd"/></g></svg>