<svg fill="none" height="24" viewBox="0 0 24 24" width="24" xmlns="http://www.w3.org/2000/svg"><g fill="#f4f4f7"><path d="m7.18188 9.17154-1.41422-1.41422-4.24264 4.24268 4.24264 4.2426 1.41422-1.4142-2.82843-2.8284z"/><path d="m16.8181 14.8284 1.4142 1.4142 4.2426-4.2426-4.2426-4.24267-1.4142 1.41422 2.8284 2.82845z"/><path clip-rule="evenodd" d="m14.9999 12c0 1.6569-1.3432 3-3 3-1.6569 0-3.00002-1.3431-3.00002-3s1.34312-3 3.00002-3c1.6568 0 3 1.3431 3 3zm-2 0c0 .5523-.4477 1-1 1s-1-.4477-1-1 .4477-1 1-1 1 .4477 1 1z" fill-rule="evenodd"/></g></svg>