<svg fill="none" height="24" viewBox="0 0 24 24" width="24" xmlns="http://www.w3.org/2000/svg"><path clip-rule="evenodd" d="m18.319 14.4326c2.4438-3.1385 2.223-7.67913-.6621-10.56431-3.1242-3.124192-8.18956-3.124192-11.31375 0-3.1242 3.1242-3.1242 8.18951 0 11.31371 2.88518 2.8852 7.42585 3.1059 10.56435.6622.0135.0153.0276.0303.0422.0449l4.2427 4.2426c.3905.3906 1.0237.3906 1.4142 0 .3905-.3905.3905-1.0236 0-1.4142l-4.2426-4.2426c-.0147-.0146-.0297-.0287-.045-.0423zm-2.0764-9.15009c2.3432 2.34314 2.3432 6.14209 0 8.48529-2.3431 2.3431-6.1421 2.3431-8.48524 0-2.34315-2.3432-2.34315-6.14215 0-8.48529 2.34314-2.34315 6.14214-2.34315 8.48524 0z" fill="#f4f4f7" fill-rule="evenodd"/></svg>