<svg fill="none" height="24" viewBox="0 0 24 24" width="24" xmlns="http://www.w3.org/2000/svg"><g fill="#f4f4f7"><path d="m7.66542 10.2366 1.53209-1.2856 1.28559 1.5321 3.0642-2.57116 1.2855 1.53208-4.5962 3.85668z"/><path clip-rule="evenodd" d="m16.2071 4.89344c2.8852 2.88518 3.106 7.42586.6622 10.56436.0153.0135.0303.0276.045.0422l4.2426 4.2427c.3905.3905.3905 1.0237 0 1.4142s-1.0237.3905-1.4142 0l-4.2427-4.2426c-.0146-.0147-.0287-.0297-.0422-.045-3.1385 2.4438-7.67918 2.223-10.56436-.6622-3.1242-3.1241-3.1242-8.18947 0-11.31366 3.12419-3.1242 8.18956-3.1242 11.31366 0zm-1.4142 9.89946c2.3432-2.3431 2.3432-6.1421 0-8.48525-2.3431-2.34314-6.1421-2.34314-8.48525 0-2.34314 2.34315-2.34314 6.14215 0 8.48525 2.34315 2.3432 6.14215 2.3432 8.48525 0z" fill-rule="evenodd"/></g></svg>