<svg fill="none" height="24" width="24" xmlns="http://www.w3.org/2000/svg"><g fill="#f4f4f7"><path d="m8.55 10.55a1 1 0 1 1 -2 0 1 1 0 0 1 2 0zm2 1a1 1 0 1 0 0-2 1 1 0 0 0 0 2zm3 0a1 1 0 1 0 0-2 1 1 0 0 0 0 2z"/><path clip-rule="evenodd" d="m16.207 4.893a8.001 8.001 0 0 1 .662 10.565c.016.013.03.027.045.042l4.243 4.243a1 1 0 0 1 -1.414 1.414l-4.243-4.243a.933.933 0 0 1 -.042-.045 8.001 8.001 0 0 1 -10.565-11.976 8 8 0 0 1 11.314 0zm-9.9 9.9a6 6 0 1 0 8.486-8.485 6 6 0 0 0 -8.485 8.485z" fill-rule="evenodd"/></g></svg>