<svg fill="none" height="24" viewBox="0 0 24 24" width="24" xmlns="http://www.w3.org/2000/svg"><g fill="#f4f4f7"><path d="m8.55024 10.5503c0 .5523-.44771 1-1 1-.55228 0-1-.4477-1-1 0-.55229.44772-1.00001 1-1.00001.55229 0 1 .44772 1 1.00001z"/><path d="m10.5502 11.5503c.5523 0 1-.4477 1-1 0-.55229-.4477-1.00001-1-1.00001-.55224 0-.99996.44772-.99996 1.00001 0 .5523.44772 1 .99996 1z"/><path d="m13.5502 11.5503c.5523 0 1-.4477 1-1 0-.55229-.4477-1.00001-1-1.00001-.5522 0-1 .44772-1 1.00001 0 .5523.4478 1 1 1z"/><path clip-rule="evenodd" d="m16.2071 4.89344c2.8851 2.88516 3.1059 7.42576.6622 10.56426.0153.0135.0303.0276.0449.0422l4.2426 4.2427c.3905.3905.3905 1.0237 0 1.4142s-1.0237.3905-1.4142 0l-4.2426-4.2427c-.0147-.0146-.0287-.0295-.0422-.0448-3.1385 2.4438-7.67922 2.223-10.56442-.6622-3.1242-3.1241-3.1242-8.18947 0-11.31366 3.12419-3.1242 8.18952-3.1242 11.31372 0zm-9.89951 9.89946c2.34315 2.3432 6.14211 2.3432 8.48531 0 2.3431-2.3431 2.3431-6.1421 0-8.48525-2.3432-2.34314-6.14216-2.34314-8.48531 0-2.34314 2.34315-2.34314 6.14215 0 8.48525z" fill-rule="evenodd"/></g></svg>