<svg fill="none" height="24" viewBox="0 0 24 24" width="24" xmlns="http://www.w3.org/2000/svg"><g fill="#f4f4f7"><path d="m9.17154 11.508-1.41422-1.4142 4.24268-4.24266 4.2426 4.24266-1.4142 1.4142-2.8284-2.82844z"/><path d="m9.17154 12.492-1.41422 1.4142 4.24268 4.2427 4.2426-4.2427-1.4142-1.4142-2.8284 2.8284z"/><path clip-rule="evenodd" d="m23 12c0 6.0751-4.9249 11-11 11-6.07513 0-11-4.9249-11-11 0-6.07513 4.92487-11 11-11 6.0751 0 11 4.92487 11 11zm-2 0c0 4.9706-4.0294 9-9 9-4.97056 0-9-4.0294-9-9 0-4.97056 4.02944-9 9-9 4.9706 0 9 4.02944 9 9z" fill-rule="evenodd"/></g></svg>