<svg fill="none" height="24" viewBox="0 0 24 24" width="24" xmlns="http://www.w3.org/2000/svg"><g fill="#f4f4f7"><path d="m9 6c-.55228 0-1 .44772-1 1s.44772 1 1 1h6c.5523 0 1-.44772 1-1s-.4477-1-1-1z"/><path d="m9 10c-.55228 0-1 .4477-1 1s.44772 1 1 1h6c.5523 0 1-.4477 1-1s-.4477-1-1-1z"/><path d="m13 17c0 .5523-.4477 1-1 1s-1-.4477-1-1 .4477-1 1-1 1 .4477 1 1z"/><path clip-rule="evenodd" d="m4 5c0-1.65685 1.34315-3 3-3h10c1.6569 0 3 1.34315 3 3v14c0 1.6569-1.3431 3-3 3h-10c-1.65685 0-3-1.3431-3-3zm3-1h10c.5523 0 1 .44772 1 1v14c0 .5523-.4477 1-1 1h-10c-.55228 0-1-.4477-1-1v-14c0-.55228.44771-1 1-1z" fill-rule="evenodd"/></g></svg>