<svg fill="none" height="24" viewBox="0 0 24 24" width="24" xmlns="http://www.w3.org/2000/svg"><path d="m18 9c1.6569 0 3-1.34315 3-3s-1.3431-3-3-3-3 1.34315-3 3c0 .12549.0077.24919.0227.37063l-6.94009 3.47003c-.53956-.52051-1.2737-.84066-2.08261-.84066-1.65685 0-3 1.3431-3 3s1.34315 3 3 3c.80891 0 1.54305-.3202 2.08261-.8407l6.94009 3.4701c-.015.1214-.0227.2451-.0227.3706 0 1.6569 1.3431 3 3 3s3-1.3431 3-3-1.3431-3-3-3c-.8089 0-1.543.3202-2.0826.8407l-6.94007-3.4701c.01496-.1214.02267-.2451.02267-.3706s-.00771-.2492-.02267-.3706l6.94007-3.47006c.5396.52051 1.2737.84066 2.0826.84066z" fill="#f4f4f7"/></svg>