<svg fill="none" height="24" viewBox="0 0 24 24" width="24" xmlns="http://www.w3.org/2000/svg"><g fill="#f4f4f7"><path d="m16.1925 7.70711c-.3906-.39053-1.0237-.39053-1.4143 0l-7.07102 7.07109c-.39053.3905-.39053 1.0237 0 1.4142.39052.3905 1.02369.3905 1.41421 0l7.07111-7.07108c.3905-.39052.3905-1.02369 0-1.41421z"/><path clip-rule="evenodd" d="m3 6c0-1.65685 1.34315-3 3-3h12c1.6569 0 3 1.34315 3 3v12c0 1.6569-1.3431 3-3 3h-12c-1.65685 0-3-1.3431-3-3zm3-1h12c.5523 0 1 .44772 1 1v12c0 .5523-.4477 1-1 1h-12c-.55228 0-1-.4477-1-1v-12c0-.55228.44772-1 1-1z" fill-rule="evenodd"/></g></svg>