<svg fill="none" height="24" viewBox="0 0 24 24" width="24" xmlns="http://www.w3.org/2000/svg"><g fill="#f4f4f7"><path d="m12 17c0 .5523.4477 1 1 1h4c.5523 0 1-.4477 1-1v-4c0-.5523-.4477-1-1-1h-1v4h-4z"/><path d="m11 6c.5523 0 1 .44772 1 1v1h-4v4h-1c-.55228 0-1-.4477-1-1v-4c0-.55228.44772-1 1-1z"/><path clip-rule="evenodd" d="m5 2c-1.65685 0-3 1.34315-3 3v14c0 1.6569 1.34315 3 3 3h14c1.6569 0 3-1.3431 3-3v-14c0-1.65685-1.3431-3-3-3zm14 2h-14c-.55229 0-1 .44772-1 1v14c0 .5523.44772 1 1 1h14c.5523 0 1-.4477 1-1v-14c0-.55229-.4477-1-1-1z" fill-rule="evenodd"/></g></svg>