<svg fill="none" height="24" viewBox="0 0 24 24" width="24" xmlns="http://www.w3.org/2000/svg"><path clip-rule="evenodd" d="m13 10c0 1.1046.8954 2 2 2s2-.8954 2-2v-5c0-1.10457-.8954-2-2-2s-2 .89543-2 2zm-8-2c-1.10457 0-2 .89543-2 2 0 1.1046.89543 2 2 2h5c1.1046 0 2-.8954 2-2 0-1.10457-.8954-2-2-2zm10 5c-1.1046 0-2 .8954-2 2s.8954 2 2 2h5c1.1046 0 2-.8954 2-2s-.8954-2-2-2zm-5 9c-1.10457 0-2-.8954-2-2v-5c0-1.1046.89543-2 2-2 1.1046 0 2 .8954 2 2v5c0 1.1046-.8954 2-2 2zm-2-17c0-1.10457.89543-2 2-2 1.1046 0 2 .89543 2 2v2h-2c-1.10457 0-2-.89543-2-2zm-5 10c0 1.1046.89543 2 2 2s2-.8954 2-2v-2h-2c-1.10457 0-2 .8954-2 2zm14 5c0 1.1046-.8954 2-2 2s-2-.8954-2-2v-2h2c1.1046 0 2 .8954 2 2zm5-10c0-1.10457-.8954-2-2-2s-2 .89543-2 2v2h2c1.1046 0 2-.8954 2-2z" fill="#f4f4f7" fill-rule="evenodd"/></svg>