<svg fill="none" height="24" viewBox="0 0 24 24" width="24" xmlns="http://www.w3.org/2000/svg"><g fill="#f4f4f7"><path d="m9 6c0-.55228.44772-1 1-1 .5523 0 1 .44772 1 1v2c0 .55228-.4477 1-1 1-.55228 0-1-.44772-1-1z"/><path d="m10 13c-.55228 0-1 .4477-1 1v2c0 .5523.44772 1 1 1 .5523 0 1-.4477 1-1v-2c0-.5523-.4477-1-1-1z"/><path clip-rule="evenodd" d="m5 4c0-1.65685 1.34315-3 3-3h8c1.6569 0 3 1.34315 3 3v16c0 1.6569-1.3431 3-3 3h-8c-1.65685 0-3-1.3431-3-3zm3-1h8c.5523 0 1 .44772 1 1v6h-10v-6c0-.55228.44772-1 1-1zm-1 9h10v8c0 .5523-.4477 1-1 1h-8c-.55228 0-1-.4477-1-1z" fill-rule="evenodd"/></g></svg>