<svg fill="none" height="24" width="24" xmlns="http://www.w3.org/2000/svg"><g fill="#f4f4f7"><path d="m5 4a1 1 0 1 1 -2 0 1 1 0 0 1 2 0zm4 0a1 1 0 1 1 -2 0 1 1 0 0 1 2 0zm3 1a1 1 0 1 0 0-2 1 1 0 0 0 0 2zm5-1a1 1 0 1 1 -2 0 1 1 0 0 1 2 0zm3 1a1 1 0 1 0 0-2 1 1 0 0 0 0 2zm-15 15a1 1 0 1 1 -2 0 1 1 0 0 1 2 0zm4 0a1 1 0 1 1 -2 0 1 1 0 0 1 2 0zm3 1a1 1 0 1 0 0-2 1 1 0 0 0 0 2zm5-1a1 1 0 1 1 -2 0 1 1 0 0 1 2 0zm3 1a1 1 0 1 0 0-2 1 1 0 0 0 0 2zm-15-9a1 1 0 1 0 0-2 1 1 0 0 0 0 2zm15 1a1 1 0 1 1 -2 0 1 1 0 0 1 2 0z"/><path clip-rule="evenodd" d="m0 9a3 3 0 0 1 3-3h18a3 3 0 0 1 3 3v6a3 3 0 0 1 -3 3h-18a3 3 0 0 1 -3-3zm3-1h18a1 1 0 0 1 1 1v6a1 1 0 0 1 -1 1h-18a1 1 0 0 1 -1-1v-6a1 1 0 0 1 1-1z" fill-rule="evenodd"/></g></svg>