<svg fill="none" height="24" viewBox="0 0 24 24" width="24" xmlns="http://www.w3.org/2000/svg"><g clip-rule="evenodd" fill="#f4f4f7" fill-rule="evenodd"><path d="m15 16c0 1.6569-1.3431 3-3 3s-3-1.3431-3-3 1.3431-3 3-3 3 1.3431 3 3zm-2 0c0 .5523-.4477 1-1 1s-1-.4477-1-1 .4477-1 1-1 1 .4477 1 1z"/><path d="m15 1h-6v2h2v2h-4c-2.20914 0-4 1.79086-4 4v10c0 2.2091 1.79086 4 4 4h10c2.2091 0 4-1.7909 4-4v-10c0-2.20914-1.7909-4-4-4h-4v-2h2zm2 6h-10c-1.10457 0-2 .89543-2 2h14c0-1.10457-.8954-2-2-2zm2 4h-14v8c0 1.1046.89543 2 2 2h10c1.1046 0 2-.8954 2-2z"/></g></svg>