<svg fill="none" height="24" viewBox="0 0 24 24" width="24" xmlns="http://www.w3.org/2000/svg"><g clip-rule="evenodd" fill="#f4f4f7" fill-rule="evenodd"><path d="m9 22c0 .5523-.44772 1-1 1s-1-.4477-1-1 .44772-1 1-1 1 .4477 1 1zm4 0c0 .5523-.4477 1-1 1s-1-.4477-1-1 .4477-1 1-1 1 .4477 1 1zm3 1c.5523 0 1-.4477 1-1s-.4477-1-1-1-1 .4477-1 1 .4477 1 1 1z"/><path d="m9 2c0 .55228-.44772 1-1 1s-1-.44772-1-1 .44772-1 1-1 1 .44772 1 1zm4 0c0 .55228-.4477 1-1 1s-1-.44772-1-1 .4477-1 1-1 1 .44772 1 1zm3 1c.5523 0 1-.44772 1-1s-.4477-1-1-1-1 .44772-1 1 .4477 1 1 1zm-7 19c0 .5523-.44772 1-1 1s-1-.4477-1-1 .44772-1 1-1 1 .4477 1 1zm4 0c0 .5523-.4477 1-1 1s-1-.4477-1-1 .4477-1 1-1 1 .4477 1 1zm3 1c.5523 0 1-.4477 1-1s-.4477-1-1-1-1 .4477-1 1 .4477 1 1 1zm7-7c0-.5523-.4477-1-1-1s-1 .4477-1 1 .4477 1 1 1 1-.4477 1-1zm0-4c0-.5523-.4477-1-1-1s-1 .4477-1 1 .4477 1 1 1 1-.4477 1-1zm-1-5c.5523 0 1 .44771 1 1s-.4477 1-1 1-1-.44771-1-1 .4477-1 1-1zm-20 8c.55228 0 1 .4477 1 1s-.44772 1-1 1-1-.4477-1-1 .44772-1 1-1zm0-4c.55228 0 1 .4477 1 1s-.44772 1-1 1-1-.4477-1-1 .44772-1 1-1zm1-3c0-.55229-.44772-1-1-1s-1 .44771-1 1 .44772 1 1 1 1-.44771 1-1zm14-2h-10c-.55228 0-1 .44772-1 1v10c0 .5523.44772 1 1 1h10c.5523 0 1-.4477 1-1v-10c0-.55228-.4477-1-1-1zm-10-2c-1.65685 0-3 1.34315-3 3v10c0 1.6569 1.34315 3 3 3h10c1.6569 0 3-1.3431 3-3v-10c0-1.65685-1.3431-3-3-3zm7 6h-4v4h4zm-6-2v8h8v-8z"/></g></svg>