<svg fill="none" height="24" viewBox="0 0 24 24" width="24" xmlns="http://www.w3.org/2000/svg"><g fill="#f4f4f7"><path clip-rule="evenodd" d="m7.03435 6.5c0-2.76142 2.23858-5 5.00005-5 2.7614 0 5 2.23858 5 5v4c0 2.7614-2.2386 5-5 5-2.76147 0-5.00005-2.2386-5.00005-5zm8.00005 0v4c0 1.6569-1.3432 3-3 3-1.6569 0-3.00005-1.3431-3.00005-3v-4c0-1.65685 1.34315-3 3.00005-3 1.6568 0 3 1.34315 3 3z" fill-rule="evenodd"/><path d="m12.0344 16.5c-.5523 0-1 .4477-1 1v4c0 .5523.4477 1 1 1 .5522 0 1-.4477 1-1v-4c0-.5523-.4478-1-1-1z"/><path d="m7.74433 16.4397c.1889-.519.76274-.7866 1.28172-.5977.51897.1889.78656.7628.59767 1.2817l-1.36808 3.7588c-.18889.519-.76274.7866-1.28171.5977-.51898-.1889-.78657-.7628-.59768-1.2817z"/><path d="m14.974 15.8421c-.5189.1889-.7865.7627-.5976 1.2817l1.3681 3.7587c.1888.519.7627.7866 1.2817.5977.5189-.1889.7865-.7627.5976-1.2817l-1.368-3.7588c-.1889-.5189-.7628-.7865-1.2818-.5976z"/></g></svg>