<svg fill="none" height="24" width="24" xmlns="http://www.w3.org/2000/svg">
    <g fill="#f4f4f7">
        <path d="M5 4a1 1 0 1 1-2 0 1 1 0 0 1 2 0zm4 0a1 1 0 1 1-2 0 1 1 0 0 1 2 0zm3 1a1 1 0 1 0 0-2 1 1 0 0 0 0 2zm5-1a1 1 0 1 1-2 0 1 1 0 0 1 2 0zm3 1a1 1 0 1 0 0-2 1 1 0 0 0 0 2zM5 20a1 1 0 1 1-2 0 1 1 0 0 1 2 0zm4 0a1 1 0 1 1-2 0 1 1 0 0 1 2 0zm3 1a1 1 0 1 0 0-2 1 1 0 0 0 0 2zm5-1a1 1 0 1 1-2 0 1 1 0 0 1 2 0zm3 1a1 1 0 1 0 0-2 1 1 0 0 0 0 2zM5 12a1 1 0 1 0 0-2 1 1 0 0 0 0 2zm15 1a1 1 0 1 1-2 0 1 1 0 0 1 2 0z"/>
        <path clip-rule="evenodd" d="M0 9a3 3 0 0 1 3-3h18a3 3 0 0 1 3 3v6a3 3 0 0 1-3 3H3a3 3 0 0 1-3-3zm3-1h18a1 1 0 0 1 1 1v6a1 1 0 0 1-1 1H3a1 1 0 0 1-1-1V9a1 1 0 0 1 1-1z" fill-rule="evenodd"/>
    </g>
</svg>
