<svg fill="none" height="24" width="24" xmlns="http://www.w3.org/2000/svg"><g clip-rule="evenodd" fill="#f4f4f7" fill-rule="evenodd"><path d="m9 22a1 1 0 1 1 -2 0 1 1 0 0 1 2 0zm4 0a1 1 0 1 1 -2 0 1 1 0 0 1 2 0zm3 1a1 1 0 1 0 0-2 1 1 0 0 0 0 2z"/><path d="m9 2a1 1 0 1 1 -2 0 1 1 0 0 1 2 0zm4 0a1 1 0 1 1 -2 0 1 1 0 0 1 2 0zm3 1a1 1 0 1 0 0-2 1 1 0 0 0 0 2zm-7 19a1 1 0 1 1 -2 0 1 1 0 0 1 2 0zm4 0a1 1 0 1 1 -2 0 1 1 0 0 1 2 0zm3 1a1 1 0 1 0 0-2 1 1 0 0 0 0 2zm7-7a1 1 0 1 0 -2 0 1 1 0 0 0 2 0zm0-4a1 1 0 1 0 -2 0 1 1 0 0 0 2 0zm-1-5a1 1 0 1 1 0 2 1 1 0 0 1 0-2zm-20 8a1 1 0 1 1 0 2 1 1 0 0 1 0-2zm0-4a1 1 0 1 1 0 2 1 1 0 0 1 0-2zm1-3a1 1 0 1 0 -2 0 1 1 0 0 0 2 0zm14-2h-10a1 1 0 0 0 -1 1v10a1 1 0 0 0 1 1h10a1 1 0 0 0 1-1v-10a1 1 0 0 0 -1-1zm-10-2a3 3 0 0 0 -3 3v10a3 3 0 0 0 3 3h10a3 3 0 0 0 3-3v-10a3 3 0 0 0 -3-3zm7 6h-4v4h4zm-6-2v8h8v-8z"/></g></svg>