<svg fill="none" height="24" width="24" xmlns="http://www.w3.org/2000/svg">
    <g clip-rule="evenodd" fill="#f4f4f7" fill-rule="evenodd">
        <path d="M9 22a1 1 0 1 1-2 0 1 1 0 0 1 2 0zm4 0a1 1 0 1 1-2 0 1 1 0 0 1 2 0zm3 1a1 1 0 1 0 0-2 1 1 0 0 0 0 2z"/>
        <path d="M9 2a1 1 0 1 1-2 0 1 1 0 0 1 2 0zm4 0a1 1 0 1 1-2 0 1 1 0 0 1 2 0zm3 1a1 1 0 1 0 0-2 1 1 0 0 0 0 2zM9 22a1 1 0 1 1-2 0 1 1 0 0 1 2 0zm4 0a1 1 0 1 1-2 0 1 1 0 0 1 2 0zm3 1a1 1 0 1 0 0-2 1 1 0 0 0 0 2zm7-7a1 1 0 1 0-2 0 1 1 0 0 0 2 0zm0-4a1 1 0 1 0-2 0 1 1 0 0 0 2 0zm-1-5a1 1 0 1 1 0 2 1 1 0 0 1 0-2zM2 15a1 1 0 1 1 0 2 1 1 0 0 1 0-2zm0-4a1 1 0 1 1 0 2 1 1 0 0 1 0-2zm1-3a1 1 0 1 0-2 0 1 1 0 0 0 2 0zm14-2H7a1 1 0 0 0-1 1v10a1 1 0 0 0 1 1h10a1 1 0 0 0 1-1V7a1 1 0 0 0-1-1zM7 4a3 3 0 0 0-3 3v10a3 3 0 0 0 3 3h10a3 3 0 0 0 3-3V7a3 3 0 0 0-3-3zm7 6h-4v4h4zM8 8v8h8V8z"/>
    </g>
</svg>
