<svg fill="none" height="24" viewBox="0 0 24 24" width="24" xmlns="http://www.w3.org/2000/svg"><path clip-rule="evenodd" d="m6 4h12c.5523 0 1 .44772 1 1v3h-14v-3c0-.55228.44771-1 1-1zm13 15v-9h-14v9c0 .5523.44772 1 1 1h12c.5523 0 1-.4477 1-1zm-16-14c0-1.65685 1.34315-3 3-3h12c1.6569 0 3 1.34315 3 3v14c0 1.6569-1.3431 3-3 3h-12c-1.65685 0-3-1.3431-3-3zm4 0c-.55228 0-1 .44772-1 1s.44772 1 1 1h2c.55228 0 1-.44772 1-1s-.44772-1-1-1zm7 2c.5523 0 1-.44772 1-1s-.4477-1-1-1-1 .44772-1 1 .4477 1 1 1zm4-1c0 .55228-.4477 1-1 1s-1-.44772-1-1 .4477-1 1-1 1 .44772 1 1zm-4 9c0 1.1046-.8954 2-2 2s-2-.8954-2-2 .8954-2 2-2 2 .8954 2 2zm2 0c0 2.2091-1.7909 4-4 4-2.20914 0-4-1.7909-4-4s1.79086-4 4-4c2.2091 0 4 1.7909 4 4z" fill="#f4f4f7" fill-rule="evenodd"/></svg>