<svg fill="none" height="24" viewBox="0 0 24 24" width="24" xmlns="http://www.w3.org/2000/svg"><g fill="#f4f4f7"><path d="m12 17c2.2091 0 4-1.7909 4-4h-8c0 2.2091 1.79086 4 4 4z"/><path d="m10 10c0 .5523-.44772 1-1 1s-1-.4477-1-1c0-.55228.44772-1 1-1s1 .44772 1 1z"/><path d="m15 11c.5523 0 1-.4477 1-1 0-.55228-.4477-1-1-1s-1 .44772-1 1c0 .5523.4477 1 1 1z"/><path clip-rule="evenodd" d="m22 12c0 5.5228-4.4772 10-10 10-5.52285 0-10-4.4772-10-10 0-5.52285 4.47715-10 10-10 5.5228 0 10 4.47715 10 10zm-2 0c0 4.4183-3.5817 8-8 8-4.41828 0-8-3.5817-8-8 0-4.41828 3.58172-8 8-8 4.4183 0 8 3.58172 8 8z" fill-rule="evenodd"/></g></svg>