<svg fill="none" height="24" viewBox="0 0 24 24" width="24" xmlns="http://www.w3.org/2000/svg"><path d="m7.17222 18.0249c-1.3556-.7387-2.477-1.8588-3.21696-3.2339-.93862-1.7443-1.19679-3.7747-.72455-5.6983.47224-1.92362 1.6413-3.60366 3.28093-4.71495s3.63326-1.5748 5.59496-1.30083l-.4366 3.12567c-1.1878-.1659-2.3949.11476-3.38769.78765-.9928.67288-1.70067 1.69015-1.98661 2.8549-.28594 1.16476-.12962 2.39416.43872 3.45026.44805.8327 1.12706 1.5109 1.94788 1.9582l6.1455-11.27823 2.6343 1.43543c1.3556.73866 2.477 1.85881 3.2169 3.23389.9387 1.74421 1.1968 3.77461.7246 5.69831-.4722 1.9236-1.6413 3.6036-3.2809 4.7149-1.6397 1.1113-3.6333 1.5748-5.595 1.3008l.4366-3.1256c1.1878.1659 2.3949-.1148 3.3877-.7877s1.7007-1.6901 1.9866-2.8549c.2859-1.1647.1296-2.3941-.4387-3.4503-.4481-.83259-1.1271-1.51082-1.9479-1.95808l-6.14553 11.27828z" fill="#f4f4f7"/></svg>