<svg fill="none" height="24" viewBox="0 0 24 24" width="24" xmlns="http://www.w3.org/2000/svg"><g fill="#f4f4f7"><path clip-rule="evenodd" d="m15 6h-6c-.55228 0-1 .44772-1 1v10c0 .5523.44772 1 1 1h6c.5523 0 1-.4477 1-1v-10c0-.55228-.4477-1-1-1zm-6-2c-1.65685 0-3 1.34315-3 3v10c0 1.6569 1.34315 3 3 3h6c1.6569 0 3-1.3431 3-3v-10c0-1.65685-1.3431-3-3-3z" fill-rule="evenodd"/><path d="m2 6c0-.55228.44772-1 1-1s1 .44772 1 1v12c0 .5523-.44772 1-1 1s-1-.4477-1-1z"/><path d="m20 6c0-.55228.4477-1 1-1s1 .44772 1 1v12c0 .5523-.4477 1-1 1s-1-.4477-1-1z"/></g></svg>