<svg fill="none" height="24" viewBox="0 0 24 24" width="24" xmlns="http://www.w3.org/2000/svg"><g clip-rule="evenodd" fill="#f4f4f7" fill-rule="evenodd"><path d="m12 16c2.2091 0 4-1.7909 4-4 0-2.20914-1.7909-4-4-4-2.20914 0-4 1.79086-4 4 0 2.2091 1.79086 4 4 4zm0 2c3.3137 0 6-2.6863 6-6 0-3.31371-2.6863-6-6-6-3.31371 0-6 2.68629-6 6 0 3.3137 2.68629 6 6 6z"/><path d="m11 0h2v4.06189c-.3276-.04085-.6613-.06189-1-.06189s-.6724.02104-1 .06189zm-3.9057 5.68018-2.87257-2.87257-1.41421 1.41422 2.87258 2.87258c.41061-.52823.88598-1.00361 1.4142-1.41423zm-3.03241 5.31982h-4.06189v2h4.06189c-.04085-.3276-.06189-.6613-.06189-1s.02104-.6724.06189-1zm1.61821 5.9056-2.87259 2.8726 1.41422 1.4142 2.87257-2.8726c-.52822-.4106-1.00359-.886-1.4142-1.4142zm5.3199 3.0325v4.0619h2v-4.0619c-.3276.0409-.6613.0619-1 .0619s-.6724-.021-1-.0619zm5.9056-1.6182 2.8725 2.8725 1.4142-1.4142-2.8725-2.8725c-.4106.5282-.886 1.0036-1.4142 1.4142zm3.0325-5.3199h4.0619v-2h-4.0619c.0409.3276.0619.6613.0619 1s-.021.6724-.0619 1zm-1.6183-5.9057 2.8725-2.87247-1.4142-1.41421-2.8725 2.87248c.5282.41061 1.0036.88598 1.4142 1.4142z"/></g></svg>