<svg fill="none" height="24" viewBox="0 0 24 24" width="24" xmlns="http://www.w3.org/2000/svg"><path clip-rule="evenodd" d="m12.2607 21.9966c-.0867.0022-.1736.0034-.2607.0034-.0872 0-.1741-.0012-.2607-.0034-4.05612-.1038-7.51168-2.6228-8.982-6.1724-1.01538-2.4568-1.0097-5.2362.01703-7.68939.50255-1.19809 1.23166-2.27763 2.13375-3.18502l.04175-.04175c.90276-.89748 1.97591-1.62375 3.16667-2.12602 2.4729-1.04079 5.2793-1.04269 7.7535-.00569 1.1988.5036 2.2788 1.23409 3.1862 2.13774l.0297.02966c.913.91681 1.6492 2.00978 2.1533 3.22348.4887 1.17941.742 2.43339.7598 3.69009.0007.0474.001.095.001.1427 0 .0506-.0004.1012-.0011.1516-.0613 4.1227-2.6175 7.6409-6.2258 9.1121-1.125.4576-2.3165.7019-3.5124.7329zm1.7715-6.5502 2.8738 2.8738c-2.8779 2.2397-6.93408 2.2397-9.81198 0l2.87377-2.8738c1.24971.7381 2.81471.7381 4.06441 0zm-5.47862-1.4142-2.87377 2.8738c-2.23974-2.8779-2.23974-6.93408 0-9.81198l2.87377 2.87377c-.7381 1.24971-.7381 2.81471 0 4.06441zm1.52882-1.4628c-.0051-.0171-.0099-.0343-.0145-.0515-.09052-.3389-.09052-.6969 0-1.0358.0877-.3284.2603-.6387.5179-.8963.2441-.2441.5355-.4119.8448-.5034.0171-.0051.0343-.0099.0515-.0145.3389-.09052.6969-.09053 1.0358 0 .3284.0877.6387.2603.8963.5179.2441.2441.4119.5355.5034.8448.0051.0171.0099.0343.0145.0515.0905.3389.0905.6969 0 1.0358-.0877.3283-.2603.6387-.5179.8963-.2441.2441-.5355.4119-.8448.5034-.0171.0051-.0343.0099-.0515.0145-.3389.0905-.6969.0905-1.0358 0-.3283-.0877-.6387-.2603-.8963-.5179-.2441-.2441-.4119-.5355-.5034-.8448zm3.9498-4.01583c-1.2497-.73809-2.8147-.73809-4.06441 0l-2.87377-2.87377c2.8779-2.23973 6.93408-2.23973 9.81198 0zm4.288 8.35243c2.2397-2.8779 2.2397-6.93408 0-9.81198l-2.8738 2.87377c.7381 1.24971.7381 2.81471 0 4.06441z" fill="#f4f4f7" fill-rule="evenodd"/></svg>