<svg fill="none" height="24" viewBox="0 0 24 24" width="24" xmlns="http://www.w3.org/2000/svg"><g clip-rule="evenodd" fill="#f4f4f7" fill-rule="evenodd"><path d="m2 8v8c0 .5523.44772 1 1 1h13.6202c.2919 0 .5693-.1276.7593-.3492l3.4285-4c.321-.3745.321-.9271 0-1.3016l-3.4285-3.99999c-.19-.22165-.4674-.34921-.7593-.34921h-13.6202c-.55228 0-1 .44772-1 1zm-2 0v8c0 1.6569 1.34315 3 3 3h13.6202c.8758 0 1.7078-.3827 2.2778-1.0476l3.4285-4c.963-1.1235.963-2.7813 0-3.9048l-3.4285-3.99997c-.57-.66494-1.402-1.04763-2.2778-1.04763h-13.6202c-1.65685 0-3 1.34315-3 3z"/><path d="m15 13c.5523 0 1-.4477 1-1s-.4477-1-1-1-1 .4477-1 1 .4477 1 1 1zm0 2c1.6569 0 3-1.3431 3-3s-1.3431-3-3-3-3 1.3431-3 3 1.3431 3 3 3z"/></g></svg>