<svg fill="none" height="24" viewBox="0 0 24 24" width="24" xmlns="http://www.w3.org/2000/svg"><g fill="#f4f4f7"><path d="m3.66124 2.67117c.05217-.27117.31832-.49099.59446-.49099h2c.27614 0 .45771.21982.40554.49099l-1.32247 6.87394c-.05217.27117-.31832.49099-.59446.49099h-2c-.27614 0-.45771-.21982-.40554-.49099z"/><path d="m8.66124 2.67117c.05217-.27117.31832-.49099.59446-.49099h2c.2761 0 .4577.21982.4055.49099l-3.58952 18.65783c-.05217.2712-.31832.491-.59446.491h-2c-.27614 0-.45771-.2198-.40554-.491z"/><path d="m13.6612 2.67117c.0522-.27117.3184-.49099.5945-.49099h2c.2761 0 .4577.21982.4055.49099l-3.5895 18.65783c-.0522.2712-.3183.491-.5945.491h-2c-.2761 0-.4577-.2198-.4055-.491z"/><path d="m18.6612 2.67117c.0522-.27117.3184-.49099.5945-.49099h2c.2761 0 .4577.21982.4055.49099l-1.3224 6.87394c-.0522.27117-.3183.49099-.5945.49099h-2c-.2761 0-.4577-.21982-.4055-.49099z"/></g></svg>