<svg fill="none" height="24" viewBox="0 0 24 24" width="24" xmlns="http://www.w3.org/2000/svg"><g fill="#f4f4f7"><path d="m12.0491 3.11401c2.1436 0 4.0902.84305 5.5265 2.21566l-1.4147 1.4147c-1.0739-1.01091-2.5205-1.63036-4.1118-1.63036-1.6405 0-3.12727.65842-4.21042 1.72543l-1.41424-1.41425c1.4451-1.42892 3.43187-2.31118 5.62466-2.31118z"/><path d="m10.9767 11.886c0-.5523.4477-1 1-1s1 .4477 1 1v2h-2z"/><path clip-rule="evenodd" d="m11.9767 6.88599c-2.76144 0-5.00002 2.23857-5.00002 5.00001v4c0 2.7614 2.23858 5 5.00002 5 2.7614 0 5-2.2386 5-5v-4c0-2.76144-2.2386-5.00001-5-5.00001zm3 9.00001v-4c0-1.6569-1.3432-3.00001-3-3.00001-1.6569 0-3.00002 1.34311-3.00002 3.00001v4c0 1.6568 1.34312 3 3.00002 3 1.6568 0 3-1.3432 3-3z" fill-rule="evenodd"/></g></svg>