<svg fill="none" height="24" viewBox="0 0 24 24" width="24" xmlns="http://www.w3.org/2000/svg"><g fill="#f4f4f7"><path clip-rule="evenodd" d="m14.9236 18v-4c0-1.6569-1.3432-3-3-3-1.6569 0-3.00005 1.3431-3.00005 3v4c0 1.6569 1.34315 3 3.00005 3 1.6568 0 3-1.3431 3-3zm-3-9c-2.76147 0-5.00005 2.2386-5.00005 5v4c0 2.7614 2.23858 5 5.00005 5 2.7614 0 5-2.2386 5-5v-4c0-2.7614-2.2386-5-5-5z" fill-rule="evenodd"/><path d="m10.9236 14c0-.5523.4477-1 1-1 .5522 0 1 .4477 1 1v3h-2z"/><path d="m11.9235 1c2.7788 0 5.2929 1.13339 7.1051 2.96311l-1.4142 1.41424c-1.4503-1.4678-3.4644-2.37735-5.6909-2.37735-2.14914 0-4.10039.84749-5.53773 2.22651l-1.41446-1.41446c1.79949-1.74083 4.25076-2.81205 6.95219-2.81205z"/><path clip-rule="evenodd" d="m11.9233 5c1.6576 0 3.1805.5761 4.3796 1.53898l-1.4261 1.42612c-.8275-.60677-1.8487-.9651-2.9535-.9651-1.0753 0-2.07126.33943-2.88668.91699l-1.42883-1.42883c1.18907-.9323 2.68741-1.48816 4.31551-1.48816z" fill-rule="evenodd"/></g></svg>