<svg fill="none" height="24" width="24" xmlns="http://www.w3.org/2000/svg"><g fill="#f4f4f7"><path clip-rule="evenodd" d="m14.924 18v-4a3 3 0 0 0 -6 0v4a3 3 0 1 0 6 0zm-3-9a5 5 0 0 0 -5 5v4a5 5 0 0 0 10 0v-4a5 5 0 0 0 -5-5z" fill-rule="evenodd"/><path d="m10.924 14a1 1 0 1 1 2 0v3h-2zm1-13a9.97 9.97 0 0 1 7.105 2.963l-1.415 1.414a7.976 7.976 0 0 0 -5.69-2.377c-2.15 0-4.1.847-5.538 2.227l-1.416-1.415a9.967 9.967 0 0 1 6.954-2.812z"/><path clip-rule="evenodd" d="m11.923 5a6.97 6.97 0 0 1 4.38 1.539l-1.426 1.426a4.978 4.978 0 0 0 -2.954-.965c-1.075 0-2.071.34-2.886.917l-1.43-1.429a6.97 6.97 0 0 1 4.317-1.488z" fill-rule="evenodd"/></g></svg>