<svg fill="none" height="24" viewBox="0 0 24 24" width="24" xmlns="http://www.w3.org/2000/svg"><path clip-rule="evenodd" d="m19.0711 19.0711c3.9052-3.9053 3.9052-10.23692 0-14.14217-3.9053-3.90524-10.23692-3.90524-14.14217 0-3.90524 3.90525-3.90524 10.23687 0 14.14217 3.90525 3.9052 10.23687 3.9052 14.14217 0zm.8715-8.0304c-.2062-1.71696-.9681-3.3799-2.2857-4.69755-1.3226-1.32255-2.993-2.08523-4.7167-2.28805l-.0102.05629c-.8214 4.47169-4.34696 7.99721-8.81864 8.81861l-.05625.0102c.20282 1.7237.9655 3.3941 2.28804 4.7167 1.31764 1.3176 2.98058 2.0795 4.69755 2.2857.0042-.0235.0084-.047.0127-.0705.8214-4.4717 4.3469-7.9973 8.8186-8.8187.0235-.0043.0471-.0085.0706-.0127zm-.0706 2.3885v-.3341c-3.3647.7635-6.0134 3.4122-6.777 6.777h.334c1.5487-.2797 3.0308-1.0182 4.2279-2.2152 1.197-1.1971 1.9354-2.6791 2.2151-4.2277zm-15.76064-2.5408v-.2224c.2663-1.58299 1.01023-3.1013 2.23179-4.32285 1.2215-1.2215 2.73973-1.96542 4.32265-2.23176h.2225c-.7635 3.36476-3.41218 6.01351-6.77694 6.77701z" fill="#f4f4f7" fill-rule="evenodd"/></svg>