<?xml version="1.0" encoding="UTF-8" standalone="no"?>
<svg
   width="16"
   height="16"
   fill="currentColor"
   class="bi bi-radioactive"
   viewBox="0 0 16 16"
   version="1.1"
   id="svg6"
   sodipodi:docname="text-editor.svg"
   inkscape:version="1.1.1 (3bf5ae0d25, 2021-09-20)"
   xmlns:inkscape="http://www.inkscape.org/namespaces/inkscape"
   xmlns:sodipodi="http://sodipodi.sourceforge.net/DTD/sodipodi-0.dtd"
   xmlns="http://www.w3.org/2000/svg"
   xmlns:svg="http://www.w3.org/2000/svg">
  <defs
     id="defs10" />
  <sodipodi:namedview
     id="namedview8"
     pagecolor="#ffffff"
     bordercolor="#666666"
     borderopacity="1.0"
     inkscape:pageshadow="2"
     inkscape:pageopacity="0.0"
     inkscape:pagecheckerboard="0"
     showgrid="false"
     inkscape:zoom="48.5625"
     inkscape:cx="8"
     inkscape:cy="8"
     inkscape:window-width="1886"
     inkscape:window-height="999"
     inkscape:window-x="0"
     inkscape:window-y="45"
     inkscape:window-maximized="0"
     inkscape:current-layer="svg6" />
  <path
     d="M8 1a7 7 0 1 0 0 14A7 7 0 0 0 8 1ZM0 8a8 8 0 1 1 16 0A8 8 0 0 1 0 8Z"
     id="path2"
     style="fill:#f4f4f7;fill-opacity:1" />
  <path
     d="M9.653 5.496A2.986 2.986 0 0 0 8 5c-.61 0-1.179.183-1.653.496L4.694 2.992A5.972 5.972 0 0 1 8 2c1.222 0 2.358.365 3.306.992L9.653 5.496Zm1.342 2.324a2.986 2.986 0 0 1-.884 2.312 3.01 3.01 0 0 1-.769.552l1.342 2.683c.57-.286 1.09-.66 1.538-1.103a5.986 5.986 0 0 0 1.767-4.624l-2.994.18Zm-5.679 5.548 1.342-2.684A3 3 0 0 1 5.005 7.82l-2.994-.18a6 6 0 0 0 3.306 5.728ZM10 8a2 2 0 1 1-4 0 2 2 0 0 1 4 0Z"
     id="path4"
     style="fill:#f4f4f7;fill-opacity:1" />
</svg>
