<svg fill="none" height="24" viewBox="0 0 24 24" width="24" xmlns="http://www.w3.org/2000/svg"><g fill="#f4f4f7"><path d="m16.9498 5.63615c.3905-.39052 1.0237-.39052 1.4142 0 .3905.39053.3905 1.02369 0 1.41422l-7.0711 7.07103c-.3905.3906-1.0236.3906-1.41417 0-.39052-.3905-.39052-1.0237 0-1.4142z"/><path clip-rule="evenodd" d="m7.82813 17.5862c1.94137 1.2863 4.58277 1.0741 6.29327-.6363l7.071-7.0711c1.9527-1.95263 1.9527-5.11845 0-7.07107-1.9526-1.952624-5.1184-1.952624-7.071 0l-7.0711 7.07107c-1.71046 1.7105-1.92259 4.3519-.63638 6.2932l-3.60626 3.6063c-.39052.3905-.39052 1.0237 0 1.4142.39053.3905 1.02369.3905 1.41422 0zm4.87907-2.0506 7.071-7.07102c1.1716-1.17157 1.1716-3.07107 0-4.24264-1.1715-1.17157-3.071-1.17157-4.2426 0l-7.07108 7.07106c-1.17158 1.1716-1.17158 3.0711 0 4.2426 1.17157 1.1716 3.07108 1.1716 4.24268 0z" fill-rule="evenodd"/></g></svg>