<svg fill="none" height="24" viewBox="0 0 24 24" width="24" xmlns="http://www.w3.org/2000/svg"><g fill="#f4f4f7"><path d="m12 19c.5523 0 1-.4477 1-1s-.4477-1-1-1-1 .4477-1 1 .4477 1 1 1z"/><path clip-rule="evenodd" d="m15 13.9997c1.2144.9122 2 2.3645 2 4.0003 0 2.7614-2.2386 5-5 5-2.76142 0-5-2.2386-5-5 0-1.6358.78555-3.0881 2-4.0003v-9.9997c0-1.65685 1.3431-3 3-3s3 1.34315 3 3zm-2-9.9997v11.1707c1.1652.4119 2 1.5231 2 2.8293 0 1.6569-1.3431 3-3 3s-3-1.3431-3-3c0-1.3062.83481-2.4174 2-2.8293v-11.1707c0-.55228.4477-1 1-1s1 .44772 1 1z" fill-rule="evenodd"/></g></svg>