<svg fill="none" height="24" viewBox="0 0 24 24" width="24" xmlns="http://www.w3.org/2000/svg"><g fill="#f4f4f7"><path d="m12 19c-1.933 0-3.68296-.7835-4.94971-2.0502l4.94971-4.9498v-7c3.866 0 7 3.13401 7 7 0 3.866-3.134 7-7 7z"/><path clip-rule="evenodd" d="m23 12c0 6.0751-4.9249 11-11 11-6.07513 0-11-4.9249-11-11 0-6.07513 4.92487-11 11-11 6.0751 0 11 4.92487 11 11zm-2 0c0 4.9706-4.0294 9-9 9-4.97056 0-9-4.0294-9-9 0-4.97056 4.02944-9 9-9 4.9706 0 9 4.02944 9 9z" fill-rule="evenodd"/></g></svg>