<svg fill="none" height="24" viewBox="0 0 24 24" width="24" xmlns="http://www.w3.org/2000/svg"><g fill="#f4f4f7"><path d="m13 5.07089c3.3923.48523 6 3.40264 6 6.92911 0 3.866-3.134 7-7 7-3.86599 0-7-3.134-7-7 0-2.03841.87128-3.87331 2.26175-5.15262l-1.41517-1.41517c-1.75197 1.64209-2.84658 3.97711-2.84658 6.56779 0 4.9706 4.02944 9 9 9 4.9706 0 9-4.0294 9-9 0-4.97056-4.0294-9-9-9-.338 0-.6717.01863-1 .05493v6.03058h2z"/><path d="m7.70711 8.70708c-.39053.39052-.39053 1.02369 0 1.41422l2.82839 2.8284c.3906.3905 1.0237.3905 1.4142 0 .3906-.3905.3906-1.0237 0-1.4142l-2.82838-2.82842c-.39052-.39053-1.02369-.39053-1.41421 0z"/></g></svg>