<svg fill="none" height="24" viewBox="0 0 24 24" width="24" xmlns="http://www.w3.org/2000/svg"><g fill="#f4f4f7"><rect height="10" opacity=".5" rx="1" width="10" x="7" y="9"/><path clip-rule="evenodd" d="m18 3h-12c-.55228 0-1 .44772-1 1v16c0 .5523.44772 1 1 1h12c.5523 0 1-.4477 1-1v-16c0-.55228-.4477-1-1-1zm-12-2c-1.65685 0-3 1.34315-3 3v16c0 1.6569 1.34315 3 3 3h12c1.6569 0 3-1.3431 3-3v-16c0-1.65685-1.3431-3-3-3z" fill-rule="evenodd"/><path d="m7 6c0-.55228.44772-1 1-1h4c.5523 0 1 .44772 1 1s-.4477 1-1 1h-4c-.55228 0-1-.44772-1-1z"/></g></svg>