<?xml version="1.0" encoding="UTF-8" standalone="no"?>
<svg
   width="16"
   height="16"
   fill="currentColor"
   class="bi bi-toggle-off"
   viewBox="0 0 16 16"
   version="1.1"
   id="svg4"
   sodipodi:docname="toggled-off.svg"
   inkscape:version="1.1.1 (3bf5ae0d25, 2021-09-20)"
   xmlns:inkscape="http://www.inkscape.org/namespaces/inkscape"
   xmlns:sodipodi="http://sodipodi.sourceforge.net/DTD/sodipodi-0.dtd"
   xmlns="http://www.w3.org/2000/svg"
   xmlns:svg="http://www.w3.org/2000/svg">
  <defs
     id="defs8" />
  <sodipodi:namedview
     id="namedview6"
     pagecolor="#ffffff"
     bordercolor="#666666"
     borderopacity="1.0"
     inkscape:pageshadow="2"
     inkscape:pageopacity="0.0"
     inkscape:pagecheckerboard="0"
     showgrid="false"
     inkscape:zoom="48.5625"
     inkscape:cx="8"
     inkscape:cy="8"
     inkscape:window-width="1886"
     inkscape:window-height="999"
     inkscape:window-x="0"
     inkscape:window-y="45"
     inkscape:window-maximized="0"
     inkscape:current-layer="svg4" />
  <path
     d="M11 4a4 4 0 0 1 0 8H8a4.992 4.992 0 0 0 2-4 4.992 4.992 0 0 0-2-4h3zm-6 8a4 4 0 1 1 0-8 4 4 0 0 1 0 8zM0 8a5 5 0 0 0 5 5h6a5 5 0 0 0 0-10H5a5 5 0 0 0-5 5z"
     id="path2"
     style="fill:#f4f4f7;fill-opacity:1" />
</svg>
