<svg fill="none" height="24" viewBox="0 0 24 24" width="24" xmlns="http://www.w3.org/2000/svg"><g fill="#f4f4f7"><path d="m12 15c1.6569 0 3-1.3431 3-3s-1.3431-3-3-3-3 1.3431-3 3 1.3431 3 3 3z"/><path clip-rule="evenodd" d="m12 3c.5523 0 1 .44772 1 1v1.07089c3.0657.43851 5.4906 2.86342 5.9291 5.92911h1.0709c.5523 0 1 .4477 1 1s-.4477 1-1 1h-1.0709c-.4385 3.0657-2.8634 5.4906-5.9291 5.9291v1.0709c0 .5523-.4477 1-1 1s-1-.4477-1-1v-1.0709c-3.06569-.4385-5.4906-2.8634-5.92911-5.9291h-1.07089c-.55228 0-1-.4477-1-1s.44772-1 1-1h1.07089c.43851-3.06569 2.86342-5.4906 5.92911-5.92911v-1.07089c0-.55228.4477-1 1-1zm-5 9c0-2.76142 2.23858-5 5-5 2.7614 0 5 2.23858 5 5 0 2.7614-2.2386 5-5 5-2.76142 0-5-2.2386-5-5z" fill-rule="evenodd"/></g></svg>