<svg fill="none" height="24" viewBox="0 0 24 24" width="24" xmlns="http://www.w3.org/2000/svg"><g fill="#f4f4f7"><path d="m6 7c0-.55229.44772-1 1-1h3c.5523 0 1 .44772 1 1v10c0 .5523-.4477 1-1 1h-3c-.55228 0-1-.4477-1-1z"/><path d="m13 7c0-.55228.4477-1 1-1h3c.5523 0 1 .44772 1 1v6c0 .5523-.4477 1-1 1h-3c-.5523 0-1-.4477-1-1z"/><path clip-rule="evenodd" d="m2 4c0-1.10457.89543-2 2-2h16c1.1046 0 2 .89543 2 2v16c0 1.1046-.8954 2-2 2h-16c-1.10457 0-2-.8954-2-2zm2 0h16v16h-16z" fill-rule="evenodd"/></g></svg>