<svg fill="none" height="24" viewBox="0 0 24 24" width="24" xmlns="http://www.w3.org/2000/svg"><g fill="#f4f4f7"><path d="m11 9c0 1.1046-.8954 2-2 2-1.10457 0-2-.8954-2-2 0-1.10457.89543-2 2-2 1.1046 0 2 .89543 2 2z"/><path d="m17 9c0 1.1046-.8954 2-2 2s-2-.8954-2-2c0-1.10457.8954-2 2-2s2 .89543 2 2z"/><path d="m15 17c1.1046 0 2-.8954 2-2s-.8954-2-2-2-2 .8954-2 2 .8954 2 2 2z"/><path d="m11 15c0 1.1046-.8954 2-2 2-1.10457 0-2-.8954-2-2s.89543-2 2-2c1.1046 0 2 .8954 2 2z"/><path clip-rule="evenodd" d="m24 12c0 6.6274-5.3726 12-12 12-6.62742 0-12-5.3726-12-12 0-6.62742 5.37258-12 12-12 6.6274 0 12 5.37258 12 12zm-3 0c0 4.9706-4.0294 9-9 9-4.97056 0-9-4.0294-9-9 0-4.97056 4.02944-9 9-9 4.9706 0 9 4.02944 9 9z" fill-rule="evenodd"/></g></svg>