<svg fill="none" height="24" viewBox="0 0 24 24" width="24" xmlns="http://www.w3.org/2000/svg"><path clip-rule="evenodd" d="m5.63604 18.364c3.51472 3.5147 9.21316 3.5147 12.72796 0 3.5147-3.5148 3.5147-9.21324 0-12.72796-3.5148-3.51472-9.21324-3.51472-12.72796 0s-3.51472 9.21316 0 12.72796zm2.17145-.7573c2.74181 2.0556 6.64871 1.8366 9.14221-.657 2.4936-2.4935 2.7126-6.4004.657-9.14221l-2.7783 2.77831c-.3905.3905-1.0237.3905-1.4142 0s-.3905-1.0237 0-1.41423l2.7783-2.7783c-2.7418-2.0556-6.64866-1.83661-9.14225.65698s-2.71258 6.40045-.65698 9.14225l2.7783-2.7783c.39053-.3905 1.02373-.3905 1.41423 0s.3905 1.0237 0 1.4142z" fill="#f4f4f7" fill-rule="evenodd"/></svg>