<svg fill="none" height="24" viewBox="0 0 24 24" width="24" xmlns="http://www.w3.org/2000/svg"><path clip-rule="evenodd" d="m2 8c0-1.65685 1.34315-3 3-3h14c1.6569 0 3 1.34315 3 3v8c0 1.6569-1.3431 3-3 3h-14c-1.65685 0-3-1.3431-3-3zm15-1h2c.5523 0 1 .44771 1 1v1h-3zm-2 0h-2v2h2zm-4 0h-2v2h2zm-4 0h-2c-.55228 0-1 .44772-1 1v1h3zm-3 4v2h3v-2zm0 4v1c0 .5523.44772 1 1 1h2v-2zm5 2h2v-2h-2zm4 0h2v-2h-2zm4 0h2c.5523 0 1-.4477 1-1v-1h-3zm3-4v-2h-3v2zm-9 0h-2v-2h2zm4 0h-2v-2h2z" fill="#f4f4f7" fill-rule="evenodd"/></svg>