<svg fill="none" height="24" viewBox="0 0 24 24" width="24" xmlns="http://www.w3.org/2000/svg"><g clip-rule="evenodd" fill="#f4f4f7" fill-rule="evenodd"><path d="m11.5 12c0 .3506-.0602.6872-.1707 1h2.3414c-.1105-.3128-.1707-.6494-.1707-1 0-1.6569 1.3431-3 3-3s3 1.3431 3 3-1.3431 3-3 3h-8c-1.65685 0-3-1.3431-3-3s1.34315-3 3-3c1.6569 0 3 1.3431 3 3zm-2 0c0 .5523-.44772 1-1 1s-1-.4477-1-1 .44772-1 1-1 1 .4477 1 1zm8 0c0 .5523-.4477 1-1 1s-1-.4477-1-1 .4477-1 1-1 1 .4477 1 1z"/><path d="m1.5 8c0-1.65685 1.34315-3 3-3h15c1.6569 0 3 1.34315 3 3v8c0 1.6569-1.3431 3-3 3h-15c-1.65685 0-3-1.3431-3-3zm3-1h15c.5523 0 1 .44772 1 1v8c0 .5523-.4477 1-1 1h-15c-.55228 0-1-.4477-1-1v-8c0-.55228.44772-1 1-1z"/></g></svg>