<svg fill="none" height="24" viewBox="0 0 24 24" width="24" xmlns="http://www.w3.org/2000/svg"><g clip-rule="evenodd" fill="#f4f4f7" fill-rule="evenodd"><path d="m11 12c0 .3506-.0602.6872-.1707 1h2.3414c-.1105-.3128-.1707-.6494-.1707-1 0-1.6569 1.3431-3 3-3s3 1.3431 3 3-1.3431 3-3 3h-8c-1.65685 0-3-1.3431-3-3s1.34315-3 3-3 3 1.3431 3 3zm-2 0c0 .5523-.44772 1-1 1s-1-.4477-1-1 .44772-1 1-1 1 .4477 1 1zm8 0c0 .5523-.4477 1-1 1s-1-.4477-1-1 .4477-1 1-1 1 .4477 1 1z"/><path d="m23 12c0 6.0751-4.9249 11-11 11-6.07513 0-11-4.9249-11-11 0-6.07513 4.92487-11 11-11 6.0751 0 11 4.92487 11 11zm-2 0c0 4.9706-4.0294 9-9 9-4.97056 0-9-4.0294-9-9 0-4.97056 4.02944-9 9-9 4.9706 0 9 4.02944 9 9z"/></g></svg>