<svg fill="none" height="24" viewBox="0 0 24 24" width="24" xmlns="http://www.w3.org/2000/svg"><path clip-rule="evenodd" d="m10.0004 15c.6277-.8357.9996-1.8744.9996-3 0-2.76142-2.23858-5-5-5s-5 2.23858-5 5c0 2.7614 2.23858 5 5 5h12c2.7614 0 5-2.2386 5-5 0-2.76142-2.2386-5-5-5s-5 2.23858-5 5c0 1.1256.3719 2.1643.9996 3zm-4.0004 0c1.65685 0 3-1.3431 3-3s-1.34315-3-3-3-3 1.3431-3 3 1.34315 3 3 3zm12 0c1.6569 0 3-1.3431 3-3s-1.3431-3-3-3-3 1.3431-3 3 1.3431 3 3 3z" fill="#f4f4f7" fill-rule="evenodd"/></svg>