<svg height="32" viewBox="0 0 32 32" width="32" xmlns="http://www.w3.org/2000/svg"><path d="m16.83 15.028-.069-.189c-.016.009-.033.018-.05.026l.119.162zm.506-.404-.132-.151c-.012.015-.026.028-.038.042zm.326-.561-.178-.093c-.006.018-.013.036-.019.053zm.101-.64-.201-.023c.001.019.003.038.003.057zm-.136-.634-.195.051c.008.017.015.035.022.052zm-2.65 2.119.138-.145c-.016-.011-.03-.023-.045-.034l-.092.179zm1.234.315.004-.201c-.019.003-.037.007-.056.008zm-.647-.042.077-.186c-.018-.004-.037-.009-.055-.014zm-.449-.418c.142.098.301.171.472.218l.088-.806-.559.588zm1.628-2.891-.11.169c.017.008.034.016.051.025l.058-.193zm-2.267.713.157.124c.009-.017.019-.032.029-.048l-.187-.076zm-.218.61.191.059c.003-.019.005-.037.009-.056zm.018.648.199-.014c-.004-.018-.009-.036-.013-.055l-.187.069zm2.995-1.595-.163.118c.013.013.025.028.038.042zm-2.745 2.193.181-.085c-.011-.016-.02-.032-.03-.048zm1.115.554c.116.027.235.043.359.043.054 0 .107-.003.16-.008l-.21-.784zm.474-3.283-.041.198c.019.001.038.001.057.003l-.015-.2zm-.644.077.033.198c.018-.006.036-.012.054-.017l-.086-.181zm-.572.305.102.172c.015-.012.03-.023.045-.034zm1.862 2.746c.153-.085.289-.196.405-.325l-.681-.437zm-.285-1.297c0 .263-.213.476-.476.476s-.476-.213-.476-.476.213-.476.476-.476.476.213.476.476zm-2 .286c.04.172.109.334.201.479l.608-.536zm-.026-.575c-.01.071-.017.144-.017.218 0 .103.011.204.03.302l.762-.281zm.619 1.475.372-.719-.734.346c.099.144.222.269.362.373zm.931.913c1.197 0 2.17-.973 2.17-2.169s-.974-2.171-2.17-2.171-2.17.974-2.17 2.171c0 1.196.974 2.169 2.17 2.169zm0-3.972c.994 0 1.802.809 1.802 1.802s-.809 1.802-1.802 1.802-1.802-.808-1.802-1.802.809-1.802 1.802-1.802zm-1.367 1.039c-.084.15-.143.315-.175.49l.811.013zm7.256 9.828c-4.13-1.028-5.889 1.067-5.889 1.067-.02 2.095 2.846 5.85 6.363 6.304s5.77-1.225 5.77-1.225-2.114-5.118-6.244-6.146zm-11.778 0c-4.13 1.027-6.244 6.146-6.244 6.146s2.253 1.68 5.77 1.225c3.517-.454 6.383-4.209 6.363-6.304 0 0-1.759-2.095-5.889-1.067zm6.105-7.515c.176-.024.343-.078.495-.156l-.478-.654-.018.81zm-11.717 3.187h23.002l.711-2.134h-3.378l.662-3.826.881-5.095s-2.327-4.568-10.326-4.568c-9.723 0-10.428 4.568-10.428 4.568l1.543 8.921h-3.379l.711 2.134zm11.501-7.233c1.377 0 2.497 1.12 2.497 2.497 0 1.376-1.12 2.495-2.497 2.495s-2.497-1.12-2.497-2.495c0-1.377 1.12-2.497 2.497-2.497zm1.563 2.424c-.008-.178-.046-.349-.109-.508l-.695.415.804.092zm-.079.57c.053-.156.082-.324.082-.498 0-.005-.001-.01-.001-.015l-.799.137zm-.28.503c.111-.133.198-.285.261-.449l-.794-.161.533.611zm.228-1.633c-.071-.16-.168-.306-.286-.433l-.497.637.784-.205zm-.324-.474c-.122-.123-.266-.224-.423-.3l-.234.775.657-.474zm-2.107-.099c-.134.111-.248.245-.338.394l.751.305-.412-.699zm1.072-.358c-.025-.001-.049-.004-.073-.004-.154 0-.302.023-.442.065l.35.732.166-.792zm-.569.078c-.167.056-.321.139-.458.245l.59.555zm1.129.053c-.156-.069-.325-.114-.503-.128l.062.807z" fill="#f4f4f7"/></svg>