<svg fill="none" height="24" viewBox="0 0 24 24" width="24" xmlns="http://www.w3.org/2000/svg"><g fill="#f4f4f7"><path d="m14 16c0 1.1046-.8954 2-2 2s-2-.8954-2-2 .8954-2 2-2 2 .8954 2 2z"/><path clip-rule="evenodd" d="m22 12c0 5.5228-4.4772 10-10 10-5.52285 0-10-4.4772-10-10 0-5.52285 4.47715-10 10-10 5.5228 0 10 4.47715 10 10zm-10 0c-2.20914 0-4-1.7909-4-4 0-2.20914 1.79086-4 4-4-4.41828 0-8 3.58172-8 8 0 4.4183 3.58172 8 8 8 2.2091 0 4-1.7909 4-4s-1.7909-4-4-4zm2-4c0 1.10457-.8954 2-2 2s-2-.89543-2-2 .8954-2 2-2 2 .89543 2 2z" fill-rule="evenodd"/></g></svg>