<svg fill="none" height="24" viewBox="0 0 24 24" width="24" xmlns="http://www.w3.org/2000/svg"><path clip-rule="evenodd" d="m15.3431 15.2426c2.3432-2.3431 2.3432-6.1421 0-8.48524-2.3431-2.34315-6.14209-2.34315-8.48524 0-2.34314 2.34314-2.34314 6.14214 0 8.48524 2.34315 2.3432 6.14214 2.3432 8.48524 0zm1.4143-9.89945c2.8851 2.88518 3.1059 7.42585.6621 10.56435.0153.0135.0303.0276.045.0422l4.2426 4.2427c.3905.3905.3905 1.0237 0 1.4142s-1.0237.3905-1.4142 0l-4.2426-4.2426c-.0147-.0147-.0288-.0297-.0423-.045-3.1385 2.4438-7.67917 2.223-10.56435-.6621-3.12419-3.1242-3.12419-8.18956 0-11.31375 3.1242-3.1242 8.18955-3.1242 11.31375 0zm-9.65688 4.65685v2h7.99998v-2z" fill="#f4f4f7" fill-rule="evenodd"/></svg>