<svg fill="#f4f4f7" height="60" stroke="#f4f47" stroke-linecap="round" stroke-linejoin="round" stroke-width="2" viewBox="0 0 24 24" width="60" xmlns="http://www.w3.org/2000/svg"><path d="m5 5.5a3.5 3.5 0 0 1 3.5-3.5h3.5v7h-3.5a3.5 3.5 0 0 1 -3.5-3.5z"/><path d="m12 2h3.5a3.5 3.5 0 1 1 0 7h-3.5z"/><path d="m12 12.5a3.5 3.5 0 1 1 7 0 3.5 3.5 0 1 1 -7 0z"/><path d="m5 19.5a3.5 3.5 0 0 1 3.5-3.5h3.5v3.5a3.5 3.5 0 1 1 -7 0z"/><path d="m5 12.5a3.5 3.5 0 0 1 3.5-3.5h3.5v7h-3.5a3.5 3.5 0 0 1 -3.5-3.5z"/></svg>