<svg height="210mm" viewBox="0 0 210 210" width="210mm" xmlns="http://www.w3.org/2000/svg"><g fill="#f4f4f7" stroke-linejoin="round"><path d="m21.77812 8.8308784c-5.811421 0-10.491091 4.6782896-10.491091 10.4897626v172.773689c0 5.81147 4.67967 10.48976 10.491091 10.48976h172.77233c5.81143 0 10.48976-4.67829 10.48976-10.48976v-172.773689c0-5.811473-4.67833-10.4897626-10.48976-10.4897626zm7.391309 8.2886486h157.989701c5.31428 0 9.59246 4.278164 9.59246 9.592393v157.9911c0 5.31427-4.27818 9.59241-9.59246 9.59241h-157.989701c-5.314189 0-9.592409-4.27814-9.592409-9.59241v-157.9911c0-5.314229 4.27822-9.592393 9.592409-9.592393z" stroke-width="7.9375"/><path d="m55.793569 51.61754c-3.52304 0-6.359819 2.344469-6.359819 5.256141v.95893 7.797298 37.434841 7.7958.96126c0 2.9117 2.836779 5.25614 6.359819 5.25614h8.49652v19.44759c0 2.43993 2.20955 4.40282 4.952699 4.40282h14.053062v16.05771c0 1.55797 1.260931 2.81136 2.826785 2.81136h44.080185c1.56582 0 2.82679-1.25339 2.82679-2.81136v-16.05771h14.05485c2.74319 0 4.95091-1.96289 4.95091-4.40282v-19.44759h8.49829c3.52305 0 6.35983-2.34444 6.35983-5.25614v-8.21611-38.515802-8.216099c0-2.911667-2.83678-5.256149-6.35983-5.256149zm1.611961 7.022921h101.51619v6.989798h.0263v37.434841h-.0263v6.98819h-15.43317v10.18365h-.004v9.54042c0 1.96438-1.77737 3.54791-3.98593 3.54791h-10.20884v2.84927h-.26784v18.47883c0 1.30692-1.05871 2.35778-2.37216 2.35778h-36.973938c-1.313441 0-2.370316-1.05108-2.370316-2.35778v-18.47883h-.289321v-2.84927h-10.187557c-2.20855 0-3.987689-1.58353-3.987689-3.54791v-9.54042h-.002v-10.18365h-15.432909v-6.98819h-.0272v-37.434841h.0272zm16.969979 1.896061v23.825387c0 .788628.0381-23.825387.0381-23.825387 0-.788611-.0381-.788611-.0381 0zm16.429439 0v23.825387zm16.687842 0v23.825387c0 .788628.0482-23.825387.0482-23.825387 0-.788611-.0482-.788611-.0482 0zm16.17555 0v23.825387c0 .788628.009-23.825387.009-23.825387 0-.788611-.009-.788611-.009 0zm17.01517 0v23.825387c0 .788628.009-23.825387.009-23.825387 0-.788611-.009-.788611-.009 0z" stroke-width="5.291667"/></g></svg>