<?xml version="1.0" encoding="UTF-8" standalone="no"?>
<svg
   viewBox="0 0 135 135"
   version="1.1"
   id="svg8"
   sodipodi:docname="cpu.svg"
   inkscape:version="1.2 (dc2aedaf03, 2022-05-15)"
   xmlns:inkscape="http://www.inkscape.org/namespaces/inkscape"
   xmlns:sodipodi="http://sodipodi.sourceforge.net/DTD/sodipodi-0.dtd"
   xmlns="http://www.w3.org/2000/svg"
   xmlns:svg="http://www.w3.org/2000/svg"
   xmlns:rdf="http://www.w3.org/1999/02/22-rdf-syntax-ns#"
   xmlns:cc="http://creativecommons.org/ns#"
   xmlns:dc="http://purl.org/dc/elements/1.1/">
  <sodipodi:namedview
     id="namedview24"
     pagecolor="#ffffff"
     bordercolor="#000000"
     borderopacity="0.5"
     inkscape:showpageshadow="2"
     inkscape:pageopacity="0.0"
     inkscape:pagecheckerboard="0"
     inkscape:deskcolor="#d1d1d1"
     showgrid="false"
     inkscape:zoom="2.2994065"
     inkscape:cx="1.0872371"
     inkscape:cy="93.937283"
     inkscape:window-maximized="0"
     inkscape:current-layer="svg8" />
  <defs
     id="defs2" />
  <metadata
     id="metadata5">
    <rdf:RDF>
      <cc:Work
         rdf:about="">
        <dc:format>image/svg+xml</dc:format>
        <dc:type
           rdf:resource="http://purl.org/dc/dcmitype/StillImage" />
        <dc:title />
      </cc:Work>
    </rdf:RDF>
  </metadata>
  <g
     id="layer1"
     transform="matrix(0.55118371,0,0,0.55669082,22.665184,-6.3629498)"
     style="stroke:none;stroke-opacity:1;stroke-width:1.00012561;stroke-dasharray:none;stroke-dashoffset:0;paint-order:markers stroke fill;stroke-linecap:round;stroke-linejoin:bevel;fill:#f4f4f7;fill-opacity:1">
    <path
       style="color:#000000;font-style:normal;font-variant:normal;font-weight:normal;font-stretch:normal;font-size:medium;line-height:normal;font-family:sans-serif;font-variant-ligatures:normal;font-variant-position:normal;font-variant-caps:normal;font-variant-numeric:normal;font-variant-alternates:normal;font-variant-east-asian:normal;font-feature-settings:normal;font-variation-settings:normal;text-indent:0;text-align:start;text-decoration:none;text-decoration-line:none;text-decoration-style:solid;text-decoration-color:#000000;letter-spacing:normal;word-spacing:normal;text-transform:none;writing-mode:lr-tb;direction:ltr;text-orientation:mixed;dominant-baseline:auto;baseline-shift:baseline;text-anchor:start;white-space:normal;shape-padding:0;shape-margin:0;inline-size:0;clip-rule:nonzero;display:inline;overflow:visible;visibility:visible;opacity:1;isolation:auto;mix-blend-mode:normal;color-interpolation:sRGB;color-interpolation-filters:linearRGB;solid-color:#000000;solid-opacity:1;fill:#f4f4f7;fill-opacity:1;fill-rule:nonzero;stroke:none;stroke-linecap:round;stroke-linejoin:bevel;stroke-miterlimit:20.1;stroke-dasharray:none;stroke-dashoffset:0;stroke-opacity:1;color-rendering:auto;image-rendering:auto;shape-rendering:auto;text-rendering:auto;enable-background:accumulate;stop-color:#000000;stop-opacity:1;stroke-width:1.00012561;paint-order:markers stroke fill"
       d="m 50.568359,78.638672 c -8.45148,0 -15.429687,6.978207 -15.429687,15.429687 v 75.128911 c 0,8.45148 6.978207,15.43164 15.429687,15.43164 h 75.128911 c 8.45148,0 15.43164,-6.98016 15.43164,-15.43164 V 94.068359 c 0,-8.45148 -6.98016,-15.429687 -15.43164,-15.429687 z m 0,11.207031 h 75.128911 c 2.43568,0 4.22265,1.78697 4.22265,4.222656 v 75.128911 c 0,2.43568 -1.78697,4.22265 -4.22265,4.22265 H 50.568359 c -2.435686,0 -4.222656,-1.78697 -4.222656,-4.22265 V 94.068359 c 0,-2.435686 1.78697,-4.222656 4.222656,-4.222656 z"
       id="rect841" />
    <path
       id="path29116"
       style="color:#000000;font-style:normal;font-variant:normal;font-weight:normal;font-stretch:normal;font-size:medium;line-height:normal;font-family:sans-serif;font-variant-ligatures:normal;font-variant-position:normal;font-variant-caps:normal;font-variant-numeric:normal;font-variant-alternates:normal;font-variant-east-asian:normal;font-feature-settings:normal;font-variation-settings:normal;text-indent:0;text-align:start;text-decoration:none;text-decoration-line:none;text-decoration-style:solid;text-decoration-color:#000000;letter-spacing:normal;word-spacing:normal;text-transform:none;writing-mode:lr-tb;direction:ltr;text-orientation:mixed;dominant-baseline:auto;baseline-shift:baseline;text-anchor:start;white-space:normal;shape-padding:0;shape-margin:0;inline-size:0;clip-rule:nonzero;display:inline;overflow:visible;visibility:visible;isolation:auto;mix-blend-mode:normal;color-interpolation:sRGB;color-interpolation-filters:linearRGB;solid-color:#000000;solid-opacity:1;fill:#f4f4f7;fill-opacity:1;fill-rule:nonzero;stroke:none;stroke-width:3.78000235;stroke-linecap:round;stroke-linejoin:bevel;stroke-miterlimit:20.1;stroke-dasharray:none;stroke-dashoffset:0;stroke-opacity:1;color-rendering:auto;image-rendering:auto;shape-rendering:auto;text-rendering:auto;enable-background:accumulate;stop-color:#000000;paint-order:markers stroke fill"
       d="m 172.57617,0.00390625 c -4.89916,0 -9.3207,0.04269301 -12.54101,0.1171875 -1.61016,0.0374173 -2.91171,0.0806928 -3.86133,0.1328125 -0.47481,0.0260787 -0.85425,0.0482434 -1.20313,0.0878906 -0.17442,0.0196535 -0.32242,0.0345759 -0.59765,0.0976562 -0.13762,0.0313701 -0.29286,0.0537614 -0.65625,0.22070313 -0.0909,0.041726 -0.19548,0.097684 -0.32618,0.17773437 -0.13069,0.0800882 -0.47074,0.35958955 -0.47265,0.36132815 -0.002,0.00175 -0.61818,0.7814456 -0.61914,0.7832031 -9.6e-4,0.00176 -0.36914,1.4513599 -0.36914,1.453125 V 67.539062 c 0,0.0018 0.36816,1.445505 0.36914,1.447266 9.6e-4,0.0018 0.61723,0.789262 0.61914,0.791016 0.002,0.0018 0.34196,0.273427 0.47265,0.353515 0.1307,0.08009 0.23532,0.136009 0.32618,0.177735 0.3634,0.166941 0.51862,0.189182 0.65625,0.220703 0.27526,0.06308 0.42321,0.07586 0.59765,0.0957 0.34889,0.03965 0.72832,0.06966 1.20313,0.0957 0.94962,0.05212 2.25117,0.09555 3.86133,0.132813 3.22031,0.07453 7.64185,0.11914 12.54101,0.11914 4.89917,0 9.32266,-0.04461 12.54297,-0.11914 1.61016,-0.03742 2.90976,-0.08069 3.85938,-0.132813 0.4748,-0.02608 0.85619,-0.05606 1.20507,-0.0957 0.17443,-0.01965 0.32242,-0.03262 0.59766,-0.0957 0.13761,-0.03137 0.29286,-0.05376 0.65625,-0.220703 0.0909,-0.04173 0.19352,-0.09768 0.32422,-0.177735 0.13069,-0.08009 0.47075,-0.351777 0.47266,-0.353515 0.002,-0.0018 0.62013,-0.789258 0.62109,-0.791016 9.5e-4,-0.0018 0.36914,-1.4455 0.36914,-1.447266 V 3.4355469 c 0,-0.00177 -0.36816,-1.4513638 -0.36914,-1.453125 -9.6e-4,-0.00176 -0.61919,-0.7814494 -0.62109,-0.7832031 -0.002,-0.00175 -0.34197,-0.28127778 -0.47266,-0.36132818 -0.1307,-0.0800882 -0.23336,-0.13600839 -0.32422,-0.17773437 -0.3634,-0.16694173 -0.51863,-0.18918187 -0.65625,-0.22070313 -0.27526,-0.0630803 -0.42322,-0.0778137 -0.59766,-0.0976562 -0.34888,-0.0396473 -0.73027,-0.0618119 -1.20507,-0.0878906 -0.94962,-0.0521197 -2.24922,-0.0955464 -3.85938,-0.1328125 -3.22031,-0.07449449 -7.6438,-0.1171875 -12.54297,-0.11718757 z"
       transform="matrix(0.26458333,0,0,0.26458333,20.39957,63.899563)" />
    <path
       id="path29110"
       style="color:#000000;font-style:normal;font-variant:normal;font-weight:normal;font-stretch:normal;font-size:medium;line-height:normal;font-family:sans-serif;font-variant-ligatures:normal;font-variant-position:normal;font-variant-caps:normal;font-variant-numeric:normal;font-variant-alternates:normal;font-variant-east-asian:normal;font-feature-settings:normal;font-variation-settings:normal;text-indent:0;text-align:start;text-decoration:none;text-decoration-line:none;text-decoration-style:solid;text-decoration-color:#000000;letter-spacing:normal;word-spacing:normal;text-transform:none;writing-mode:lr-tb;direction:ltr;text-orientation:mixed;dominant-baseline:auto;baseline-shift:baseline;text-anchor:start;white-space:normal;shape-padding:0;shape-margin:0;inline-size:0;clip-rule:nonzero;display:inline;overflow:visible;visibility:visible;isolation:auto;mix-blend-mode:normal;color-interpolation:sRGB;color-interpolation-filters:linearRGB;solid-color:#000000;solid-opacity:1;fill:#f4f4f7;fill-opacity:1;fill-rule:nonzero;stroke:none;stroke-width:3.78000235;stroke-linecap:round;stroke-linejoin:bevel;stroke-miterlimit:20.1;stroke-dasharray:none;stroke-dashoffset:0;stroke-opacity:1;color-rendering:auto;image-rendering:auto;shape-rendering:auto;text-rendering:auto;enable-background:accumulate;stop-color:#000000;paint-order:markers stroke fill"
       d="m 256,0.00390625 c -4.89916,0 -9.32265,0.04269301 -12.54297,0.1171875 -1.61016,0.0374173 -2.90976,0.0806928 -3.85937,0.1328125 -0.47481,0.0260787 -0.85425,0.0482434 -1.20313,0.0878906 -0.17442,0.0196535 -0.32242,0.0345759 -0.59765,0.0976562 -0.13762,0.0313701 -0.29481,0.0537614 -0.65821,0.22070313 -0.0909,0.041726 -0.19352,0.097684 -0.32422,0.17773437 -0.13069,0.0800882 -0.47075,0.35958955 -0.47265,0.36132815 -0.002,0.00175 -0.62014,0.7814456 -0.6211,0.7832031 -9.5e-4,0.00176 -0.36914,1.4513599 -0.36914,1.453125 V 67.539062 c 0,0.0018 0.36816,1.445505 0.36914,1.447266 9.6e-4,0.0018 0.61919,0.789262 0.6211,0.791016 0.002,0.0018 0.34196,0.273427 0.47265,0.353515 0.1307,0.08009 0.23336,0.136009 0.32422,0.177735 0.3634,0.166941 0.52058,0.189182 0.65821,0.220703 0.27526,0.06308 0.42321,0.07586 0.59765,0.0957 0.34889,0.03965 0.72832,0.06966 1.20313,0.0957 0.94961,0.05212 2.24921,0.09555 3.85937,0.132813 3.22032,0.07453 7.64381,0.11914 12.54297,0.11914 4.89917,0 9.3207,-0.04461 12.54102,-0.11914 1.61015,-0.03742 2.91171,-0.08069 3.86132,-0.132813 0.47481,-0.02608 0.85425,-0.05606 1.20313,-0.0957 0.17442,-0.01965 0.32242,-0.03262 0.59765,-0.0957 0.13762,-0.03137 0.29481,-0.05376 0.65821,-0.220703 0.0909,-0.04173 0.19352,-0.09768 0.32422,-0.177735 0.13069,-0.08009 0.47075,-0.351777 0.47265,-0.353515 0.002,-0.0018 0.61819,-0.789258 0.61914,-0.791016 9.6e-4,-0.0018 0.36914,-1.4455 0.36914,-1.447266 V 3.4355469 c 0,-0.00177 -0.36815,-1.4513638 -0.36914,-1.453125 -9.5e-4,-0.00176 -0.61723,-0.7814494 -0.61914,-0.7832031 -0.002,-0.00175 -0.34196,-0.28127778 -0.47265,-0.36132818 -0.1307,-0.0800882 -0.23336,-0.13600839 -0.32422,-0.17773437 -0.3634,-0.16694173 -0.52058,-0.18918187 -0.65821,-0.22070313 -0.27526,-0.0630803 -0.42321,-0.0778137 -0.59765,-0.0976562 -0.34889,-0.0396473 -0.72832,-0.0618119 -1.20313,-0.0878906 -0.94961,-0.0521197 -2.25117,-0.0955464 -3.86132,-0.1328125 C 265.3207,0.04659926 260.89917,0.00390625 256,0.00390625 Z"
       transform="matrix(0.26458333,0,0,0.26458333,20.39957,63.899563)" />
    <path
       id="path29104"
       style="color:#000000;font-style:normal;font-variant:normal;font-weight:normal;font-stretch:normal;font-size:medium;line-height:normal;font-family:sans-serif;font-variant-ligatures:normal;font-variant-position:normal;font-variant-caps:normal;font-variant-numeric:normal;font-variant-alternates:normal;font-variant-east-asian:normal;font-feature-settings:normal;font-variation-settings:normal;text-indent:0;text-align:start;text-decoration:none;text-decoration-line:none;text-decoration-style:solid;text-decoration-color:#000000;letter-spacing:normal;word-spacing:normal;text-transform:none;writing-mode:lr-tb;direction:ltr;text-orientation:mixed;dominant-baseline:auto;baseline-shift:baseline;text-anchor:start;white-space:normal;shape-padding:0;shape-margin:0;inline-size:0;clip-rule:nonzero;display:inline;overflow:visible;visibility:visible;isolation:auto;mix-blend-mode:normal;color-interpolation:sRGB;color-interpolation-filters:linearRGB;solid-color:#000000;solid-opacity:1;fill:#f4f4f7;fill-opacity:1;fill-rule:nonzero;stroke:none;stroke-width:3.78000235;stroke-linecap:round;stroke-linejoin:bevel;stroke-miterlimit:20.1;stroke-dasharray:none;stroke-dashoffset:0;stroke-opacity:1;color-rendering:auto;image-rendering:auto;shape-rendering:auto;text-rendering:auto;enable-background:accumulate;stop-color:#000000;paint-order:markers stroke fill"
       d="m 339.42188,0.00390625 c -4.89918,0 -9.32071,0.04269301 -12.54102,0.1171875 -1.61015,0.0374173 -2.91168,0.0806928 -3.86133,0.1328125 -0.47478,0.0260787 -0.85427,0.0482434 -1.20312,0.0878906 -0.17462,0.0196535 -0.32247,0.0345759 -0.59766,0.0976562 -0.13757,0.0313701 -0.29292,0.0537614 -0.65625,0.22070313 -0.0907,0.041726 -0.19578,0.097684 -0.32617,0.17773437 -0.13077,0.0800882 -0.47077,0.35958955 -0.47266,0.36132815 -0.002,0.00175 -0.61816,0.7814456 -0.61914,0.7832031 -9.4e-4,0.00176 -0.36914,1.4513599 -0.36914,1.453125 V 67.539062 c 0,0.0018 0.36801,1.445505 0.36914,1.447266 9.8e-4,0.0018 0.61721,0.789262 0.61914,0.791016 0.002,0.0018 0.34189,0.273427 0.47266,0.353515 0.13077,0.08009 0.23546,0.136009 0.32617,0.177735 0.36359,0.166941 0.51864,0.189182 0.65625,0.220703 0.27515,0.06308 0.42319,0.07586 0.59766,0.0957 0.34885,0.03965 0.72834,0.06966 1.20312,0.0957 0.94965,0.05212 2.25118,0.09555 3.86133,0.132813 3.22031,0.07453 7.64184,0.11914 12.54102,0.11914 4.89917,0 9.32266,-0.04461 12.54296,-0.11914 1.61016,-0.03742 2.90977,-0.08069 3.85938,-0.132813 0.47482,-0.02608 0.85424,-0.05606 1.20312,-0.0957 0.17462,-0.01965 0.32446,-0.03262 0.59961,-0.0957 0.13758,-0.03137 0.29293,-0.05376 0.65625,-0.220703 0.0907,-0.04173 0.19383,-0.09768 0.32422,-0.177735 0.13077,-0.08009 0.47077,-0.351777 0.47266,-0.353515 0.002,-0.0018 0.62015,-0.789258 0.62109,-0.791016 9.8e-4,-0.0018 0.36914,-1.4455 0.36914,-1.447266 V 3.4355469 c 0,-0.00177 -0.368,-1.4513638 -0.36914,-1.453125 -9.4e-4,-0.00176 -0.6192,-0.7814494 -0.62109,-0.7832031 -0.002,-0.00175 -0.34189,-0.28127778 -0.47266,-0.36132818 -0.13077,-0.0800882 -0.23351,-0.13600839 -0.32422,-0.17773437 -0.36359,-0.16694173 -0.5186,-0.18918187 -0.65625,-0.22070313 -0.27515,-0.0630803 -0.42514,-0.0778137 -0.59961,-0.0976562 -0.34885,-0.0396473 -0.7283,-0.0618119 -1.20312,-0.0878906 -0.94961,-0.0521197 -2.24922,-0.0955464 -3.85938,-0.1328125 -3.2203,-0.07449449 -7.64379,-0.1171875 -12.54296,-0.11718757 z"
       transform="matrix(0.26458333,0,0,0.26458333,20.39957,63.899563)" />
    <path
       id="path29098"
       style="color:#000000;font-style:normal;font-variant:normal;font-weight:normal;font-stretch:normal;font-size:medium;line-height:normal;font-family:sans-serif;font-variant-ligatures:normal;font-variant-position:normal;font-variant-caps:normal;font-variant-numeric:normal;font-variant-alternates:normal;font-variant-east-asian:normal;font-feature-settings:normal;font-variation-settings:normal;text-indent:0;text-align:start;text-decoration:none;text-decoration-line:none;text-decoration-style:solid;text-decoration-color:#000000;letter-spacing:normal;word-spacing:normal;text-transform:none;writing-mode:lr-tb;direction:ltr;text-orientation:mixed;dominant-baseline:auto;baseline-shift:baseline;text-anchor:start;white-space:normal;shape-padding:0;shape-margin:0;inline-size:0;clip-rule:nonzero;display:inline;overflow:visible;visibility:visible;isolation:auto;mix-blend-mode:normal;color-interpolation:sRGB;color-interpolation-filters:linearRGB;solid-color:#000000;solid-opacity:1;fill:#f4f4f7;fill-opacity:1;fill-rule:nonzero;stroke:none;stroke-width:3.78000235;stroke-linecap:round;stroke-linejoin:bevel;stroke-miterlimit:20.1;stroke-dasharray:none;stroke-dashoffset:0;stroke-opacity:1;color-rendering:auto;image-rendering:auto;shape-rendering:auto;text-rendering:auto;enable-background:accumulate;stop-color:#000000;paint-order:markers stroke fill"
       d="m 339.42188,441.02734 c -4.89918,0 -9.32071,0.0427 -12.54102,0.11719 -1.61015,0.0378 -2.91168,0.0885 -3.86133,0.14063 -0.47478,0.0264 -0.85427,0.0501 -1.20312,0.0898 -0.17462,0.0189 -0.32247,0.0337 -0.59766,0.0957 -0.13757,0.0302 -0.29292,0.0537 -0.65625,0.22071 -0.0907,0.0419 -0.19578,0.0976 -0.32617,0.17773 -0.13077,0.0801 -0.47077,0.352 -0.47266,0.35352 -0.002,0.002 -0.61816,0.78927 -0.61914,0.79101 -9.4e-4,0.002 -0.36914,1.44358 -0.36914,1.44531 v 64.10547 c 0,0.002 0.36801,1.45135 0.36914,1.45313 9.8e-4,0.002 0.61721,0.78928 0.61914,0.79101 0.002,0.002 0.34189,0.27377 0.47266,0.35352 0.13077,0.0801 0.23546,0.13578 0.32617,0.17773 0.36359,0.16706 0.51864,0.18896 0.65625,0.22071 0.27515,0.0631 0.42319,0.0761 0.59766,0.0957 0.34885,0.0397 0.72834,0.0638 1.20312,0.0898 0.94965,0.0522 2.25118,0.0958 3.86133,0.13282 3.22031,0.0744 7.64184,0.125 12.54102,0.125 4.89917,0 9.32266,-0.0506 12.54296,-0.125 1.61016,-0.0378 2.90977,-0.081 3.85938,-0.13282 0.47482,-0.0264 0.85424,-0.0505 1.20312,-0.0898 0.17462,-0.0189 0.32446,-0.0337 0.59961,-0.0957 0.13758,-0.0302 0.29293,-0.0537 0.65625,-0.22071 0.0907,-0.0416 0.19383,-0.0976 0.32422,-0.17773 0.13077,-0.0801 0.47077,-0.352 0.47266,-0.35352 0.002,-0.002 0.62015,-0.78927 0.62109,-0.79101 9.8e-4,-0.002 0.36914,-1.45135 0.36914,-1.45313 v -64.10547 c 0,-0.002 -0.368,-1.44353 -0.36914,-1.44531 -9.4e-4,-0.002 -0.6192,-0.78928 -0.62109,-0.79101 -0.002,-0.002 -0.34189,-0.27377 -0.47266,-0.35352 -0.13077,-0.0801 -0.23351,-0.13578 -0.32422,-0.17773 -0.36359,-0.16706 -0.5186,-0.18896 -0.65625,-0.22071 -0.27515,-0.0631 -0.42514,-0.0761 -0.59961,-0.0957 -0.34885,-0.0397 -0.7283,-0.0638 -1.20312,-0.0898 -0.94961,-0.0522 -2.24922,-0.10359 -3.85938,-0.14063 -3.2203,-0.0745 -7.64379,-0.11719 -12.54296,-0.11719 z"
       transform="matrix(0.26458333,0,0,0.26458333,20.39957,63.899563)" />
    <path
       id="path29092"
       style="color:#000000;font-style:normal;font-variant:normal;font-weight:normal;font-stretch:normal;font-size:medium;line-height:normal;font-family:sans-serif;font-variant-ligatures:normal;font-variant-position:normal;font-variant-caps:normal;font-variant-numeric:normal;font-variant-alternates:normal;font-variant-east-asian:normal;font-feature-settings:normal;font-variation-settings:normal;text-indent:0;text-align:start;text-decoration:none;text-decoration-line:none;text-decoration-style:solid;text-decoration-color:#000000;letter-spacing:normal;word-spacing:normal;text-transform:none;writing-mode:lr-tb;direction:ltr;text-orientation:mixed;dominant-baseline:auto;baseline-shift:baseline;text-anchor:start;white-space:normal;shape-padding:0;shape-margin:0;inline-size:0;clip-rule:nonzero;display:inline;overflow:visible;visibility:visible;isolation:auto;mix-blend-mode:normal;color-interpolation:sRGB;color-interpolation-filters:linearRGB;solid-color:#000000;solid-opacity:1;fill:#f4f4f7;fill-opacity:1;fill-rule:nonzero;stroke:none;stroke-width:3.78000235;stroke-linecap:round;stroke-linejoin:bevel;stroke-miterlimit:20.1;stroke-dasharray:none;stroke-dashoffset:0;stroke-opacity:1;color-rendering:auto;image-rendering:auto;shape-rendering:auto;text-rendering:auto;enable-background:accumulate;stop-color:#000000;paint-order:markers stroke fill"
       d="m 256,441.02734 c -4.89916,0 -9.32265,0.0427 -12.54297,0.11719 -1.61016,0.0378 -2.90976,0.0885 -3.85937,0.14063 -0.47481,0.0264 -0.85425,0.0501 -1.20313,0.0898 -0.17442,0.0189 -0.32242,0.0337 -0.59765,0.0957 -0.13762,0.0302 -0.29481,0.0537 -0.65821,0.22071 -0.0909,0.0419 -0.19352,0.0976 -0.32422,0.17773 -0.13069,0.0801 -0.47075,0.352 -0.47265,0.35352 -0.002,0.002 -0.62014,0.78927 -0.6211,0.79101 -9.5e-4,0.002 -0.36914,1.44358 -0.36914,1.44531 v 64.10547 c 0,0.002 0.36816,1.45135 0.36914,1.45313 9.6e-4,0.002 0.61919,0.78928 0.6211,0.79101 0.002,0.002 0.34196,0.27377 0.47265,0.35352 0.1307,0.0801 0.23336,0.13578 0.32422,0.17773 0.3634,0.16706 0.52058,0.18896 0.65821,0.22071 0.27526,0.0631 0.42321,0.0761 0.59765,0.0957 0.34889,0.0397 0.72832,0.0638 1.20313,0.0898 0.94961,0.0522 2.24921,0.0958 3.85937,0.13282 3.22032,0.0744 7.64381,0.125 12.54297,0.125 4.89917,0 9.3207,-0.0506 12.54102,-0.125 1.61015,-0.0378 2.91171,-0.081 3.86132,-0.13282 0.47481,-0.0264 0.85425,-0.0505 1.20313,-0.0898 0.17442,-0.0189 0.32242,-0.0337 0.59765,-0.0957 0.13762,-0.0302 0.29481,-0.0537 0.65821,-0.22071 0.0909,-0.0416 0.19352,-0.0976 0.32422,-0.17773 0.13069,-0.0801 0.47075,-0.352 0.47265,-0.35352 0.002,-0.002 0.61819,-0.78927 0.61914,-0.79101 9.6e-4,-0.002 0.36914,-1.45135 0.36914,-1.45313 v -64.10547 c 0,-0.002 -0.36815,-1.44353 -0.36914,-1.44531 -9.5e-4,-0.002 -0.61723,-0.78928 -0.61914,-0.79101 -0.002,-0.002 -0.34196,-0.27377 -0.47265,-0.35352 -0.1307,-0.0801 -0.23336,-0.13578 -0.32422,-0.17773 -0.3634,-0.16706 -0.52058,-0.18896 -0.65821,-0.22071 -0.27526,-0.0631 -0.42321,-0.0761 -0.59765,-0.0957 -0.34889,-0.0397 -0.72832,-0.0638 -1.20313,-0.0898 -0.94961,-0.0522 -2.25117,-0.10359 -3.86132,-0.14063 -3.22032,-0.0745 -7.64185,-0.11719 -12.54102,-0.11719 z"
       transform="matrix(0.26458333,0,0,0.26458333,20.39957,63.899563)" />
    <path
       id="path29086"
       style="color:#000000;font-style:normal;font-variant:normal;font-weight:normal;font-stretch:normal;font-size:medium;line-height:normal;font-family:sans-serif;font-variant-ligatures:normal;font-variant-position:normal;font-variant-caps:normal;font-variant-numeric:normal;font-variant-alternates:normal;font-variant-east-asian:normal;font-feature-settings:normal;font-variation-settings:normal;text-indent:0;text-align:start;text-decoration:none;text-decoration-line:none;text-decoration-style:solid;text-decoration-color:#000000;letter-spacing:normal;word-spacing:normal;text-transform:none;writing-mode:lr-tb;direction:ltr;text-orientation:mixed;dominant-baseline:auto;baseline-shift:baseline;text-anchor:start;white-space:normal;shape-padding:0;shape-margin:0;inline-size:0;clip-rule:nonzero;display:inline;overflow:visible;visibility:visible;isolation:auto;mix-blend-mode:normal;color-interpolation:sRGB;color-interpolation-filters:linearRGB;solid-color:#000000;solid-opacity:1;fill:#f4f4f7;fill-opacity:1;fill-rule:nonzero;stroke:none;stroke-width:3.78000235;stroke-linecap:round;stroke-linejoin:bevel;stroke-miterlimit:20.1;stroke-dasharray:none;stroke-dashoffset:0;stroke-opacity:1;color-rendering:auto;image-rendering:auto;shape-rendering:auto;text-rendering:auto;enable-background:accumulate;stop-color:#000000;paint-order:markers stroke fill"
       d="m 172.57812,444.05469 c -9.76075,0 -17.61914,0.18023 -17.61914,0.40625 v 64.10547 c 0,0.22586 7.85839,0.4082 17.61914,0.4082 9.76076,0 17.61719,-0.18219 17.61719,-0.4082 v -64.10547 c 0,-0.22587 -7.85643,-0.40625 -17.61719,-0.40625 z"
       transform="matrix(0.26458333,0,0,0.26458333,20.39957,63.899563)" />
    <path
       style="color:#000000;font-style:normal;font-variant:normal;font-weight:normal;font-stretch:normal;font-size:medium;line-height:normal;font-family:sans-serif;font-variant-ligatures:normal;font-variant-position:normal;font-variant-caps:normal;font-variant-numeric:normal;font-variant-alternates:normal;font-variant-east-asian:normal;font-feature-settings:normal;font-variation-settings:normal;text-indent:0;text-align:start;text-decoration:none;text-decoration-line:none;text-decoration-style:solid;text-decoration-color:#000000;letter-spacing:normal;word-spacing:normal;text-transform:none;writing-mode:lr-tb;direction:ltr;text-orientation:mixed;dominant-baseline:auto;baseline-shift:baseline;text-anchor:start;white-space:normal;shape-padding:0;shape-margin:0;inline-size:0;clip-rule:nonzero;display:inline;overflow:visible;visibility:visible;isolation:auto;mix-blend-mode:normal;color-interpolation:sRGB;color-interpolation-filters:linearRGB;solid-color:#000000;solid-opacity:1;fill:#f4f4f7;fill-opacity:1;fill-rule:nonzero;stroke:none;stroke-linecap:round;stroke-linejoin:bevel;stroke-miterlimit:20.1;stroke-dasharray:none;stroke-dashoffset:0;stroke-opacity:1;color-rendering:auto;image-rendering:auto;shape-rendering:auto;text-rendering:auto;enable-background:accumulate;stop-color:#000000;stroke-width:1.00012561;paint-order:markers stroke fill"
       d="m 66.060547,199.36719 c 1.296237,0 2.466318,-0.0135 3.318359,-0.0332 0.426021,-0.01 0.770232,-0.0214 1.021485,-0.0351 0.125626,-0.007 0.226051,-0.013 0.318359,-0.0234 0.04615,-0.005 0.08538,-0.009 0.158203,-0.0254 0.03641,-0.008 0.07768,-0.0144 0.173828,-0.0586 0.02404,-0.011 0.05136,-0.0257 0.08594,-0.0469 0.03458,-0.0212 0.124495,-0.0933 0.125,-0.0937 5.04e-4,-4.6e-4 0.163809,-0.20852 0.164062,-0.20898 2.53e-4,-4.7e-4 0.09766,-0.3843 0.09766,-0.38477 V 181.4962 c 0,-4.6e-4 -0.0974,-0.38234 -0.09766,-0.38281 -2.53e-4,-4.6e-4 -0.163558,-0.20852 -0.164062,-0.20898 -5.05e-4,-4.7e-4 -0.09042,-0.0726 -0.125,-0.0937 -0.03458,-0.0212 -0.0619,-0.0358 -0.08594,-0.0469 -0.09615,-0.0442 -0.137415,-0.0502 -0.173828,-0.0586 -0.07283,-0.0167 -0.112049,-0.0202 -0.158203,-0.0254 -0.09231,-0.0105 -0.192733,-0.0165 -0.318359,-0.0234 -0.251253,-0.0138 -0.595464,-0.0273 -1.021485,-0.0371 -0.852041,-0.0197 -2.022122,-0.0312 -3.318359,-0.0312 -1.296237,0 -2.466318,0.0115 -3.318359,0.0312 -0.426021,0.01 -0.770232,0.0233 -1.021485,0.0371 -0.125626,0.007 -0.226051,0.0129 -0.318359,0.0234 -0.04615,0.005 -0.08538,0.009 -0.158203,0.0254 -0.03641,0.008 -0.07768,0.0144 -0.173829,0.0586 -0.02404,0.0111 -0.05136,0.0257 -0.08594,0.0469 -0.03458,0.0212 -0.124495,0.0933 -0.125,0.0937 -5.05e-4,4.6e-4 -0.163809,0.20852 -0.164063,0.20898 -2.53e-4,4.7e-4 -0.09766,0.38235 -0.09766,0.38281 v 16.96094 c 0,4.7e-4 0.0974,0.3843 0.09766,0.38477 2.54e-4,4.6e-4 0.163558,0.20852 0.164063,0.20898 5.05e-4,4.7e-4 0.09042,0.0726 0.125,0.0937 0.03458,0.0212 0.0619,0.0358 0.08594,0.0469 0.09615,0.0442 0.137415,0.0502 0.173829,0.0586 0.07283,0.0167 0.112049,0.0202 0.158203,0.0254 0.09231,0.0105 0.192733,0.0165 0.318359,0.0234 0.251253,0.0138 0.595464,0.0253 1.021485,0.0351 0.852041,0.0197 2.022122,0.0332 3.318359,0.0332 z m 0,-1.60157 c -1.286295,0 -2.44812,-0.012 -3.28125,-0.0312 -0.248929,-0.006 -0.396419,-0.0127 -0.580078,-0.0195 v -15.47461 c 0.183659,-0.007 0.331149,-0.0138 0.580078,-0.0195 0.83313,-0.0193 1.994955,-0.0312 3.28125,-0.0312 1.286295,0 2.448119,0.012 3.28125,0.0312 0.248929,0.006 0.396419,0.0127 0.580078,0.0195 v 15.47461 c -0.183659,0.007 -0.331149,0.0138 -0.580078,0.0195 -0.833131,0.0193 -1.994955,0.0312 -3.28125,0.0312 z"
       id="path29088" />
    <path
       id="path29080"
       style="color:#000000;font-style:normal;font-variant:normal;font-weight:normal;font-stretch:normal;font-size:medium;line-height:normal;font-family:sans-serif;font-variant-ligatures:normal;font-variant-position:normal;font-variant-caps:normal;font-variant-numeric:normal;font-variant-alternates:normal;font-variant-east-asian:normal;font-feature-settings:normal;font-variation-settings:normal;text-indent:0;text-align:start;text-decoration:none;text-decoration-line:none;text-decoration-style:solid;text-decoration-color:#000000;letter-spacing:normal;word-spacing:normal;text-transform:none;writing-mode:lr-tb;direction:ltr;text-orientation:mixed;dominant-baseline:auto;baseline-shift:baseline;text-anchor:start;white-space:normal;shape-padding:0;shape-margin:0;inline-size:0;clip-rule:nonzero;display:inline;overflow:visible;visibility:visible;isolation:auto;mix-blend-mode:normal;color-interpolation:sRGB;color-interpolation-filters:linearRGB;solid-color:#000000;solid-opacity:1;fill:#f4f4f7;fill-opacity:1;fill-rule:nonzero;stroke:none;stroke-width:3.78000235;stroke-linecap:round;stroke-linejoin:bevel;stroke-miterlimit:20.1;stroke-dasharray:none;stroke-dashoffset:0;stroke-opacity:1;color-rendering:auto;image-rendering:auto;shape-rendering:auto;text-rendering:auto;enable-background:accumulate;stop-color:#000000;paint-order:markers stroke fill"
       d="m 444.45898,151.92969 c -0.002,0 -1.44353,0.368 -1.44531,0.36914 -0.002,9.8e-4 -0.78928,0.61916 -0.79101,0.62109 -0.002,0.002 -0.27377,0.33993 -0.35352,0.4707 -0.0801,0.13078 -0.13578,0.23547 -0.17773,0.32618 -0.16706,0.36321 -0.18896,0.51863 -0.22071,0.65625 -0.0631,0.27515 -0.0761,0.42323 -0.0957,0.59765 -0.0397,0.34885 -0.0638,0.72834 -0.0898,1.20313 -0.0522,0.94964 -0.10359,2.25117 -0.14063,3.86133 -0.0745,3.2203 -0.11719,7.64184 -0.11719,12.54101 0,4.89914 0.0427,9.32262 0.11719,12.54297 0.0378,1.61015 0.0885,2.91172 0.14063,3.86133 0.0264,0.47482 0.0501,0.85424 0.0898,1.20312 0.0189,0.17424 0.0337,0.32251 0.0957,0.59766 0.0302,0.13757 0.0537,0.29292 0.22071,0.65625 0.0419,0.0907 0.0976,0.19383 0.17773,0.32422 0.0801,0.13077 0.352,0.47073 0.35352,0.47266 0.002,0.002 0.78927,0.62014 0.79101,0.62109 0.002,9.4e-4 1.44358,0.36914 1.44531,0.36914 h 64.10547 c 0.002,0 1.45135,-0.36801 1.45313,-0.36914 0.002,-9.5e-4 0.78928,-0.61921 0.79101,-0.62109 0.002,-0.002 0.27377,-0.34189 0.35352,-0.47266 0.0801,-0.13077 0.13578,-0.23351 0.17773,-0.32422 0.16706,-0.36359 0.18896,-0.5186 0.22071,-0.65625 0.0631,-0.27515 0.0761,-0.42323 0.0957,-0.59766 0.0397,-0.34885 0.0638,-0.7283 0.0898,-1.20312 0.0522,-0.94961 0.0958,-2.25118 0.13282,-3.86133 0.0744,-3.22035 0.125,-7.64383 0.125,-12.54297 0,-4.89917 -0.0506,-9.32071 -0.125,-12.54101 -0.0378,-1.61016 -0.081,-2.91169 -0.13282,-3.86133 -0.0264,-0.47479 -0.0505,-0.85424 -0.0898,-1.20313 -0.0189,-0.17423 -0.0337,-0.3225 -0.0957,-0.59765 -0.0302,-0.13758 -0.0537,-0.29293 -0.22071,-0.65625 -0.0416,-0.0907 -0.0976,-0.19578 -0.17773,-0.32618 -0.0801,-0.13077 -0.352,-0.46881 -0.35352,-0.4707 -0.002,-0.002 -0.78927,-0.62011 -0.79101,-0.62109 -0.002,-9.5e-4 -1.45135,-0.36914 -1.45313,-0.36914 z"
       transform="matrix(0.26458333,0,0,0.26458333,20.39957,63.899563)" />
    <path
       id="path29074"
       style="color:#000000;font-style:normal;font-variant:normal;font-weight:normal;font-stretch:normal;font-size:medium;line-height:normal;font-family:sans-serif;font-variant-ligatures:normal;font-variant-position:normal;font-variant-caps:normal;font-variant-numeric:normal;font-variant-alternates:normal;font-variant-east-asian:normal;font-feature-settings:normal;font-variation-settings:normal;text-indent:0;text-align:start;text-decoration:none;text-decoration-line:none;text-decoration-style:solid;text-decoration-color:#000000;letter-spacing:normal;word-spacing:normal;text-transform:none;writing-mode:lr-tb;direction:ltr;text-orientation:mixed;dominant-baseline:auto;baseline-shift:baseline;text-anchor:start;white-space:normal;shape-padding:0;shape-margin:0;inline-size:0;clip-rule:nonzero;display:inline;overflow:visible;visibility:visible;isolation:auto;mix-blend-mode:normal;color-interpolation:sRGB;color-interpolation-filters:linearRGB;solid-color:#000000;solid-opacity:1;fill:#f4f4f7;fill-opacity:1;fill-rule:nonzero;stroke:none;stroke-width:3.78000235;stroke-linecap:round;stroke-linejoin:bevel;stroke-miterlimit:20.1;stroke-dasharray:none;stroke-dashoffset:0;stroke-opacity:1;color-rendering:auto;image-rendering:auto;shape-rendering:auto;text-rendering:auto;enable-background:accumulate;stop-color:#000000;paint-order:markers stroke fill"
       d="m 444.45898,235.35156 c -0.002,0 -1.44353,0.36996 -1.44531,0.3711 -0.002,9.4e-4 -0.78928,0.61725 -0.79101,0.61914 -0.002,0.002 -0.27377,0.34188 -0.35352,0.47265 -0.0801,0.13077 -0.13578,0.23351 -0.17773,0.32422 -0.16706,0.36359 -0.18896,0.52055 -0.22071,0.65821 -0.0631,0.27514 -0.0761,0.42323 -0.0957,0.59765 -0.0397,0.34885 -0.0638,0.7283 -0.0898,1.20313 -0.0522,0.9496 -0.10359,2.24922 -0.14063,3.85937 -0.0745,3.22031 -0.11719,7.64383 -0.11719,12.54297 0,4.89917 0.0427,9.32071 0.11719,12.54102 0.0378,1.61015 0.0885,2.91168 0.14063,3.86132 0.0264,0.47479 0.0501,0.85424 0.0898,1.20313 0.0189,0.17423 0.0337,0.32251 0.0957,0.59765 0.0302,0.13758 0.0537,0.29488 0.22071,0.65821 0.0419,0.0907 0.0976,0.19382 0.17773,0.32422 0.0801,0.13077 0.352,0.47076 0.35352,0.47265 0.002,0.002 0.78927,0.61816 0.79101,0.61914 0.002,9.5e-4 1.44358,0.36914 1.44531,0.36914 h 64.10547 c 0.002,0 1.45135,-0.36838 1.45313,-0.36914 0.002,-9.8e-4 0.78928,-0.61721 0.79101,-0.61914 0.002,-0.002 0.27377,-0.34188 0.35352,-0.47265 0.0801,-0.13077 0.13578,-0.23351 0.17773,-0.32422 0.16706,-0.36321 0.18896,-0.52059 0.22071,-0.65821 0.0631,-0.27514 0.0761,-0.42323 0.0957,-0.59765 0.0397,-0.34885 0.0638,-0.72834 0.0898,-1.20313 0.0522,-0.94964 0.0958,-2.25117 0.13282,-3.86132 0.0744,-3.22031 0.125,-7.64185 0.125,-12.54102 0,-4.89914 -0.0506,-9.32266 -0.125,-12.54297 -0.0378,-1.61015 -0.081,-2.90977 -0.13282,-3.85937 -0.0264,-0.47483 -0.0505,-0.85424 -0.0898,-1.20313 -0.0189,-0.17423 -0.0337,-0.32251 -0.0957,-0.59765 -0.0302,-0.13758 -0.0537,-0.29488 -0.22071,-0.65821 -0.0416,-0.0907 -0.0976,-0.19382 -0.17773,-0.32422 -0.0801,-0.13077 -0.352,-0.47073 -0.35352,-0.47265 -0.002,-0.002 -0.78927,-0.6182 -0.79101,-0.61914 -0.002,-9.5e-4 -1.45135,-0.3711 -1.45313,-0.3711 z"
       transform="matrix(0.26458333,0,0,0.26458333,20.39957,63.899563)" />
    <path
       id="path29068"
       style="color:#000000;font-style:normal;font-variant:normal;font-weight:normal;font-stretch:normal;font-size:medium;line-height:normal;font-family:sans-serif;font-variant-ligatures:normal;font-variant-position:normal;font-variant-caps:normal;font-variant-numeric:normal;font-variant-alternates:normal;font-variant-east-asian:normal;font-feature-settings:normal;font-variation-settings:normal;text-indent:0;text-align:start;text-decoration:none;text-decoration-line:none;text-decoration-style:solid;text-decoration-color:#000000;letter-spacing:normal;word-spacing:normal;text-transform:none;writing-mode:lr-tb;direction:ltr;text-orientation:mixed;dominant-baseline:auto;baseline-shift:baseline;text-anchor:start;white-space:normal;shape-padding:0;shape-margin:0;inline-size:0;clip-rule:nonzero;display:inline;overflow:visible;visibility:visible;isolation:auto;mix-blend-mode:normal;color-interpolation:sRGB;color-interpolation-filters:linearRGB;solid-color:#000000;solid-opacity:1;fill:#f4f4f7;fill-opacity:1;fill-rule:nonzero;stroke:none;stroke-width:3.78000235;stroke-linecap:round;stroke-linejoin:bevel;stroke-miterlimit:20.1;stroke-dasharray:none;stroke-dashoffset:0;stroke-opacity:1;color-rendering:auto;image-rendering:auto;shape-rendering:auto;text-rendering:auto;enable-background:accumulate;stop-color:#000000;paint-order:markers stroke fill"
       d="m 444.45898,318.77539 c -0.002,0 -1.44353,0.36801 -1.44531,0.36914 -0.002,9.8e-4 -0.78928,0.61721 -0.79101,0.61914 -0.002,0.002 -0.27377,0.34189 -0.35352,0.47266 -0.0801,0.13077 -0.13578,0.23546 -0.17773,0.32617 -0.16706,0.36359 -0.18896,0.51864 -0.22071,0.65625 -0.0631,0.27515 -0.0761,0.42319 -0.0957,0.59766 -0.0397,0.34885 -0.0638,0.72834 -0.0898,1.20312 -0.0522,0.94965 -0.10359,2.25118 -0.14063,3.86133 -0.0745,3.22031 -0.11719,7.64184 -0.11719,12.54102 0,4.89917 0.0427,9.32266 0.11719,12.54296 0.0378,1.61016 0.0885,2.90977 0.14063,3.85938 0.0264,0.47482 0.0501,0.85424 0.0898,1.20312 0.0189,0.17462 0.0337,0.32446 0.0957,0.59961 0.0302,0.13758 0.0537,0.29293 0.22071,0.65625 0.0419,0.0907 0.0976,0.19383 0.17773,0.32422 0.0801,0.13077 0.352,0.47077 0.35352,0.47266 0.002,0.002 0.78927,0.62015 0.79101,0.62109 0.002,9.8e-4 1.44358,0.36914 1.44531,0.36914 h 64.10547 c 0.002,0 1.45135,-0.368 1.45313,-0.36914 0.002,-9.4e-4 0.78928,-0.6192 0.79101,-0.62109 0.002,-0.002 0.27377,-0.34189 0.35352,-0.47266 0.0801,-0.13077 0.13578,-0.23351 0.17773,-0.32422 0.16706,-0.36321 0.18896,-0.5186 0.22071,-0.65625 0.0631,-0.27515 0.0761,-0.42514 0.0957,-0.59961 0.0397,-0.34885 0.0638,-0.7283 0.0898,-1.20312 0.0522,-0.94961 0.0958,-2.24922 0.13282,-3.85938 0.0744,-3.2203 0.125,-7.64379 0.125,-12.54296 0,-4.89918 -0.0506,-9.32071 -0.125,-12.54102 -0.0378,-1.61015 -0.081,-2.91168 -0.13282,-3.86133 -0.0264,-0.47478 -0.0505,-0.85427 -0.0898,-1.20312 -0.0189,-0.17462 -0.0337,-0.32247 -0.0957,-0.59766 -0.0302,-0.13757 -0.0537,-0.29292 -0.22071,-0.65625 -0.0416,-0.0907 -0.0976,-0.19578 -0.17773,-0.32617 -0.0801,-0.13077 -0.352,-0.47077 -0.35352,-0.47266 -0.002,-0.002 -0.78927,-0.61816 -0.79101,-0.61914 -0.002,-9.4e-4 -1.45135,-0.36914 -1.45313,-0.36914 z"
       transform="matrix(0.26458333,0,0,0.26458333,20.39957,63.899563)" />
    <path
       id="path29062"
       style="color:#000000;font-style:normal;font-variant:normal;font-weight:normal;font-stretch:normal;font-size:medium;line-height:normal;font-family:sans-serif;font-variant-ligatures:normal;font-variant-position:normal;font-variant-caps:normal;font-variant-numeric:normal;font-variant-alternates:normal;font-variant-east-asian:normal;font-feature-settings:normal;font-variation-settings:normal;text-indent:0;text-align:start;text-decoration:none;text-decoration-line:none;text-decoration-style:solid;text-decoration-color:#000000;letter-spacing:normal;word-spacing:normal;text-transform:none;writing-mode:lr-tb;direction:ltr;text-orientation:mixed;dominant-baseline:auto;baseline-shift:baseline;text-anchor:start;white-space:normal;shape-padding:0;shape-margin:0;inline-size:0;clip-rule:nonzero;display:inline;overflow:visible;visibility:visible;isolation:auto;mix-blend-mode:normal;color-interpolation:sRGB;color-interpolation-filters:linearRGB;solid-color:#000000;solid-opacity:1;fill:#f4f4f7;fill-opacity:1;fill-rule:nonzero;stroke:none;stroke-width:3.78000235;stroke-linecap:round;stroke-linejoin:bevel;stroke-miterlimit:20.1;stroke-dasharray:none;stroke-dashoffset:0;stroke-opacity:1;color-rendering:auto;image-rendering:auto;shape-rendering:auto;text-rendering:auto;enable-background:accumulate;stop-color:#000000;paint-order:markers stroke fill"
       d="m 3.4355469,318.77539 c -0.00177,0 -1.4513638,0.36801 -1.453125,0.36914 -0.00176,9.8e-4 -0.7814494,0.61721 -0.7832031,0.61914 -0.00175,0.002 -0.28123999,0.34189 -0.36132818,0.47266 -0.0800882,0.13077 -0.13600839,0.23546 -0.17773437,0.32617 -0.16694173,0.36359 -0.18328469,0.51864 -0.21484375,0.65625 -0.0630803,0.27515 -0.0837109,0.42319 -0.10351562,0.59766 -0.0396473,0.34885 -0.0618119,0.72834 -0.0878906,1.20312 -0.0521197,0.94965 -0.0955464,2.25118 -0.1328125,3.86133 -0.07449449,3.22031 -0.1171875,7.64184 -0.1171875,12.54102 0,4.89917 0.04269301,9.32266 0.1171875,12.54296 0.0374173,1.61016 0.0806928,2.90977 0.1328125,3.85938 0.0260787,0.47482 0.0482434,0.85424 0.0878906,1.20312 0.0196535,0.17462 0.0404353,0.32446 0.10351562,0.59961 0.0313701,0.13758 0.047902,0.29293 0.21484375,0.65625 0.041726,0.0907 0.097684,0.19383 0.17773437,0.32422 0.0800882,0.13077 0.35958958,0.47077 0.36132818,0.47266 0.00175,0.002 0.7794925,0.62015 0.78125,0.62109 0.00176,9.8e-4 1.453313,0.36914 1.4550781,0.36914 H 67.539062 c 0.0018,0 1.445505,-0.368 1.447266,-0.36914 0.0018,-9.4e-4 0.789262,-0.6192 0.791016,-0.62109 0.0018,-0.002 0.273427,-0.34189 0.353515,-0.47266 0.08009,-0.13077 0.136009,-0.23351 0.177735,-0.32422 0.166941,-0.36321 0.189182,-0.5186 0.220703,-0.65625 0.06308,-0.27515 0.07586,-0.42514 0.0957,-0.59961 0.03965,-0.34885 0.06966,-0.7283 0.0957,-1.20312 0.05212,-0.94961 0.09555,-2.24922 0.132813,-3.85938 0.07449,-3.2203 0.11914,-7.64379 0.11914,-12.54296 0,-4.89918 -0.04465,-9.32071 -0.11914,-12.54102 -0.03742,-1.61015 -0.08069,-2.91168 -0.132813,-3.86133 -0.02608,-0.47478 -0.05606,-0.85427 -0.0957,-1.20312 -0.01965,-0.17462 -0.03262,-0.32247 -0.0957,-0.59766 -0.03137,-0.13757 -0.05376,-0.29292 -0.220703,-0.65625 -0.04173,-0.0907 -0.09768,-0.19578 -0.177735,-0.32617 -0.08009,-0.13077 -0.351777,-0.47077 -0.353515,-0.47266 -0.0018,-0.002 -0.789258,-0.61816 -0.791016,-0.61914 -0.0018,-9.4e-4 -1.4455,-0.36914 -1.447266,-0.36914 z"
       transform="matrix(0.26458333,0,0,0.26458333,20.39957,63.899563)" />
    <path
       id="path29056"
       style="color:#000000;font-style:normal;font-variant:normal;font-weight:normal;font-stretch:normal;font-size:medium;line-height:normal;font-family:sans-serif;font-variant-ligatures:normal;font-variant-position:normal;font-variant-caps:normal;font-variant-numeric:normal;font-variant-alternates:normal;font-variant-east-asian:normal;font-feature-settings:normal;font-variation-settings:normal;text-indent:0;text-align:start;text-decoration:none;text-decoration-line:none;text-decoration-style:solid;text-decoration-color:#000000;letter-spacing:normal;word-spacing:normal;text-transform:none;writing-mode:lr-tb;direction:ltr;text-orientation:mixed;dominant-baseline:auto;baseline-shift:baseline;text-anchor:start;white-space:normal;shape-padding:0;shape-margin:0;inline-size:0;clip-rule:nonzero;display:inline;overflow:visible;visibility:visible;isolation:auto;mix-blend-mode:normal;color-interpolation:sRGB;color-interpolation-filters:linearRGB;solid-color:#000000;solid-opacity:1;fill:#f4f4f7;fill-opacity:1;fill-rule:nonzero;stroke:none;stroke-width:3.78000235;stroke-linecap:round;stroke-linejoin:bevel;stroke-miterlimit:20.1;stroke-dasharray:none;stroke-dashoffset:0;stroke-opacity:1;color-rendering:auto;image-rendering:auto;shape-rendering:auto;text-rendering:auto;enable-background:accumulate;stop-color:#000000;paint-order:markers stroke fill"
       d="m 3.4355469,235.35156 c -0.00177,0 -1.4513638,0.36996 -1.453125,0.3711 -0.00176,9.4e-4 -0.7814494,0.61725 -0.7832031,0.61914 -0.00175,0.002 -0.28123999,0.34188 -0.36132818,0.47265 -0.0800882,0.13077 -0.13600839,0.23351 -0.17773437,0.32422 -0.16694173,0.36359 -0.18328469,0.52055 -0.21484375,0.65821 -0.0630803,0.27514 -0.0837109,0.42323 -0.10351562,0.59765 -0.0396473,0.34885 -0.0618119,0.7283 -0.0878906,1.20313 -0.0521197,0.9496 -0.0955464,2.24922 -0.1328125,3.85937 -0.07449449,3.22031 -0.1171875,7.64383 -0.1171875,12.54297 0,4.89917 0.04269301,9.32071 0.1171875,12.54102 0.0374173,1.61015 0.0806928,2.91168 0.1328125,3.86132 0.0260787,0.47479 0.0482434,0.85424 0.0878906,1.20313 0.0196535,0.17423 0.0404353,0.32251 0.10351562,0.59765 0.0313701,0.13758 0.047902,0.29488 0.21484375,0.65821 0.041726,0.0907 0.097684,0.19382 0.17773437,0.32422 0.0800882,0.13077 0.35958958,0.47076 0.36132818,0.47265 0.00175,0.002 0.7794925,0.61816 0.78125,0.61914 0.00176,9.5e-4 1.453313,0.36914 1.4550781,0.36914 H 67.539062 c 0.0018,0 1.445505,-0.36838 1.447266,-0.36914 0.0018,-9.8e-4 0.789262,-0.61721 0.791016,-0.61914 0.0018,-0.002 0.273427,-0.34188 0.353515,-0.47265 0.08009,-0.13077 0.136009,-0.23351 0.177735,-0.32422 0.166941,-0.36321 0.189182,-0.52059 0.220703,-0.65821 0.06308,-0.27514 0.07586,-0.42323 0.0957,-0.59765 0.03965,-0.34885 0.06966,-0.72834 0.0957,-1.20313 0.05212,-0.94964 0.09555,-2.25117 0.132813,-3.86132 0.07449,-3.22031 0.11914,-7.64185 0.11914,-12.54102 0,-4.89914 -0.04465,-9.32266 -0.11914,-12.54297 -0.03742,-1.61015 -0.08069,-2.90977 -0.132813,-3.85937 -0.02608,-0.47483 -0.05606,-0.85424 -0.0957,-1.20313 -0.01965,-0.17423 -0.03262,-0.32251 -0.0957,-0.59765 -0.03137,-0.13758 -0.05376,-0.29488 -0.220703,-0.65821 -0.04173,-0.0907 -0.09768,-0.19382 -0.177735,-0.32422 -0.08009,-0.13077 -0.351777,-0.47073 -0.353515,-0.47265 -0.0018,-0.002 -0.789258,-0.6182 -0.791016,-0.61914 -0.0018,-9.5e-4 -1.4455,-0.3711 -1.447266,-0.3711 z"
       transform="matrix(0.26458333,0,0,0.26458333,20.39957,63.899563)" />
    <path
       id="path29050"
       style="color:#000000;font-style:normal;font-variant:normal;font-weight:normal;font-stretch:normal;font-size:medium;line-height:normal;font-family:sans-serif;font-variant-ligatures:normal;font-variant-position:normal;font-variant-caps:normal;font-variant-numeric:normal;font-variant-alternates:normal;font-variant-east-asian:normal;font-feature-settings:normal;font-variation-settings:normal;text-indent:0;text-align:start;text-decoration:none;text-decoration-line:none;text-decoration-style:solid;text-decoration-color:#000000;letter-spacing:normal;word-spacing:normal;text-transform:none;writing-mode:lr-tb;direction:ltr;text-orientation:mixed;dominant-baseline:auto;baseline-shift:baseline;text-anchor:start;white-space:normal;shape-padding:0;shape-margin:0;inline-size:0;clip-rule:nonzero;display:inline;overflow:visible;visibility:visible;isolation:auto;mix-blend-mode:normal;color-interpolation:sRGB;color-interpolation-filters:linearRGB;solid-color:#000000;solid-opacity:1;fill:#f4f4f7;fill-opacity:1;fill-rule:nonzero;stroke:none;stroke-width:3.78000235;stroke-linecap:round;stroke-linejoin:bevel;stroke-miterlimit:20.1;stroke-dasharray:none;stroke-dashoffset:0;stroke-opacity:1;color-rendering:auto;image-rendering:auto;shape-rendering:auto;text-rendering:auto;enable-background:accumulate;stop-color:#000000;paint-order:markers stroke fill"
       d="m 3.4355469,151.92969 c -0.00177,0 -1.4513638,0.368 -1.453125,0.36914 -0.00176,9.8e-4 -0.7814494,0.61916 -0.7832031,0.62109 -0.00175,0.002 -0.28123999,0.33993 -0.36132818,0.4707 -0.0800882,0.13078 -0.13600839,0.23547 -0.17773437,0.32618 -0.16694173,0.36321 -0.18328469,0.51863 -0.21484375,0.65625 -0.0630803,0.27515 -0.0837109,0.42323 -0.10351562,0.59765 -0.0396473,0.34885 -0.0618119,0.72834 -0.0878906,1.20313 -0.0521197,0.94964 -0.0955464,2.25117 -0.1328125,3.86133 -0.07449449,3.2203 -0.1171875,7.64184 -0.1171875,12.54101 0,4.89914 0.04269301,9.32262 0.1171875,12.54297 0.0374173,1.61015 0.0806928,2.91172 0.1328125,3.86133 0.0260787,0.47482 0.0482434,0.85424 0.0878906,1.20312 0.0196535,0.17424 0.0404353,0.32251 0.10351562,0.59766 0.0313701,0.13757 0.047902,0.29292 0.21484375,0.65625 0.041726,0.0907 0.097684,0.19383 0.17773437,0.32422 0.0800882,0.13077 0.35958958,0.47073 0.36132818,0.47266 0.00175,0.002 0.7794925,0.62014 0.78125,0.62109 0.00176,9.4e-4 1.453313,0.36914 1.4550781,0.36914 H 67.539062 c 0.0018,0 1.445505,-0.36801 1.447266,-0.36914 0.0018,-9.5e-4 0.789262,-0.61921 0.791016,-0.62109 0.0018,-0.002 0.273427,-0.34189 0.353515,-0.47266 0.08009,-0.13077 0.136009,-0.23351 0.177735,-0.32422 0.166941,-0.36359 0.189182,-0.5186 0.220703,-0.65625 0.06308,-0.27515 0.07586,-0.42323 0.0957,-0.59766 0.03965,-0.34885 0.06966,-0.7283 0.0957,-1.20312 0.05212,-0.94961 0.09555,-2.25118 0.132813,-3.86133 0.07449,-3.22035 0.11914,-7.64383 0.11914,-12.54297 0,-4.89917 -0.04465,-9.32071 -0.11914,-12.54101 -0.03742,-1.61016 -0.08069,-2.91169 -0.132813,-3.86133 -0.02608,-0.47479 -0.05606,-0.85424 -0.0957,-1.20313 -0.01965,-0.17423 -0.03262,-0.3225 -0.0957,-0.59765 -0.03137,-0.13758 -0.05376,-0.29293 -0.220703,-0.65625 -0.04173,-0.0907 -0.09768,-0.19578 -0.177735,-0.32618 -0.08009,-0.13077 -0.351777,-0.46881 -0.353515,-0.4707 -0.0018,-0.002 -0.789258,-0.62011 -0.791016,-0.62109 -0.0018,-9.5e-4 -1.4455,-0.36914 -1.447266,-0.36914 z"
       transform="matrix(0.26458333,0,0,0.26458333,20.39957,63.899563)" />
    <path
       id="path29044"
       style="color:#000000;font-style:normal;font-variant:normal;font-weight:normal;font-stretch:normal;font-size:medium;line-height:normal;font-family:sans-serif;font-variant-ligatures:normal;font-variant-position:normal;font-variant-caps:normal;font-variant-numeric:normal;font-variant-alternates:normal;font-variant-east-asian:normal;font-feature-settings:normal;font-variation-settings:normal;text-indent:0;text-align:start;text-decoration:none;text-decoration-line:none;text-decoration-style:solid;text-decoration-color:#000000;letter-spacing:normal;word-spacing:normal;text-transform:none;writing-mode:lr-tb;direction:ltr;text-orientation:mixed;dominant-baseline:auto;baseline-shift:baseline;text-anchor:start;white-space:normal;shape-padding:0;shape-margin:0;inline-size:0;clip-rule:nonzero;display:inline;overflow:visible;visibility:visible;isolation:auto;mix-blend-mode:normal;color-interpolation:sRGB;color-interpolation-filters:linearRGB;solid-color:#000000;solid-opacity:1;fill:#f4f4f7;fill-opacity:1;fill-rule:nonzero;stroke:none;stroke-width:3.78000235;stroke-linecap:round;stroke-linejoin:bevel;stroke-miterlimit:20.1;stroke-dasharray:none;stroke-dashoffset:0;stroke-opacity:1;color-rendering:auto;image-rendering:auto;shape-rendering:auto;text-rendering:auto;enable-background:accumulate;stop-color:#000000;paint-order:markers stroke fill"
       d="m 178.68945,134.11719 c -10.30794,0 -19.60906,0.0848 -26.36133,0.21484 -3.37613,0.065 -6.11132,0.13977 -8.05273,0.22852 -0.97071,0.0444 -1.7341,0.0877 -2.35547,0.14648 -0.31068,0.0295 -0.5667,0.0562 -0.9375,0.12695 -0.18538,0.0355 -0.37467,0.0558 -0.82617,0.22852 -0.22575,0.0864 -0.52542,0.18138 -1.04883,0.58203 -0.13085,0.10016 -0.26944,0.22318 -0.42773,0.38477 -0.15829,0.16157 -0.50095,0.61759 -0.50196,0.61914 -0.002,0.003 -0.6582,2.21178 -0.6582,2.21484 v 101.125 c 0,0.003 0.65619,2.21178 0.6582,2.21484 0.001,0.002 0.34366,0.45761 0.50196,0.61915 0.15828,0.16176 0.29688,0.29234 0.42773,0.39257 0.52341,0.40067 0.82308,0.49567 1.04883,0.58204 0.4515,0.17272 0.64077,0.19336 0.82617,0.22851 0.37081,0.0707 0.62682,0.0975 0.9375,0.12695 0.62137,0.0586 1.38476,0.10189 2.35547,0.14649 1.94141,0.0888 4.6766,0.16351 8.05273,0.22851 6.75227,0.13002 16.05339,0.20703 26.36133,0.20704 h 21.48047 c 10.30795,0 19.60906,-0.077 26.36133,-0.20704 3.37613,-0.065 6.11132,-0.14007 8.05273,-0.22851 0.97071,-0.0442 1.72629,-0.0875 2.34766,-0.14649 0.31068,-0.0302 0.5667,-0.0563 0.9375,-0.12695 0.18539,-0.034 0.37662,-0.0558 0.82813,-0.22851 0.22575,-0.0866 0.52347,-0.18141 1.04687,-0.58204 0.13085,-0.10015 0.27724,-0.23111 0.43555,-0.39257 0.15828,-0.16139 0.50094,-0.6176 0.50195,-0.61915 0.002,-0.003 0.6582,-2.21174 0.6582,-2.21484 v -101.125 c 0,-0.003 -0.65618,-2.21178 -0.6582,-2.21484 -10e-4,-0.002 -0.34366,-0.45757 -0.50195,-0.61914 -0.15829,-0.16158 -0.30468,-0.2846 -0.43555,-0.38477 -0.5234,-0.40065 -0.82112,-0.49568 -1.04687,-0.58203 -0.45151,-0.17269 -0.64273,-0.19314 -0.82813,-0.22852 -0.37081,-0.0708 -0.62682,-0.0975 -0.9375,-0.12695 -0.62137,-0.0588 -1.37695,-0.10215 -2.34766,-0.14648 -1.94141,-0.0887 -4.6766,-0.16347 -8.05273,-0.22852 -6.75227,-0.13009 -16.05338,-0.21484 -26.36133,-0.21484 z"
       transform="matrix(0.26458333,0,0,0.26458333,20.39957,63.899563)" />
    <path
       id="path29038"
       style="color:#000000;font-style:normal;font-variant:normal;font-weight:normal;font-stretch:normal;font-size:medium;line-height:normal;font-family:sans-serif;font-variant-ligatures:normal;font-variant-position:normal;font-variant-caps:normal;font-variant-numeric:normal;font-variant-alternates:normal;font-variant-east-asian:normal;font-feature-settings:normal;font-variation-settings:normal;text-indent:0;text-align:start;text-decoration:none;text-decoration-line:none;text-decoration-style:solid;text-decoration-color:#000000;letter-spacing:normal;word-spacing:normal;text-transform:none;writing-mode:lr-tb;direction:ltr;text-orientation:mixed;dominant-baseline:auto;baseline-shift:baseline;text-anchor:start;white-space:normal;shape-padding:0;shape-margin:0;inline-size:0;clip-rule:nonzero;display:inline;overflow:visible;visibility:visible;isolation:auto;mix-blend-mode:normal;color-interpolation:sRGB;color-interpolation-filters:linearRGB;solid-color:#000000;solid-opacity:1;fill:#f4f4f7;fill-opacity:1;fill-rule:nonzero;stroke:none;stroke-width:3.78000235;stroke-linecap:round;stroke-linejoin:bevel;stroke-miterlimit:20.1;stroke-dasharray:none;stroke-dashoffset:0;stroke-opacity:1;color-rendering:auto;image-rendering:auto;shape-rendering:auto;text-rendering:auto;enable-background:accumulate;stop-color:#000000;paint-order:markers stroke fill"
       d="m 311.82812,134.11719 c -10.30794,0 -19.6071,0.0848 -26.35937,0.21484 -3.37613,0.065 -6.10546,0.13977 -8.04687,0.22852 -0.97071,0.0444 -1.7341,0.0877 -2.35547,0.14648 -0.31068,0.0295 -0.56671,0.0562 -0.9375,0.12695 -0.18539,0.0355 -0.37467,0.0558 -0.82618,0.22852 -0.22575,0.0864 -0.52542,0.18138 -1.04882,0.58203 -0.13085,0.10016 -0.27725,0.22318 -0.43555,0.38477 -0.15829,0.16157 -0.50094,0.61759 -0.50195,0.61914 -0.002,0.003 -0.65625,2.21178 -0.65625,2.21484 v 101.125 c 0,0.003 0.65423,2.21178 0.65625,2.21484 10e-4,0.002 0.34366,0.45761 0.50195,0.61915 0.15829,0.16176 0.30468,0.29234 0.43555,0.39257 0.5234,0.40067 0.82307,0.49567 1.04882,0.58204 0.45151,0.17272 0.64078,0.19336 0.82618,0.22851 0.37081,0.0707 0.62682,0.0975 0.9375,0.12695 0.62137,0.0586 1.38476,0.10189 2.35547,0.14649 1.94141,0.0888 4.67074,0.16351 8.04687,0.22851 6.75227,0.13002 16.05143,0.20703 26.35937,0.20704 h 21.48243 c 10.30794,0 19.60905,-0.077 26.36133,-0.20704 3.37613,-0.065 6.1113,-0.14007 8.05273,-0.22851 0.9707,-0.0442 1.73408,-0.0875 2.35547,-0.14649 0.31068,-0.0302 0.56673,-0.0563 0.9375,-0.12695 0.18557,-0.034 0.37471,-0.0558 0.82617,-0.22851 0.22564,-0.0866 0.5254,-0.18141 1.04883,-0.58204 0.13077,-0.10015 0.26945,-0.23111 0.42773,-0.39257 0.15836,-0.16139 0.50094,-0.6176 0.50196,-0.61915 0.002,-0.003 0.65625,-2.21174 0.65625,-2.21484 v -101.125 c 0,-0.003 -0.65425,-2.21178 -0.65625,-2.21484 -10e-4,-0.002 -0.34356,-0.45757 -0.50196,-0.61914 -0.15836,-0.16158 -0.29704,-0.2846 -0.42773,-0.38477 -0.52343,-0.40065 -0.82308,-0.49568 -1.04883,-0.58203 -0.4515,-0.17269 -0.64075,-0.19314 -0.82617,-0.22852 -0.37077,-0.0708 -0.62682,-0.0975 -0.9375,-0.12695 -0.62139,-0.0588 -1.38477,-0.10215 -2.35547,-0.14648 -1.94143,-0.0887 -4.6766,-0.16347 -8.05273,-0.22852 -6.75228,-0.13009 -16.05339,-0.21484 -26.36133,-0.21484 z"
       transform="matrix(0.26458333,0,0,0.26458333,20.39957,63.899563)" />
    <path
       id="path29032"
       style="color:#000000;font-style:normal;font-variant:normal;font-weight:normal;font-stretch:normal;font-size:medium;line-height:normal;font-family:sans-serif;font-variant-ligatures:normal;font-variant-position:normal;font-variant-caps:normal;font-variant-numeric:normal;font-variant-alternates:normal;font-variant-east-asian:normal;font-feature-settings:normal;font-variation-settings:normal;text-indent:0;text-align:start;text-decoration:none;text-decoration-line:none;text-decoration-style:solid;text-decoration-color:#000000;letter-spacing:normal;word-spacing:normal;text-transform:none;writing-mode:lr-tb;direction:ltr;text-orientation:mixed;dominant-baseline:auto;baseline-shift:baseline;text-anchor:start;white-space:normal;shape-padding:0;shape-margin:0;inline-size:0;clip-rule:nonzero;display:inline;overflow:visible;visibility:visible;isolation:auto;mix-blend-mode:normal;color-interpolation:sRGB;color-interpolation-filters:linearRGB;solid-color:#000000;solid-opacity:1;fill:#f4f4f7;fill-opacity:1;fill-rule:nonzero;stroke:none;stroke-width:3.78000235;stroke-linecap:round;stroke-linejoin:bevel;stroke-miterlimit:20.1;stroke-dasharray:none;stroke-dashoffset:0;stroke-opacity:1;color-rendering:auto;image-rendering:auto;shape-rendering:auto;text-rendering:auto;enable-background:accumulate;stop-color:#000000;paint-order:markers stroke fill"
       d="m 178.68945,267.26367 c -10.30794,0 -19.60906,0.077 -26.36133,0.20703 -3.37613,0.065 -6.11132,0.14165 -8.05273,0.23047 -0.97071,0.0442 -1.7341,0.0875 -2.35547,0.14649 -0.31068,0.0302 -0.5667,0.0543 -0.9375,0.125 -0.18538,0.034 -0.37467,0.0636 -0.82617,0.23632 -0.22575,0.0866 -0.52542,0.18336 -1.04883,0.58399 -0.13085,0.10016 -0.26944,0.2212 -0.42773,0.38281 -0.15829,0.16177 -0.50095,0.61955 -0.50196,0.6211 -0.002,0.003 -0.6582,2.21174 -0.6582,2.21484 v 101.12305 c 0,0.003 0.65619,2.21174 0.6582,2.21484 0.001,0.002 0.34366,0.45952 0.50196,0.62109 0.15828,0.16177 0.29688,0.28281 0.42773,0.38282 0.52341,0.40066 0.82308,0.49762 1.04883,0.58398 0.4515,0.17272 0.64077,0.19337 0.82617,0.22852 0.37081,0.0707 0.62682,0.0955 0.9375,0.125 0.62137,0.059 1.38476,0.10383 2.35547,0.14843 1.94141,0.0888 4.6766,0.17132 8.05273,0.23633 6.75227,0.13002 16.05339,0.20703 26.36133,0.20703 h 21.48047 c 10.30795,0 19.60906,-0.077 26.36133,-0.20703 3.37613,-0.065 6.11132,-0.14751 8.05273,-0.23633 0.97071,-0.0442 1.72629,-0.0895 2.34766,-0.14843 0.31068,-0.0302 0.5667,-0.0543 0.9375,-0.125 0.18539,-0.034 0.37662,-0.0562 0.82813,-0.22852 0.22575,-0.0865 0.52347,-0.18335 1.04687,-0.58398 0.13085,-0.10016 0.27724,-0.2212 0.43555,-0.38282 0.15828,-0.16176 0.50094,-0.61954 0.50195,-0.62109 0.002,-0.003 0.6582,-2.21175 0.6582,-2.21484 V 272.01172 c 0,-0.003 -0.65618,-2.21175 -0.6582,-2.21484 -10e-4,-0.002 -0.34366,-0.45952 -0.50195,-0.6211 -0.15829,-0.16138 -0.30468,-0.2828 -0.43555,-0.38281 -0.5234,-0.40067 -0.82112,-0.49762 -1.04687,-0.58399 -0.45151,-0.17272 -0.64273,-0.2008 -0.82813,-0.23632 -0.37081,-0.0707 -0.62682,-0.0955 -0.9375,-0.125 -0.62137,-0.059 -1.37695,-0.10384 -2.34766,-0.14844 -1.94141,-0.0888 -4.6766,-0.16313 -8.05273,-0.22852 -6.75227,-0.13001 -16.05338,-0.20703 -26.36133,-0.20703 z"
       transform="matrix(0.26458333,0,0,0.26458333,20.39957,63.899563)" />
    <path
       id="path29026"
       style="color:#000000;font-style:normal;font-variant:normal;font-weight:normal;font-stretch:normal;font-size:medium;line-height:normal;font-family:sans-serif;font-variant-ligatures:normal;font-variant-position:normal;font-variant-caps:normal;font-variant-numeric:normal;font-variant-alternates:normal;font-variant-east-asian:normal;font-feature-settings:normal;font-variation-settings:normal;text-indent:0;text-align:start;text-decoration:none;text-decoration-line:none;text-decoration-style:solid;text-decoration-color:#000000;letter-spacing:normal;word-spacing:normal;text-transform:none;writing-mode:lr-tb;direction:ltr;text-orientation:mixed;dominant-baseline:auto;baseline-shift:baseline;text-anchor:start;white-space:normal;shape-padding:0;shape-margin:0;inline-size:0;clip-rule:nonzero;display:inline;overflow:visible;visibility:visible;isolation:auto;mix-blend-mode:normal;color-interpolation:sRGB;color-interpolation-filters:linearRGB;solid-color:#000000;solid-opacity:1;fill:#f4f4f7;fill-opacity:1;fill-rule:nonzero;stroke:none;stroke-width:3.78000235;stroke-linecap:round;stroke-linejoin:bevel;stroke-miterlimit:20.1;stroke-dasharray:none;stroke-dashoffset:0;stroke-opacity:1;color-rendering:auto;image-rendering:auto;shape-rendering:auto;text-rendering:auto;enable-background:accumulate;stop-color:#000000;paint-order:markers stroke fill"
       d="m 311.82812,267.26367 c -10.30794,0 -19.6071,0.077 -26.35937,0.20703 -3.37613,0.065 -6.10546,0.14165 -8.04687,0.23047 -0.97071,0.0442 -1.7341,0.0875 -2.35547,0.14649 -0.31068,0.0302 -0.56671,0.0543 -0.9375,0.125 -0.18539,0.034 -0.37467,0.0636 -0.82618,0.23632 -0.22575,0.0866 -0.52542,0.18336 -1.04882,0.58399 -0.13085,0.10016 -0.27725,0.2212 -0.43555,0.38281 -0.15829,0.16177 -0.50094,0.61955 -0.50195,0.6211 -0.002,0.003 -0.65625,2.21174 -0.65625,2.21484 v 101.12305 c 0,0.003 0.65423,2.21174 0.65625,2.21484 10e-4,0.002 0.34366,0.45952 0.50195,0.62109 0.15829,0.16177 0.30468,0.28281 0.43555,0.38282 0.5234,0.40066 0.82307,0.49762 1.04882,0.58398 0.45151,0.17272 0.64078,0.19337 0.82618,0.22852 0.37081,0.0707 0.62682,0.0955 0.9375,0.125 0.62137,0.059 1.38476,0.10383 2.35547,0.14843 1.94141,0.0888 4.67074,0.17132 8.04687,0.23633 6.75227,0.13002 16.05143,0.20703 26.35937,0.20703 h 21.48243 c 10.30794,0 19.60905,-0.077 26.36133,-0.20703 3.37613,-0.065 6.1113,-0.14751 8.05273,-0.23633 0.9707,-0.0442 1.73408,-0.0895 2.35547,-0.14843 0.31068,-0.0302 0.56673,-0.0543 0.9375,-0.125 0.18557,-0.034 0.37471,-0.0562 0.82617,-0.22852 0.22564,-0.0865 0.5254,-0.18335 1.04883,-0.58398 0.13077,-0.10016 0.26945,-0.2212 0.42773,-0.38282 0.15836,-0.16176 0.50094,-0.61954 0.50196,-0.62109 0.002,-0.003 0.65625,-2.21175 0.65625,-2.21484 V 272.01172 c 0,-0.003 -0.65425,-2.21175 -0.65625,-2.21484 -10e-4,-0.002 -0.34356,-0.45952 -0.50196,-0.6211 -0.15836,-0.16138 -0.29704,-0.2828 -0.42773,-0.38281 -0.52343,-0.40067 -0.82308,-0.49762 -1.04883,-0.58399 -0.4515,-0.17272 -0.64075,-0.2008 -0.82617,-0.23632 -0.37077,-0.0707 -0.62682,-0.0955 -0.9375,-0.125 -0.62139,-0.059 -1.38477,-0.10384 -2.35547,-0.14844 -1.94143,-0.0888 -4.6766,-0.16313 -8.05273,-0.22852 -6.75228,-0.13001 -16.05339,-0.20703 -26.36133,-0.20703 z"
       transform="matrix(0.26458333,0,0,0.26458333,20.39957,63.899563)" />
  </g>
</svg>
