<?xml version="1.0" encoding="UTF-8" standalone="no"?>
<!-- Generator: Adobe Illustrator 16.0.0, SVG Export Plug-In . SVG Version: 6.00 Build 0)  -->

<svg
   version="1.1"
   id="Capa_1"
   x="0px"
   y="0px"
   width="942px"
   height="942px"
   viewBox="0 0 942 942"
   style="enable-background:new 0 0 942 942;"
   xml:space="preserve"
   sodipodi:docname="cpu.svg"
   inkscape:version="1.2.1 (9c6d41e410, 2022-07-14)"
   xmlns:inkscape="http://www.inkscape.org/namespaces/inkscape"
   xmlns:sodipodi="http://sodipodi.sourceforge.net/DTD/sodipodi-0.dtd"
   xmlns="http://www.w3.org/2000/svg"
   xmlns:svg="http://www.w3.org/2000/svg"><defs
   id="defs65" /><sodipodi:namedview
   id="namedview63"
   pagecolor="#ffffff"
   bordercolor="#000000"
   borderopacity="0.25"
   inkscape:showpageshadow="2"
   inkscape:pageopacity="0.0"
   inkscape:pagecheckerboard="0"
   inkscape:deskcolor="#d1d1d1"
   showgrid="false"
   inkscape:zoom="0.92462845"
   inkscape:cx="835.47072"
   inkscape:cy="470.45924"
   inkscape:window-width="948"
   inkscape:window-height="1045"
   inkscape:window-x="2884"
   inkscape:window-y="8"
   inkscape:window-maximized="0"
   inkscape:current-layer="Capa_1" />
<g
   id="g30"
   transform="translate(-0.05122412,-6.3355526)">
	<g
   id="g28">
		<path
   d="m 579.1,894 c 0,26.5 21.5,48 48,48 26.5,0 48,-21.5 48,-48 V 816.5 H 579.2 V 894 Z"
   id="path2" />
		<path
   d="m 579.1,48 v 77.5 H 675 V 48 C 675,21.5 653.5,0 627,0 600.5,0 579.1,21.5 579.1,48 Z"
   id="path4" />
		<path
   d="m 423,48 v 77.5 h 96 V 48 C 519,21.5 497.5,0 471,0 444.5,0 423,21.5 423,48 Z"
   id="path6" />
		<path
   d="m 423,894 c 0,26.5 21.5,48 48,48 26.5,0 48,-21.5 48,-48 v -77.5 h -96 z"
   id="path8" />
		<path
   d="m 267,48 v 77.5 h 95.9 V 48 C 362.9,21.5 341.4,0 314.9,0 288.4,0 267,21.5 267,48 Z"
   id="path10" />
		<path
   d="m 267,894 c 0,26.5 21.5,48 48,48 26.5,0 48,-21.5 48,-48 v -77.5 h -96 z"
   id="path12" />
		<path
   d="m 0,627 c 0,26.5 21.5,48 48,48 h 77.5 V 579.1 H 48 C 21.5,579.1 0,600.5 0,627 Z"
   id="path14" />
		<path
   d="M 894,579.1 H 816.5 V 675 H 894 c 26.5,0 48,-21.5 48,-48 0,-26.5 -21.5,-47.9 -48,-47.9 z"
   id="path16" />
		<path
   d="m 0,471 c 0,26.5 21.5,48 48,48 h 77.5 V 423 H 48 C 21.5,423 0,444.5 0,471 Z"
   id="path18" />
		<path
   d="m 894,423 h -77.5 v 96 H 894 c 26.5,0 48,-21.5 48,-48 0,-26.5 -21.5,-48 -48,-48 z"
   id="path20" />
		<path
   d="m 0,315 c 0,26.5 21.5,48 48,48 h 77.5 V 267 H 48 C 21.5,267 0,288.5 0,315 Z"
   id="path22" />
		<path
   d="m 894,267 h -77.5 v 95.9 H 894 c 26.5,0 48,-21.5 48,-48 0,-26.5 -21.5,-47.9 -48,-47.9 z"
   id="path24" />
		<path
   d="m 171.6,720.4 c 0,27.6 22.4,50 50,50 h 498.8 c 27.6,0 50,-22.4 50,-50 V 221.6 c 0,-27.6 -22.4,-50 -50,-50 H 221.6 c -27.6,0 -50,22.4 -50,50 z"
   id="path26" />
	</g>
</g>
<g
   id="g32">
</g>
<g
   id="g34">
</g>
<g
   id="g36">
</g>
<g
   id="g38">
</g>
<g
   id="g40">
</g>
<g
   id="g42">
</g>
<g
   id="g44">
</g>
<g
   id="g46">
</g>
<g
   id="g48">
</g>
<g
   id="g50">
</g>
<g
   id="g52">
</g>
<g
   id="g54">
</g>
<g
   id="g56">
</g>
<g
   id="g58">
</g>
<g
   id="g60">
</g>
<path
   style="fill:#fefeff;fill-opacity:0.99607801;stroke:#000000;stroke-width:4.7392;stroke-linecap:round;stroke-linejoin:round;paint-order:stroke markers fill"
   d="m 209.55936,761.88269 c -12.48236,-3.36165 -22.74551,-10.74531 -29.53319,-21.24717 -8.26803,-12.79226 -7.65507,10.61763 -7.30076,-278.8284 l 0.31707,-259.02296 3.93524,-8.24038 c 7.00363,-14.66559 20.40622,-25.04989 36.00908,-27.89977 9.02111,-1.64772 506.97705,-1.65134 516.02639,-0.004 15.28008,2.78199 28.62435,13.12731 35.88671,27.82165 l 4.05762,8.21 v 261.78288 261.78287 l -4.01795,8.41455 c -6.64187,13.90963 -18.07425,23.40654 -32.79139,27.23987 -5.63531,1.46781 -35.62954,1.64971 -261.64579,1.58669 -216.11117,-0.0602 -256.1496,-0.30515 -260.94303,-1.59608 z"
   id="path417" /><path
   style="fill:#fefeff;fill-opacity:0.996078;stroke:#000000;stroke-width:4.7392;stroke-linecap:round;stroke-linejoin:round;paint-order:stroke markers fill"
   d="m 267.67509,76.883957 c 0,-38.1814 0.18889,-42.689672 2.03757,-48.629475 4.21503,-13.54294 13.00565,-23.6287277 25.82158,-29.6260269 13.10342,-6.1318292 30.66145,-5.2497345 43.33433,2.17706511 12.13655,7.11249049 21.02237,20.73393679 22.88549,35.08210379 0.56518,4.352564 1.04263,24.825952 1.061,45.496417 l 0.0334,37.582659 H 315.26178 267.6751 Z"
   id="path1319" /><path
   style="fill:#fefeff;fill-opacity:0.996078;stroke:#000000;stroke-width:4.7392;stroke-linecap:round;stroke-linejoin:round;paint-order:stroke markers fill"
   d="m 423.41332,78.463107 c 0,-25.629431 0.44267,-42.608267 1.20544,-46.234788 3.03528,-14.431026 12.7018,-26.6784357 26.35046,-33.3858574 7.27117,-3.5733009 8.00465,-3.7092813 20.00804,-3.7092813 11.97914,0 12.75129,0.1422611 20.00101,3.6850059 8.92174,4.3598098 17.55597,12.5500338 21.55969,20.4509918 5.70421,11.256718 6.04872,14.607266 6.04872,58.827163 V 118.9667 H 471 423.41332 Z"
   id="path1321" /><path
   style="fill:#fefeff;fill-opacity:0.996078;stroke:#000000;stroke-width:4.7392;stroke-linecap:round;stroke-linejoin:round;paint-order:stroke markers fill"
   d="m 579.40907,75.976464 c 0.46306,-48.357968 0.52429,-48.792106 8.58309,-60.860267 5.54252,-8.2999823 14.63242,-15.19495577 24.25258,-18.3963393 5.87383,-1.9546865 8.92021,-2.2980837 17.18158,-1.9367601 8.91712,0.3900044 10.9449,0.8855192 18.10487,4.42416419 12.61542,6.23488091 21.6574,17.21234721 25.11521,30.49126121 1.37555,5.282487 1.67851,13.920387 1.67851,47.857061 V 118.9667 h -47.66375 -47.66375 z"
   id="path1323" /><path
   style="fill:#fefeff;fill-opacity:0.996078;stroke:#000000;stroke-width:4.7392;stroke-linecap:round;stroke-linejoin:round;paint-order:stroke markers fill"
   d="m 618.85944,934.38643 c -19.26538,-3.23904 -35.37493,-19.93442 -38.5705,-39.97311 -0.61824,-3.87682 -1.12471,-24.12899 -1.12922,-45.15327 l -0.008,-38.12343 h 47.64268 47.64269 l -0.32638,44.13091 -0.32638,44.13091 -3.98589,8.06184 c -7.1306,14.4223 -19.69537,24.10556 -34.87692,26.87849 -7.12166,1.30078 -8.58275,1.30512 -16.06191,0.0477 z"
   id="path1325" /><path
   style="fill:#fefeff;fill-opacity:0.996078;stroke:#000000;stroke-width:4.7392;stroke-linecap:round;stroke-linejoin:round;paint-order:stroke markers fill"
   d="m 463.42939,934.41699 c -18.44713,-3.18205 -33.65217,-17.10053 -38.33756,-35.0937 -1.37368,-5.2753 -1.67851,-13.86836 -1.67851,-47.3163 V 811.13662 H 471 518.58668 v 39.96284 c 0,25.23187 -0.44435,42.07546 -1.20544,45.69403 -4.04822,19.24694 -19.9963,34.5057 -39.35139,37.65053 -7.19651,1.1693 -7.67011,1.16842 -14.60046,-0.027 z"
   id="path1327" /><path
   style="fill:#fefeff;fill-opacity:0.996078;stroke:#000000;stroke-width:4.7392;stroke-linecap:round;stroke-linejoin:round;paint-order:stroke markers fill"
   d="m 304.71824,933.87083 c -13.99237,-3.03961 -25.63825,-12.49863 -32.51651,-26.41055 l -3.98589,-8.06184 -0.32638,-44.13091 -0.32638,-44.13091 h 47.64269 47.64268 l -0.008,38.12343 c -0.005,21.02428 -0.51098,41.27645 -1.12922,45.15327 -3.2766,20.5468 -19.24628,36.71874 -39.54159,40.04238 -7.85003,1.28556 -9.02183,1.24628 -17.45123,-0.58487 z"
   id="path1329" /><path
   style="fill:#fefeff;fill-opacity:0.996078;stroke:#000000;stroke-width:4.7392;stroke-linecap:round;stroke-linejoin:round;paint-order:stroke markers fill"
   d="M 33.810283,353.71844 C 5.716414,344.73755 -7.5123452,312.98672 5.8922926,286.71146 9.781158,279.08865 18.540728,270.68624 26.866956,266.592 c 10.635898,-5.22997 17.279693,-5.87395 61.006178,-5.91337 l 37.041906,-0.0334 v 47.58668 47.58668 l -42.449483,-0.0582 c -38.094436,-0.0522 -43.086159,-0.26169 -48.655274,-2.042 z"
   id="path1331" /><path
   style="fill:#fefeff;fill-opacity:0.996078;stroke:#000000;stroke-width:4.7392;stroke-linecap:round;stroke-linejoin:round;paint-order:stroke markers fill"
   d="M 41.480712,511.56973 C 27.63307,509.78941 12.220069,498.89116 6.029568,486.50287 -6.7177499,460.99323 4.4705859,431.17793 30.823192,420.43145 c 5.776539,-2.35565 7.22118,-2.43484 50.020092,-2.74169 l 44.071756,-0.31599 v 47.63229 47.63229 l -38.664179,-0.14181 c -21.265298,-0.078 -41.411865,-0.49506 -44.770149,-0.92681 z"
   id="path1333" /><path
   style="fill:#fefeff;fill-opacity:0.996078;stroke:#000000;stroke-width:4.7392;stroke-linecap:round;stroke-linejoin:round;paint-order:stroke markers fill"
   d="M 36.230769,666.4144 C 7.4008413,658.87873 -7.4186169,627.42509 5.2711674,600.704 9.6838087,591.41224 17.334601,583.24651 25.508716,579.10437 c 10.93284,-5.54009 14.514417,-5.90116 58.535961,-5.90116 h 40.870363 v 47.58669 47.58668 l -40.82721,-0.0624 C 49.29036,668.2611 42.222387,667.98051 36.230769,666.4144 Z"
   id="path1335" /><path
   style="fill:#fefeff;fill-opacity:0.996078;stroke:#000000;stroke-width:4.7392;stroke-linecap:round;stroke-linejoin:round;paint-order:stroke markers fill"
   d="m 817.08496,620.7899 v -47.58669 h 40.87036 c 44.51084,0 48.20067,0.39098 59.02546,6.25431 16.6221,9.00349 26.87867,29.8849 23.72425,48.30031 -0.65646,3.83237 -2.43874,9.68774 -3.9606,13.01195 -3.37314,7.3679 -12.90998,17.6081 -19.98477,21.45868 -10.22823,5.5669 -15.53381,6.11473 -59.38825,6.13213 l -40.28645,0.016 z"
   id="path1337" /><path
   style="fill:#fefeff;fill-opacity:0.996078;stroke:#000000;stroke-width:4.7392;stroke-linecap:round;stroke-linejoin:round;paint-order:stroke markers fill"
   d="m 817.08496,465.05166 v -47.58668 h 42.06518 c 38.84669,0 42.59108,0.16343 48.93858,2.13601 17.09352,5.31207 29.38021,19.61341 32.50479,37.83461 4.41254,25.73194 -14.14221,50.34946 -40.77261,54.09508 -4.16384,0.58565 -24.48281,1.07446 -45.15328,1.08624 l -37.58266,0.0214 z"
   id="path1339" /><path
   style="fill:#fefeff;fill-opacity:0.996078;stroke:#000000;stroke-width:4.7392;stroke-linecap:round;stroke-linejoin:round;paint-order:stroke markers fill"
   d="m 817.08496,308.23192 v -47.58668 l 37.04191,0.0334 c 20.37304,0.0184 40.69202,0.49987 45.15327,1.07002 26.9594,3.44538 45.77458,28.08362 41.31337,54.09933 -2.23066,13.0082 -8.50403,23.24452 -18.9752,30.962 -11.72118,8.63876 -14.28589,9.00862 -62.46817,9.00862 h -42.06518 z"
   id="path1341" /></svg>
