<svg xmlns="http://www.w3.org/2000/svg" width="16" height="16"><defs><style id="current-color-scheme" type="text/css">.ColorScheme-Highlight{color:#f4f4f7fff}</style></defs><path style="fill:currentColor;color:#f4f4f7" d="M14.933 6c.044.188.067.384.067.586v4.828A2.586 2.586 0 0 1 12.414 14H3.586A2.586 2.586 0 0 1 1 11.414L.999 6h13.934ZM6 8H5v3h1v-1h4v1h1V8h-1v1H6V8Zm1.382-6C8.067 2 8.694 2.387 9 3c.306.613.933 1 1.618 1h1.796c.83 0 1.57.392 2.043 1H1v-.414A2.586 2.586 0 0 1 3.586 2h3.796Z"/></svg>