<svg xmlns="http://www.w3.org/2000/svg" viewBox="0 0 1000 1000" xml:space="preserve"><path fill="#fff" d="M477.21 12.97c-24.15 6.52-47.91 25.49-58.65 46.96-11.12 21.85-13.22 51.17-4.98 72.63 2.68 6.9 3.07 9.97 1.53 10.54-15.52 4.22-36.8 13.03-53.66 21.46-57.69 29.51-100.04 76.66-124.19 138.37-15.14 38.71-31.24 111.73-40.25 182.26-10.54 83.75-28.36 140.1-54.62 172.87-4.79 6.13-18.78 19.17-31.05 28.94-27.21 21.85-35.46 30.66-42.74 46-8.62 18.4-12.27 37.37-12.27 64.59 0 36.22 8.05 56.15 26.83 65.93 7.47 4.02 9.97 4.02 150.45 4.6l142.97.38 2.11 15.14c4.41 29.51 14.76 50.59 35.07 71.1 14.57 14.37 28.36 23.19 48.3 30.28 12.27 4.41 16.86 4.98 37.95 4.98 21.08 0 25.68-.58 37.95-4.98 38.14-13.8 65.54-41.2 77.62-78.19 2.68-7.86 5.37-19.74 6.13-26.26l1.34-12.07 142.97-.38c140.86-.58 143.35-.58 150.83-4.6 9.97-5.17 19.17-17.44 23.38-31.05 4.98-15.91 4.41-57.31-.96-77.43-8.05-29.32-16.48-40.63-50.79-68.23-12.65-9.97-26.64-23-31.43-28.94-25.3-32.01-45.42-95.83-54.24-172.68-6.71-58.07-23.96-139.33-37.37-175.74-28.94-77.81-87.78-135.3-165.39-161.56-10.92-3.64-16.48-6.52-15.91-8.05 4.21-12.65 7.67-28.94 7.67-36.22.77-59.8-57.49-105.99-114.6-90.65zm35.07 60.94c12.46 5.18 20.31 20.51 17.63 34.69-1.72 9.2-13.99 21.47-23 23.19-11.31 1.92-19.74-.58-27.98-8.82-23.95-23.95 2.11-62.09 33.35-49.06zm31.24 122.85c36.22 5.94 69.95 20.12 97.93 41.21 31.43 23.76 55 57.88 69.19 100.81 12.26 37.18 25.87 104.26 32.58 162.71 5.17 44.27 11.12 71.49 24.53 113.07 17.82 55.39 39.09 86.43 83.17 120.74 11.12 8.82 21.66 18.21 23.57 20.89 4.21 6.71 8.82 26.83 8.82 39.86v11.12H116.14l1.15-16.67c1.15-17.82 4.98-31.43 10.54-37.56 1.73-2.11 9.97-8.81 18.02-14.95 54.43-41.59 75.7-77.43 98.32-165.59 6.32-24.72 9.39-42.93 15.33-92.95 5.56-45.23 22.04-120.55 32.58-148.91 28.17-74.55 84.52-119.97 165.78-133.77 20.11-3.46 64.38-3.46 85.66-.01zm17.05 679.78c-3.26 20.12-15.91 37.37-34.3 46.95-8.43 4.41-12.46 5.17-26.26 5.37-14.95 0-17.25-.57-28.36-6.52-17.44-9.58-28.94-25.87-32.2-45.8l-1.34-8.05h123.8l-1.34 8.05z"/></svg>