<svg enable-background="new 0 0 24.00 24.00" height="240" viewBox="0 0 24 24" width="240" xmlns="http://www.w3.org/2000/svg"><path d="m12.0025 2.9978c-4.215.0097-8.30125 1.41595-11.626247 4.0047h-.015001c3.882498 4.8288 7.763748 9.6575 11.650048 14.4862 2.33-2.9 4.6587-5.8049 6.9875-8.705v-3.1987l-6.9963 8.7163-8.73125-10.86505c2.6325-1.58625 5.65-2.43125 8.73125-2.43625 3.0712.015 6.0838.85875 8.71 2.45125l-.4391.54625h2.5641c.2675-.33125.5362-.66375.805-.995h.005c-3.33-2.59375-7.4263-4-11.645-4.0047zm8.9988 7.0022v7.9975h1.9962v-7.9975m-1.9962 10v2.0025h1.9962v-2.0025" stroke-linejoin="round" stroke-width=".2"/></svg>