<svg enable-background="new 0 0 24.00 24.00" height="240" viewBox="0 0 24 24" width="240" xmlns="http://www.w3.org/2000/svg"><path d="m12 3c-4.21121.0082-8.30036 1.4152-11.624999 4 4.040649 5.0621 7.516509 9.3706 11.634799 14.4902 1.22-1.5201 2.276-2.8329 3.4902-4.3457v-2.6445c0-2.7614 2.2386-5 5-5 .3514.0016.7016.0402 1.0449.1152.6592-.8201 1.4868-1.851 2.1016-2.6152-3.3305-2.5893-7.4279-3.9966-11.6465-4zm8.5 9c-1.4 0-2.5 1.1-2.5 2.5v1.5c-.5 0-1 .5-1 1v4c0 .5.5 1 1 1h5c.5 0 1-.5 1-1v-4c0-.5-.5-1-1-1v-1.5c0-1.4-1.1-2.5-2.5-2.5zm0 1c.8 0 1.5.7 1.5 1.5v1.5h-3v-1.5c0-.8.7-1.5 1.5-1.5z" fill="#f4f4f7" stroke-width="1.33333"/></svg>