<svg enable-background="new 0 0 24.00 24.00" height="240" viewBox="0 0 24 24" width="240" xmlns="http://www.w3.org/2000/svg"><path d="m2.275 2.9978-1.27375 1.2697 1.47 1.475c-.435.26875-.865.55125-1.27.85875l1.79625 2.3975c.5275-.395 1.08-.75125 1.66125-1.07375l2.22625 2.2313c-.7375.3412-1.44125.7562-2.085 1.24l1.80125 2.4024c.77625-.5812 1.655-1.025 2.5975-1.3324l2.55375 2.5537c-1.255.0538-2.41125.4737-3.35375 1.1813l3.60375 4.7999 2.455-3.2762 3.2775 3.2762 1.2638-1.2799m-6.9963-16.7235c-2.14875 0-4.2.38574-6.10375 1.0747l2.3925 2.3925c1.18625-.3025 2.42625-.46375 3.71125-.46375 3.3738 0 6.4887 1.1125 8.9988 2.9975l1.8012-2.3975c-3.0125-2.26-6.7475-3.60345-10.8-3.60345zm0 6.00095c-.3813 0-.7525.02-1.1237.05375l3.1887 3.1938c1.225.2874 2.3587.8199 3.335 1.5524l1.7963-2.4024c-2.0013-1.5038-4.4963-2.39755-7.1963-2.39755z" fill="#f4f4f7" stroke-linejoin="round" stroke-width=".2"/></svg>