<svg enable-background="new 0 0 24.00 24.00" height="240" viewBox="0 0 24 24" width="240" xmlns="http://www.w3.org/2000/svg"><path d="m12.0025 2.9978c-4.215.0097-8.30125 1.41595-11.626247 4.0047 4.037497 5.0575 7.514997 9.37 11.635047 14.4862 2.4424-3.0412 4.6637-5.8049 6.9875-8.705v-3.1987l-.2338.2975c-1.5038-.89875-3.8875-1.885-6.7625-1.885-3.01375 0-5.3225 1.01125-6.7975 1.84625l-1.93375-2.4075c2.6375-1.58625 5.655-2.42625 8.73125-2.43625 3.0712.015 6.0838.85875 8.71 2.45125l-.4391.54625h2.5678c.2447-.2975.5713-.7075.8063-.995-3.33-2.59375-7.4263-4-11.645-4.0047zm8.9988 7.0022v7.9975h1.9962v-7.9975m-1.9962 10v2.0025h1.9962v-2.0025" fill="#f4f4f7" stroke-linejoin="round" stroke-width=".2"/></svg>