<svg enable-background="new 0 0 24.00 24.00" height="240" viewBox="0 0 24 24" width="240" xmlns="http://www.w3.org/2000/svg"><path d="m3.27125 1.44-1.26875 1.27948 2.05 2.05052c-1.29875.60125-2.53375 1.34375-3.676247 2.2325 3.827497 4.7938 7.758747 9.6675 11.635047 14.4862l3.8974-4.8574 3.3201 3.32 1.2687-1.27c-5.6287-5.6388-17.22625-17.2413-17.22625-17.2413zm8.73125 1.5578c-1.4063.0047-2.79375.17595-4.14125.48345l1.69875 1.70375c.8062-.11625 1.6212-.185 2.4425-.185 3.0712.015 6.0838.85875 8.71 2.45125l-3.955 4.93125 1.4212 1.4213c1.9-2.3726 3.8376-4.78005 5.4688-6.8013-3.33-2.59375-7.4263-4-11.645-4.0047zm-6.43625 3.29095 8.92125 8.91625-2.485 3.0963-8.73125-10.86505c.7375-.44375 1.50375-.825 2.295-1.1475z" fill="#f4f4f7" stroke-linejoin="round" stroke-width=".2"/></svg>