<svg enable-background="new 0 0 511.999 511.999" viewBox="0 0 511.999 511.999" xmlns="http://www.w3.org/2000/svg"><g fill="#f4f4f7"><path d="m422.863 451.174c-.147.147-.293.293-.437.436-.144.144-.285.285-.423.423.304-.303.588-.587.86-.859z"/><path d="m426.138 447.898c-.105.105-.217.217-.334.334s-.24.24-.367.367c.275-.274.499-.498.701-.701z"/><path d="m427.106 446.93c-.016.016-.043.043-.081.081.088-.088.116-.116.081-.081z"/><path d="m420.873 453.164c-.11.11-.214.214-.311.311s-.187.187-.269.269c.196-.196.393-.394.58-.58z"/><path d="m471.539 227.517v8.251h-48.783c-3.762-31.193-16.097-59.783-34.586-83.329l34.545-34.545 5.836 5.836c18.875 18.875 47.498-9.726 28.61-28.61-1.057-1.057-2.013-2.013-2.881-2.881-.115-.115-.22-.22-.331-.331-.102-.102-.238-.238-.392-.392.065.065.132.132.189.189-.154-.154-.306-.306-.454-.454-.041-.041-.086-.086-.126-.126-.118-.118-.236-.236-.35-.35-1.057-1.057-2.754-2.754-5.3-5.3-.376-.376-.568-.568-.596-.596-5.593-5.593-14.954-14.954-30.04-30.04-18.9-18.9-47.538 9.685-28.61 28.61l5.836 5.836-34.545 34.545c-23.546-18.49-52.137-30.825-83.329-34.586v-48.783h8.251c26.733 0 26.761-40.461 0-40.461h-56.964c-26.733 0-26.761 40.461 0 40.461h8.251v48.783c-31.193 3.762-59.783 16.097-83.329 34.586l-34.546-34.545 5.836-5.836c18.905-18.901-9.686-47.533-28.61-28.61-2.238 2.238-4.03 4.03-5.456 5.456-4.168 4.168-14.111 14.111-34.825 34.825-18.905 18.902 9.763 47.459 28.61 28.61l5.836-5.836 34.545 34.545c-18.49 23.546-30.825 52.137-34.586 83.329h-48.784v-8.251c0-26.733-40.461-26.761-40.461 0v56.964c0 26.733 40.461 26.761 40.461 0v-8.251h48.783c3.762 31.193 16.097 59.783 34.586 83.329l-34.545 34.545-5.836-5.836c-18.901-18.899-47.539 9.685-28.61 28.61 1.057 1.057 2.013 2.013 2.881 2.881 5.376 5.376 7.266 7.266 7.36 7.36 5.593 5.593 14.954 14.954 30.04 30.04 18.9 18.9 47.541-9.682 28.61-28.61l-5.836-5.836 34.545-34.545c23.546 18.49 52.136 30.825 83.329 34.586v48.783h-8.251c-26.733 0-26.761 40.461 0 40.461h56.964c26.733 0 26.761-40.461 0-40.461h-8.251v-48.783c31.193-3.762 59.783-16.097 83.329-34.586l34.545 34.545-5.836 5.836c-18.905 18.902 9.763 47.457 28.61 28.61 1.073-1.073 2.043-2.043 2.921-2.921-.137.137.071-.071.762-.762.268-.268.611-.611 1.038-1.038.249-.249.519-.519.827-.827.867-.867 1.986-1.986 3.378-3.378.409-.409.843-.843 1.302-1.302 5.591-5.591 14.955-14.955 30.052-30.052 18.905-18.901-9.686-47.533-28.61-28.61l-5.836 5.836-34.545-34.545c18.49-23.546 30.825-52.136 34.586-83.329h48.783v8.251c0 26.733 40.461 26.761 40.461 0v-56.964c.003-26.734-40.458-26.761-40.458-.001zm-251.967 41.443c-24.636 0-44.607-19.972-44.607-44.607s19.972-44.607 44.607-44.607 44.607 19.972 44.607 44.607-19.971 44.607-44.607 44.607zm72.856 50.975c-15.192 0-27.507-12.315-27.507-27.507s12.315-27.507 27.507-27.507 27.507 12.315 27.507 27.507-12.315 27.507-27.507 27.507z"/><path d="m421.221 452.816c.273-.273.532-.532.783-.783-.138.138-.273.273-.404.404s-.258.258-.379.379z"/></g></svg>